<svg width="237" height="57" viewBox="0 0 237 57" fill="none" xmlns="http://www.w3.org/2000/svg">
<g opacity="0.5" filter="url(#filter0_f_491_1399)">
<path d="M42.8291 9.42478L23.662 49.8378H14.9232L20.3995 37.6561L7 9.42478H16.5544L24.7106 29.8045L33.9155 9.42478H42.8291Z" fill="#639EFF"/>
<path d="M81.7786 9.42478V49.8378H73.2729V16.9301H58.4169V33.7303C58.4169 38.8493 57.2711 42.8136 54.9796 45.6233C52.727 48.4329 49.1149 49.8378 44.1435 49.8378V42.7944C46.0078 42.7944 47.4643 41.9669 48.5129 40.3119C49.5616 38.6184 50.0859 36.4438 50.0859 33.788V9.42478H81.7786Z" fill="#639EFF"/>
<path d="M125.142 9.42478H133.648V49.8378H125.142V9.42478ZM92.0512 9.42478H100.44V24.0889H105.276C110.131 24.0889 113.879 25.2243 116.52 27.4952C119.161 29.766 120.481 32.9028 120.481 36.9056C120.481 40.8699 119.161 44.026 116.52 46.3738C113.879 48.6831 110.131 49.8378 105.276 49.8378H92.0512V9.42478ZM105.276 31.1323H100.44V42.7944H105.276C107.451 42.7944 109.179 42.294 110.461 41.2933C111.743 40.2541 112.384 38.7916 112.384 36.9056C112.384 34.9812 111.743 33.5379 110.461 32.5757C109.179 31.6134 107.451 31.1323 105.276 31.1323Z" fill="#639EFF"/>
<path d="M143.857 9.42478H170.772V16.4682H152.363V24.9549H160.053C162.694 24.9549 165.044 25.4745 167.102 26.5137C169.199 27.5529 170.85 28.9962 172.054 30.8437C173.297 32.6911 173.918 34.8657 173.918 37.3675C173.918 39.8308 173.297 42.0054 172.054 43.8913C170.85 45.7772 169.199 47.2398 167.102 48.279C165.044 49.3182 162.694 49.8378 160.053 49.8378H143.857V9.42478ZM158.538 31.8251H152.363V42.7944H158.538C160.635 42.7944 162.286 42.3518 163.49 41.4665C164.733 40.5813 165.354 39.2149 165.354 37.3675C165.354 35.52 164.733 34.1344 163.49 33.2107C162.286 32.287 160.635 31.8251 158.538 31.8251Z" fill="#639EFF"/>
<path d="M181.77 9.42478H190.392V25.8209L204.898 9.42478H214.86L197.965 28.3612L215.676 49.8378H205.539L190.392 31.5365V49.8378H181.77V9.42478Z" fill="#639EFF"/>
<path d="M248.894 49.8378L244.641 40.716H230.659L226.464 49.8378H216.968L237.65 7L258.39 49.8378H248.894ZM237.65 22.5879L232.64 34.1344H242.66L237.65 22.5879Z" fill="#639EFF"/>
</g>
<defs>
<filter id="filter0_f_491_1399" x="0" y="0" width="265.39" height="56.8379" filterUnits="userSpaceOnUse" color-interpolation-filters="sRGB">
<feFlood flood-opacity="0" result="BackgroundImageFix"/>
<feBlend mode="normal" in="SourceGraphic" in2="BackgroundImageFix" result="shape"/>
<feGaussianBlur stdDeviation="3.5" result="effect1_foregroundBlur_491_1399"/>
</filter>
</defs>
</svg>
