<svg width="137" height="41" viewBox="0 0 137 41" fill="none" xmlns="http://www.w3.org/2000/svg">
<g opacity="0.5" filter="url(#filter0_f_491_1396)">
<path d="M29.4978 7.5932L17.4624 33.2004H11.9751L15.4138 25.4817L7 7.5932H12.9994L18.1208 20.5066L23.9008 7.5932H29.4978Z" fill="#639EFF"/>
<path d="M36.4452 20.3968C36.4452 22.0796 36.8232 23.5428 37.5792 24.7866C38.3352 26.0304 39.3351 26.9937 40.5789 27.6766C41.8227 28.335 43.1762 28.6643 44.6395 28.6643C46.4442 28.6643 47.9806 28.3229 49.2488 27.64C50.5413 26.9571 51.6144 26.1279 52.468 25.1524V31.0787C51.4193 31.9079 50.2853 32.5541 49.0659 33.0175C47.8465 33.4809 46.2978 33.7126 44.42 33.7126C42.4446 33.7126 40.6155 33.3955 38.9327 32.7614C37.2743 32.103 35.8355 31.1884 34.6161 30.0178C33.3967 28.8472 32.4456 27.4449 31.7627 25.8109C31.0798 24.1769 30.7384 22.3722 30.7384 20.3968C30.7384 18.4214 31.0798 16.6167 31.7627 14.9827C32.4456 13.3487 33.3967 11.9464 34.6161 10.7758C35.8355 9.6052 37.2743 8.70285 38.9327 8.06876C40.6155 7.41029 42.4446 7.08105 44.42 7.08105C46.2978 7.08105 47.8465 7.31274 49.0659 7.77611C50.2853 8.21509 51.4193 8.86137 52.468 9.71494V15.6412C51.6144 14.6413 50.5413 13.8121 49.2488 13.1536C47.9806 12.4708 46.4442 12.1293 44.6395 12.1293C43.1762 12.1293 41.8227 12.4708 40.5789 13.1536C39.3351 13.8121 38.3352 14.7632 37.5792 16.007C36.8232 17.2264 36.4452 18.6897 36.4452 20.3968Z" fill="#639EFF"/>
<path d="M74.904 12.3488H63.8563V33.2004H58.5154V7.5932H80.2449V33.2004H74.904V12.3488Z" fill="#639EFF"/>
<path d="M86.6799 7.5932H102.995V12.0562H91.8013V17.4337H102.264V21.7869H91.8013V28.7374H102.995V33.2004H86.6799V7.5932Z" fill="#639EFF"/>
<path d="M122.563 7.5932H129.002L121.1 19.9578L129.551 33.2004H123.076L118.027 24.055L112.76 33.2004H106.321L114.954 19.9578L107.236 7.5932H113.674L118.064 15.6412L122.563 7.5932Z" fill="#639EFF"/>
</g>
<defs>
<filter id="filter0_f_491_1396" x="0" y="0.0810547" width="136.551" height="40.6313" filterUnits="userSpaceOnUse" color-interpolation-filters="sRGB">
<feFlood flood-opacity="0" result="BackgroundImageFix"/>
<feBlend mode="normal" in="SourceGraphic" in2="BackgroundImageFix" result="shape"/>
<feGaussianBlur stdDeviation="3.5" result="effect1_foregroundBlur_491_1396"/>
</filter>
</defs>
</svg>
