<svg width="19" height="18" viewBox="0 0 19 18" fill="none" xmlns="http://www.w3.org/2000/svg">
<path d="M15.9005 2.62703C14.233 0.924324 11.9278 0 9.57357 0C4.57084 0 0.549046 4.03784 0.598093 8.95135C0.598093 10.5081 1.03951 12.0162 1.7752 13.3784L0.5 18L5.25749 16.7838C6.58174 17.5135 8.05313 17.8541 9.52452 17.8541C14.4782 17.8541 18.5 13.8162 18.5 8.9027C18.5 6.51892 17.5681 4.28108 15.9005 2.62703ZM9.57357 16.3459C8.24932 16.3459 6.92507 16.0054 5.797 15.3243L5.50272 15.1784L2.65804 15.9081L3.39373 13.1351L3.19755 12.8432C1.03951 9.38919 2.06948 4.81622 5.60082 2.67568C9.13215 0.535135 13.6935 1.55676 15.8515 5.05946C18.0095 8.56216 16.9796 13.0865 13.4482 15.227C12.3202 15.9568 10.9469 16.3459 9.57357 16.3459ZM13.8896 10.9459L13.3501 10.7027C13.3501 10.7027 12.5654 10.3622 12.0749 10.1189C12.0259 10.1189 11.9768 10.0703 11.9278 10.0703C11.7807 10.0703 11.6826 10.1189 11.5845 10.1676C11.5845 10.1676 11.5354 10.2162 10.8488 10.9946C10.7997 11.0919 10.7016 11.1405 10.6035 11.1405H10.5545C10.5054 11.1405 10.4074 11.0919 10.3583 11.0432L10.1131 10.9459C9.57357 10.7027 9.08311 10.4108 8.69074 10.0216C8.59264 9.92432 8.4455 9.82703 8.34741 9.72973C8.00409 9.38919 7.66076 9 7.41553 8.56216L7.36648 8.46486C7.31744 8.41622 7.31744 8.36757 7.26839 8.27027C7.26839 8.17297 7.26839 8.07568 7.31744 8.02703C7.31744 8.02703 7.51362 7.78378 7.66076 7.63784C7.75886 7.54054 7.8079 7.39459 7.90599 7.2973C8.00409 7.15135 8.05313 6.95676 8.00409 6.81081C7.95504 6.56757 7.36648 5.25405 7.21935 4.96216C7.12125 4.81622 7.02316 4.76757 6.87602 4.71892H6.72888C6.63079 4.71892 6.48365 4.71892 6.33651 4.71892C6.23842 4.71892 6.14033 4.76757 6.04223 4.76757L5.99319 4.81622C5.89509 4.86486 5.797 4.96216 5.69891 5.01081C5.60082 5.10811 5.55177 5.20541 5.45368 5.3027C5.11035 5.74054 4.91417 6.27568 4.91417 6.81081C4.91417 7.2 5.01226 7.58919 5.1594 7.92973L5.20845 8.07568C5.64986 9 6.23842 9.82703 7.02316 10.5568L7.21935 10.7514C7.36648 10.8973 7.51362 10.9946 7.61172 11.1405C8.64169 12.0162 9.8188 12.6486 11.1431 12.9892C11.2902 13.0378 11.4864 13.0378 11.6335 13.0865C11.7807 13.0865 11.9768 13.0865 12.124 13.0865C12.3692 13.0865 12.6635 12.9892 12.8597 12.8919C13.0068 12.7946 13.1049 12.7946 13.203 12.6973L13.3011 12.6C13.3992 12.5027 13.4973 12.4541 13.5954 12.3568C13.6935 12.2595 13.7916 12.1622 13.8406 12.0649C13.9387 11.8703 13.9877 11.627 14.0368 11.3838C14.0368 11.2865 14.0368 11.1405 14.0368 11.0432C14.0368 11.0432 13.9877 10.9946 13.8896 10.9459Z" fill="#1E2127"/>
</svg>
