<svg width="30" height="30" viewBox="0 0 30 30" fill="none" xmlns="http://www.w3.org/2000/svg">
<rect width="30" height="30" rx="15" fill="white"/>
<path fill-rule="evenodd" clip-rule="evenodd" d="M22.3362 8.8376C23.1393 9.05383 23.7726 9.68706 23.9888 10.4902C24.3904 11.9574 24.3749 15.0155 24.3749 15.0155C24.3749 15.0155 24.3749 18.0581 23.9888 19.5254C23.7726 20.3285 23.1393 20.9617 22.3362 21.178C20.869 21.5641 15 21.5641 15 21.5641C15 21.5641 9.1464 21.5641 7.66371 21.1625C6.86058 20.9463 6.22735 20.313 6.01112 19.5099C5.625 18.0581 5.625 15.0001 5.625 15.0001C5.625 15.0001 5.625 11.9574 6.01112 10.4902C6.22735 9.68706 6.87602 9.03838 7.66371 8.82215C9.13096 8.43604 15 8.43604 15 8.43604C15 8.43604 20.869 8.43604 22.3362 8.8376ZM18.0116 15L13.1311 17.811V12.1891L18.0116 15Z" fill="#1E2127"/>
</svg>
