<svg width="44" height="33" viewBox="0 0 44 33" fill="none" xmlns="http://www.w3.org/2000/svg">
<path d="M0.6568 4.49907C0.507965 4.73167 0.575875 5.04088 0.808479 5.18972L4.59894 7.61508C4.83154 7.76391 5.14075 7.69601 5.28959 7.46341C5.43842 7.2308 5.37051 6.92159 5.13791 6.77276L1.76861 4.61688L3.92449 1.24758C4.07332 1.01498 4.00542 0.705763 3.77281 0.556928C3.54021 0.408096 3.231 0.476004 3.08217 0.708606L0.6568 4.49907ZM43.4199 32.3001C43.4248 31.974 43.424 31.6409 43.4172 31.3016L42.4174 31.3218C42.424 31.6495 42.4247 31.9708 42.42 32.2849L43.4199 32.3001ZM43.3106 29.3044C43.255 28.6556 43.1779 27.9906 43.0776 27.3137L42.0884 27.4603C42.1857 28.1168 42.2604 28.7613 42.3143 29.3898L43.3106 29.3044ZM42.7254 25.3479C42.5904 24.7056 42.434 24.0564 42.2548 23.4035L41.2905 23.6682C41.4642 24.3011 41.6158 24.9307 41.7468 25.5537L42.7254 25.3479ZM41.6656 21.4899C41.452 20.866 41.2165 20.2416 40.958 19.6196L40.0346 20.0035C40.2847 20.6052 40.5126 21.2095 40.7195 21.8138L41.6656 21.4899ZM40.128 17.7965C39.8331 17.2026 39.5155 16.6135 39.1739 16.0318L38.3116 16.5381C38.641 17.0991 38.9476 17.6676 39.2324 18.2412L40.128 17.7965ZM38.0969 14.3412C37.7204 13.7955 37.3205 13.259 36.8962 12.7342L36.1185 13.3629C36.5265 13.8675 36.9113 14.3837 37.2739 14.9091L38.0969 14.3412ZM35.5736 11.223C35.1177 10.7416 34.6382 10.2732 34.1343 9.81996L33.4655 10.5634C33.9493 10.9986 34.4097 11.4483 34.8476 11.9107L35.5736 11.223ZM32.5857 8.53611C32.0609 8.13555 31.5133 7.75057 30.9423 7.38298L30.401 8.22382C30.9495 8.57689 31.4752 8.94653 31.979 9.33105L32.5857 8.53611ZM29.2141 6.36418C28.6352 6.05263 28.0351 5.75796 27.4133 5.48162L27.0072 6.39544C27.6061 6.66159 28.1835 6.94517 28.7401 7.24475L29.2141 6.36418ZM25.5535 4.7347C24.9374 4.51242 24.3021 4.30715 23.6473 4.12003L23.3725 5.08154C24.0058 5.26252 24.6196 5.46085 25.2142 5.67536L25.5535 4.7347ZM21.7055 3.63203C21.0666 3.49259 20.4106 3.36952 19.7373 3.26371L19.582 4.25158C20.2363 4.3544 20.8729 4.47386 21.4923 4.60904L21.7055 3.63203ZM17.7569 3.00815C17.1115 2.94241 16.4513 2.89176 15.7762 2.85687L15.7246 3.85553C16.3835 3.88959 17.027 3.93898 17.6556 4.00301L17.7569 3.00815ZM13.7898 2.80052C13.139 2.79679 12.4751 2.80707 11.798 2.83187L11.8346 3.8312C12.498 3.8069 13.1477 3.79686 13.784 3.8005L13.7898 2.80052ZM9.79967 2.94477C9.1556 2.99363 8.50018 3.05512 7.83326 3.12962L7.94428 4.12344C8.59969 4.05022 9.24331 3.98985 9.87532 3.94191L9.79967 2.94477ZM5.86856 3.38229C5.22082 3.47629 4.56275 3.58213 3.8942 3.70016L4.06805 4.68493C4.72676 4.56864 5.37475 4.46442 6.01218 4.37192L5.86856 3.38229ZM1.95958 4.06998C1.63236 4.13721 1.30274 4.20727 0.970712 4.28019L1.18521 5.25691C1.51289 5.18495 1.8381 5.11583 2.16085 5.04951L1.95958 4.06998Z" fill="white"/>
</svg>
