<svg width="280" height="56" viewBox="0 0 280 56" fill="none" xmlns="http://www.w3.org/2000/svg">
<g clip-path="url(#clip0_923_567)">
<path d="M280 53.4581H207.317V52.5993H279.093V0.858764H0.907294V52.5993H72.1299V53.4581H0V0H280V53.4581Z" fill="white"/>
<path d="M86.3018 47.9964H89.5317C90.1068 47.9948 90.6797 48.0612 91.2374 48.1939C91.7446 48.3119 92.2204 48.5283 92.6347 48.8294C93.0315 49.1408 93.3428 49.5386 93.542 49.9887C93.7901 50.5302 93.9108 51.1162 93.8958 51.7062C93.9106 52.3296 93.7902 52.9492 93.542 53.5268C93.3454 54.0177 93.0354 54.4607 92.6347 54.8236C92.2175 55.171 91.7297 55.434 91.2011 55.5964C90.6146 55.7731 90.002 55.8601 89.3865 55.8541H86.3018V47.9964ZM86.8552 48.3399V55.5449H89.3865C89.9175 55.5503 90.4454 55.4689 90.9471 55.3045C91.4122 55.1558 91.8389 54.9159 92.1992 54.6003C92.5645 54.2653 92.8465 53.8575 93.0248 53.4066C93.2353 52.8742 93.3369 52.3089 93.3242 51.7406C93.3417 51.1943 93.2398 50.6505 93.0248 50.1433C92.8474 49.7336 92.5671 49.371 92.2082 49.087C91.8613 48.8103 91.4514 48.6134 91.0106 48.5116C90.5302 48.3965 90.0364 48.3388 89.5408 48.3399H86.8552Z" fill="white"/>
<path d="M103.432 55.4936C103.143 55.6342 102.839 55.7437 102.524 55.8199C102.024 55.9266 101.513 55.9757 101 55.9659C100.124 56.0134 99.2638 55.7327 98.6048 55.1844C98.3119 54.8944 98.0857 54.5501 97.9405 54.1732C97.7953 53.7963 97.7342 53.395 97.7611 52.9946C97.7529 52.5809 97.8299 52.1696 97.9879 51.7837C98.1416 51.4315 98.3701 51.1129 98.6593 50.8477C98.9454 50.5894 99.2853 50.3905 99.6573 50.2637C100.452 50.0117 101.312 50.0117 102.107 50.2637C102.45 50.3777 102.761 50.5659 103.014 50.8133C103.272 51.0715 103.457 51.3878 103.55 51.7322C103.642 52.1543 103.642 52.5897 103.55 53.0118H98.2147V53.0633C98.1796 53.4099 98.2259 53.7595 98.3502 54.0872C98.4746 54.4149 98.674 54.7125 98.9341 54.9587C99.1942 55.2049 99.5086 55.3936 99.8548 55.5113C100.201 55.629 100.57 55.6728 100.937 55.6396C101.737 55.6656 102.532 55.5033 103.25 55.1673L103.432 55.4936ZM100.837 50.4011C100.527 50.4024 100.22 50.4547 99.9295 50.5557C99.6367 50.649 99.3656 50.7947 99.1311 50.9851C98.8924 51.1832 98.6954 51.4221 98.5504 51.6893C98.3868 51.9883 98.2881 52.3154 98.2601 52.6511H103.087C103.151 52.319 103.129 51.9773 103.023 51.6549C102.933 51.3901 102.774 51.151 102.561 50.9593C102.342 50.7686 102.082 50.625 101.798 50.5385C101.493 50.4469 101.175 50.4006 100.855 50.4011H100.837Z" fill="white"/>
<path d="M110.899 50.4009C110.561 50.3981 110.224 50.4444 109.901 50.5383C109.627 50.6135 109.369 50.7326 109.139 50.8904C108.921 51.0266 108.728 51.1947 108.567 51.3885C108.419 51.5718 108.288 51.7672 108.177 51.9724V55.8798H107.66V50.1776H108.122V51.4829C108.224 51.2958 108.353 51.1224 108.503 50.9677C108.676 50.7896 108.874 50.6363 109.093 50.5125C109.347 50.372 109.618 50.2623 109.901 50.1862C110.239 50.104 110.586 50.0636 110.935 50.066C111.56 50.0288 112.18 50.1922 112.695 50.5297C112.906 50.694 113.073 50.9035 113.182 51.1409C113.291 51.3783 113.339 51.6369 113.321 51.8951V55.8798H112.795V51.9037C112.811 51.6902 112.773 51.4763 112.685 51.2792C112.596 51.0822 112.46 50.9078 112.287 50.7702C111.876 50.514 111.391 50.385 110.899 50.4009Z" fill="white"/>
<path d="M120.561 55.9312C120.341 55.9766 120.116 55.9997 119.89 55.9999C119.415 56.0363 118.943 55.9047 118.565 55.6306C118.427 55.5079 118.318 55.3585 118.246 55.1926C118.174 55.0267 118.141 54.8481 118.148 54.6688V50.521H117.168V50.1775H118.148V48.9495H118.674V50.1517H120.852V50.4952H118.674V54.6173C118.659 54.893 118.756 55.1636 118.946 55.373C119.083 55.4806 119.24 55.5611 119.41 55.6097C119.58 55.6584 119.759 55.6743 119.935 55.6564C120.125 55.6606 120.314 55.6404 120.498 55.5963C120.634 55.5702 120.768 55.5328 120.897 55.4847L121.006 55.8024C120.864 55.864 120.715 55.9074 120.561 55.9312Z" fill="white"/>
<path d="M129.362 55.8797C129.311 55.7373 129.275 55.5907 129.253 55.4418C129.222 55.2341 129.207 55.0246 129.208 54.8149C129.117 54.9621 129.011 55.1002 128.89 55.2271C128.754 55.3777 128.595 55.508 128.418 55.6135C128.209 55.7333 127.983 55.8257 127.747 55.8883C127.451 55.9634 127.146 56.001 126.84 56C126.23 56.0319 125.626 55.8784 125.116 55.562C124.911 55.4198 124.746 55.2316 124.637 55.0143C124.527 54.7969 124.477 54.5572 124.49 54.3168C124.484 54.0456 124.56 53.7784 124.709 53.547C124.859 53.3156 125.076 53.1298 125.334 53.0115C126.106 52.6778 126.953 52.5275 127.801 52.5735H129.199V51.8779C129.22 51.6689 129.187 51.458 129.104 51.2636C129.02 51.0691 128.887 50.8968 128.718 50.7615C128.28 50.49 127.76 50.3632 127.239 50.4008C126.8 50.3932 126.362 50.4512 125.941 50.5726C125.621 50.672 125.316 50.8105 125.034 50.9848L124.825 50.6327C125.583 50.2375 126.438 50.0418 127.302 50.0659C127.939 50.0295 128.573 50.1794 129.117 50.4953C129.333 50.6502 129.505 50.8541 129.616 51.0882C129.727 51.3223 129.774 51.5791 129.752 51.8349V54.8063C129.752 55.021 129.752 55.2185 129.752 55.416C129.765 55.5739 129.798 55.7297 129.852 55.8797H129.362ZM126.903 55.6564C127.212 55.664 127.52 55.6174 127.81 55.519C128.05 55.4444 128.274 55.3311 128.473 55.1841C128.641 55.058 128.791 54.9106 128.917 54.7462C129.022 54.6142 129.113 54.4733 129.19 54.3254V52.8655H127.838C127.102 52.8234 126.366 52.944 125.687 53.2176C125.474 53.3155 125.296 53.4698 125.173 53.6618C125.051 53.8539 124.99 54.0754 124.998 54.2996C124.986 54.4923 125.025 54.6847 125.11 54.8599C125.196 55.0351 125.325 55.1878 125.488 55.3044C125.907 55.5624 126.404 55.6859 126.903 55.6564Z" fill="white"/>
<path d="M134.787 47.6614V55.8797H134.279V47.6614H134.787Z" fill="white"/>
<path d="M147.208 56.0002C146.804 56.0034 146.401 55.9776 146.001 55.9229C145.695 55.8798 145.392 55.8196 145.094 55.7426C144.877 55.6877 144.667 55.6099 144.468 55.5107C144.305 55.4248 144.178 55.3561 144.087 55.296L144.178 54.9096C144.313 54.9971 144.456 55.0746 144.604 55.1414C144.811 55.2384 145.027 55.3189 145.248 55.3819C145.547 55.4639 145.849 55.5298 146.156 55.5794C146.51 55.6334 146.868 55.6592 147.226 55.6567C147.591 55.6575 147.956 55.6258 148.315 55.5622C148.635 55.507 148.942 55.3995 149.222 55.2445C149.461 55.1067 149.663 54.9186 149.812 54.6949C149.971 54.45 150.05 54.1662 150.039 53.879C150.048 53.6187 149.975 53.3617 149.83 53.1405C149.683 52.9321 149.488 52.7587 149.258 52.6338C148.974 52.4826 148.669 52.3699 148.351 52.2989C148.006 52.2045 147.625 52.11 147.217 52.0241C146.809 51.9382 146.491 51.8609 146.146 51.7665C145.829 51.6804 145.524 51.5563 145.239 51.3972C144.981 51.2542 144.761 51.0575 144.595 50.8218C144.421 50.5663 144.332 50.267 144.341 49.9631C144.332 49.6617 144.407 49.3634 144.558 49.0981C144.709 48.8328 144.932 48.6098 145.203 48.4517C145.947 48.0603 146.794 47.8786 147.644 47.9278C148.494 47.891 149.342 48.0409 150.12 48.3658L150.066 48.7436C149.744 48.5906 149.402 48.478 149.05 48.4087C148.589 48.3063 148.117 48.2573 147.644 48.2627C146.933 48.2266 146.224 48.3719 145.593 48.6835C145.365 48.8151 145.178 49.0027 145.054 49.2265C144.929 49.4503 144.871 49.7019 144.885 49.9545C144.877 50.1962 144.943 50.4351 145.076 50.6415C145.213 50.834 145.397 50.9929 145.611 51.1052C145.858 51.2445 146.123 51.3513 146.401 51.423C146.716 51.5145 147.037 51.589 147.362 51.6463L148.442 51.8867C148.807 51.9665 149.16 52.0876 149.494 52.2474C149.806 52.3984 150.078 52.6124 150.293 52.8743C150.511 53.1672 150.62 53.5209 150.601 53.879C150.614 54.229 150.52 54.575 150.329 54.8752C150.141 55.148 149.889 55.377 149.594 55.545C149.261 55.7201 148.899 55.8419 148.524 55.9057C148.09 55.9804 147.649 56.012 147.208 56.0002Z" fill="white"/>
<path d="M157.325 55.9312C157.104 55.9766 156.879 55.9997 156.654 55.9999C156.179 56.0363 155.707 55.9047 155.329 55.6306C155.191 55.5079 155.082 55.3585 155.01 55.1926C154.938 55.0267 154.904 54.8481 154.912 54.6688V50.521H153.932V50.1775H154.912V48.9495H155.438V50.1517H157.615V50.4952H155.438V54.6173C155.422 54.893 155.52 55.1636 155.71 55.373C155.845 55.4819 156.003 55.5632 156.173 55.6119C156.343 55.6607 156.522 55.6758 156.699 55.6564C156.888 55.6601 157.078 55.6399 157.261 55.5963C157.398 55.5702 157.531 55.5328 157.661 55.4847L157.77 55.8024C157.628 55.8627 157.478 55.906 157.325 55.9312Z" fill="white"/>
<path d="M166.235 55.1411C166.08 55.318 165.892 55.4665 165.681 55.5791C165.444 55.7136 165.187 55.8148 164.919 55.8797C164.603 55.9611 164.276 56.0015 163.948 55.9999C163.336 56.0355 162.731 55.8618 162.242 55.5104C162.032 55.3347 161.868 55.1154 161.763 54.8695C161.657 54.6237 161.613 54.358 161.635 54.0935V50.1775H162.161V54.102C162.153 54.3469 162.202 54.5904 162.306 54.8148C162.392 55.0035 162.526 55.1688 162.696 55.2957C162.877 55.4261 163.084 55.5197 163.304 55.5705C163.556 55.6322 163.815 55.6611 164.075 55.6564C164.382 55.659 164.688 55.6185 164.983 55.5362C165.233 55.4642 165.469 55.354 165.681 55.2098C165.883 55.0842 166.058 54.9241 166.198 54.7375C166.346 54.551 166.477 54.3527 166.588 54.145V50.1775H167.124V55.8797H166.652L166.597 54.6173C166.501 54.8062 166.379 54.9824 166.235 55.1411Z" fill="white"/>
<path d="M177.213 54.3941C177.003 54.8799 176.638 55.2914 176.169 55.5706C175.646 55.8668 175.045 56.0158 174.436 56C174.013 56.0022 173.593 55.9354 173.193 55.8025C172.819 55.6744 172.473 55.479 172.177 55.2271C171.881 54.9694 171.648 54.6526 171.497 54.2996C171.328 53.8953 171.244 53.4634 171.252 53.0287C171.243 52.5938 171.326 52.1616 171.497 51.7577C171.653 51.407 171.884 51.0911 172.177 50.8302C172.471 50.5754 172.817 50.3796 173.193 50.2548C173.593 50.1248 174.014 50.0609 174.436 50.0659C175.031 50.0498 175.619 50.1831 176.142 50.4524C176.613 50.7121 176.983 51.11 177.194 51.5859V47.6614H177.721V55.8797H177.267L177.213 54.3941ZM174.491 55.6565C174.861 55.6581 175.229 55.6 175.579 55.4847C175.901 55.3742 176.194 55.2016 176.441 54.978C176.694 54.7353 176.887 54.4418 177.004 54.1193C177.282 53.3895 177.282 52.5905 177.004 51.8607C176.887 51.5382 176.694 51.2447 176.441 51.002C176.194 50.7811 175.9 50.6115 175.579 50.5039C174.877 50.2749 174.114 50.2749 173.411 50.5039C173.089 50.6093 172.795 50.7792 172.549 51.002C172.293 51.2442 172.098 51.5377 171.977 51.8607C171.708 52.5921 171.708 53.388 171.977 54.1193C172.098 54.4424 172.293 54.7358 172.549 54.978C172.795 55.2035 173.089 55.3763 173.411 55.4847C173.758 55.5994 174.123 55.6574 174.491 55.6565Z" fill="white"/>
<path d="M182.584 48.9497C182.526 48.9533 182.469 48.946 182.414 48.9283C182.36 48.9106 182.309 48.8829 182.266 48.8466C182.228 48.8157 182.197 48.7776 182.175 48.7348C182.153 48.6919 182.141 48.6452 182.139 48.5976C182.141 48.5513 182.153 48.5059 182.175 48.4644C182.197 48.423 182.228 48.3864 182.266 48.3572C182.309 48.3194 182.358 48.2901 182.413 48.2709C182.468 48.2517 182.526 48.2431 182.584 48.2455C182.698 48.2429 182.809 48.283 182.892 48.3572C182.963 48.4197 183.005 48.506 183.01 48.5976C183.006 48.6918 182.964 48.7809 182.892 48.8466C182.851 48.8822 182.802 48.9096 182.749 48.9273C182.696 48.945 182.64 48.9526 182.584 48.9497ZM182.838 50.2207V55.9229H182.312V50.1777L182.838 50.2207Z" fill="white"/>
<path d="M190.323 56C189.885 56.0007 189.45 55.934 189.035 55.8025C188.639 55.6792 188.275 55.4805 187.964 55.2185C187.653 54.9599 187.406 54.6405 187.238 54.2824C187.051 53.8885 186.958 53.4604 186.966 53.0287C186.957 52.5967 187.05 52.1683 187.238 51.7749C187.408 51.4181 187.655 51.0992 187.964 50.8388C188.275 50.5795 188.64 50.3836 189.035 50.2634C189.45 50.1319 189.885 50.0652 190.323 50.0659C190.77 50.0651 191.214 50.1318 191.638 50.2634C192.031 50.3877 192.395 50.5831 192.709 50.8388C193.029 51.1165 193.282 51.4554 193.453 51.833C193.623 52.2106 193.707 52.6181 193.698 53.0287C193.706 53.4604 193.613 53.8885 193.426 54.2824C193.258 54.6383 193.014 54.9571 192.709 55.2185C192.396 55.4769 192.032 55.6752 191.638 55.8025C191.214 55.9341 190.77 56.0008 190.323 56ZM190.323 55.6565C190.693 55.6596 191.061 55.6044 191.412 55.4933C191.745 55.3871 192.053 55.2209 192.319 55.0038C192.583 54.7763 192.794 54.4982 192.936 54.188C193.091 53.8193 193.168 53.4254 193.163 53.0287C193.17 52.6318 193.093 52.2376 192.936 51.8693C192.791 51.5603 192.581 51.2827 192.319 51.0535C192.055 50.8359 191.746 50.6722 191.412 50.5726C191.061 50.4586 190.693 50.4005 190.323 50.4008C189.958 50.4007 189.596 50.4587 189.252 50.5726C188.917 50.6693 188.607 50.8334 188.345 51.0535C188.077 51.28 187.864 51.5582 187.719 51.8693C187.555 52.2357 187.474 52.6308 187.483 53.0287C187.476 53.4264 187.557 53.8211 187.719 54.188C187.861 54.5004 188.075 54.779 188.345 55.0038C188.609 55.2237 188.918 55.3902 189.252 55.4933C189.597 55.6044 189.959 55.6596 190.323 55.6565Z" fill="white"/>
<path d="M220.191 34.8142C219.947 34.8106 219.705 34.8536 219.479 34.9406C219.253 35.0277 219.047 35.157 218.875 35.3208C218.616 35.5682 218.44 35.8824 218.369 36.2241C218.298 36.5657 218.335 36.9197 218.476 37.2415C218.616 37.5634 218.854 37.8388 219.159 38.0334C219.464 38.2279 219.823 38.3329 220.191 38.3351C220.684 38.3351 221.157 38.1496 221.506 37.8195C221.855 37.4893 222.051 37.0415 222.051 36.5746C222.051 36.1077 221.855 35.66 221.506 35.3298C221.157 34.9997 220.684 34.8142 220.191 34.8142Z" fill="white"/>
<path d="M6.35107 17.1753H7.15857C7.69782 17.1784 8.22781 17.3083 8.70097 17.5531C9.00307 17.7058 9.24495 17.9467 9.39051 18.2401C9.57879 18.9439 9.65222 19.6708 9.60826 20.3956V34.3076C9.70176 35.1404 9.5609 35.9818 9.19998 36.7465C8.9496 37.0207 8.63389 37.2346 8.27893 37.3705C7.92396 37.5063 7.53993 37.5603 7.15857 37.528H6.35107V38.1119H16.05V37.528H15.2244C14.6906 37.5271 14.1659 37.397 13.7002 37.1501C13.3913 37.0005 13.1427 36.7592 12.9925 36.4631C12.8036 35.7594 12.7302 35.0324 12.7747 34.3076V20.387C12.6792 19.5525 12.8267 18.7091 13.2011 17.9482C13.4492 17.6763 13.7621 17.4644 14.114 17.33C14.4659 17.1956 14.8465 17.1425 15.2244 17.1753H16.05V16.5913H6.35107V17.1753Z" fill="white"/>
<path d="M32.1542 33.4231L23.8978 16.5827H17.4561V17.1752C18.1464 17.1338 18.8378 17.2395 19.4793 17.4844C19.867 17.6351 20.1876 17.9082 20.3866 18.2573C20.6553 18.9131 20.7699 19.6164 20.7223 20.3183V34.3505C20.8041 35.1399 20.6795 35.9362 20.3594 36.6692C20.122 36.9645 19.8094 37.1981 19.4509 37.3483C19.0924 37.4984 18.6995 37.5602 18.3089 37.5279H17.5014V38.1119H25.404V37.5279H24.5965C24.2379 37.5589 23.8765 37.515 23.5379 37.3992C23.1993 37.2835 22.8916 37.0988 22.6367 36.8581C22.3282 36.5318 22.1831 35.7074 22.1831 34.3849V19.992L30.9747 38.1033H31.5282L40.2926 19.992V34.3505C40.3744 35.1399 40.2498 35.9362 39.9297 36.6692C39.6941 36.9663 39.3818 37.2013 39.0228 37.3517C38.6638 37.502 38.2701 37.5627 37.8792 37.5279H37.0718V38.1119H46.7072V37.5279H45.9179C45.5595 37.5572 45.1986 37.5124 44.8603 37.3967C44.5219 37.2811 44.2141 37.0973 43.9581 36.8581C43.5365 36.0866 43.372 35.2123 43.4863 34.3505V20.3097C43.4081 19.5197 43.5359 18.7235 43.8583 17.9911C44.0966 17.6944 44.4106 17.46 44.7709 17.3098C45.1311 17.1596 45.5258 17.0985 45.9179 17.1323H46.7072V16.5483H40.2654L32.1542 33.4231Z" fill="white"/>
<path d="M84.4783 35.0804C83.964 35.6566 83.306 36.1023 82.5639 36.3771C81.3801 36.6688 80.1567 36.7904 78.9347 36.7378H77.2199C76.3455 36.7844 75.4684 36.7325 74.6069 36.5832C74.344 36.4947 74.1224 36.3214 73.9809 36.0937C73.76 35.5139 73.6703 34.8965 73.7178 34.2817V20.7562C73.6529 19.9377 73.742 19.1149 73.9809 18.3259C74.2056 17.9442 74.5561 17.6426 74.9789 17.4671C75.7941 17.1989 76.6585 17.0908 77.5193 17.1494V16.5654H67.2216V17.1752H68.0472C68.4062 17.15 68.7667 17.1991 69.1036 17.3193C69.4405 17.4394 69.7457 17.6276 69.9979 17.8707C70.4105 18.6512 70.5744 19.5284 70.4697 20.3955V34.2817C70.5471 35.0814 70.4259 35.8872 70.1158 36.6347C69.8785 36.9345 69.5633 37.1712 69.2008 37.3216C68.8384 37.4721 68.441 37.5313 68.0472 37.4935H67.1943V38.0775H84.8321L86.3473 33.7836L85.7939 33.672C85.0589 34.4621 85.059 34.4621 84.4783 35.0804Z" fill="white"/>
<path d="M128.727 17.1752H129.517C129.875 17.1443 130.236 17.1882 130.575 17.304C130.914 17.4197 131.221 17.6044 131.476 17.8451C131.794 18.1714 131.948 18.9958 131.948 20.3183V32.7274L118.048 16.5827H111.87V17.1752C112.367 17.1589 112.865 17.208 113.349 17.3212C113.882 17.4596 114.388 17.6801 114.846 17.9739C115.4 18.4034 115.905 18.887 116.352 19.4166V34.3505C116.432 35.1406 116.304 35.9373 115.98 36.6692C115.741 36.9658 115.427 37.2002 115.067 37.3504C114.707 37.5006 114.312 37.5617 113.92 37.5279H113.131V38.1119H121.042V37.5279H120.244C119.884 37.5561 119.522 37.5109 119.183 37.3953C118.843 37.2798 118.534 37.0966 118.275 36.8581C117.874 36.0928 117.716 35.2335 117.821 34.3849V21.117L132.819 38.4554H133.427V20.3097C133.347 19.5204 133.472 18.7245 133.79 17.9911C134.027 17.6958 134.34 17.4621 134.698 17.312C135.057 17.1618 135.45 17.1 135.84 17.1323H136.648V16.5483H128.727V17.1752Z" fill="white"/>
<path d="M109.782 36.7981C109.014 35.9832 108.425 35.0314 108.05 33.9985L100.129 16.0847H99.5482L93.4512 29.6188H90.0851L88.5972 29.6789L88.3885 30.2973C89.0829 30.2929 89.7768 30.3302 90.4662 30.4089C90.9143 30.515 91.3304 30.7178 91.682 31.0014L91.7727 31.0616C92.0181 31.2734 92.2457 31.5031 92.4532 31.7486L91.5459 33.801C91.1195 34.947 90.4702 36.0072 89.6315 36.9269C89.093 37.2776 88.4679 37.4906 87.8169 37.5452V38.1292H94.9754V37.5452C94.2301 37.5595 93.4933 37.394 92.8342 37.0643C92.6882 36.9665 92.568 36.8382 92.483 36.6892C92.3981 36.5403 92.3506 36.3747 92.3443 36.2056C92.4121 35.5537 92.6059 34.9191 92.9159 34.3334L94.3585 31.0014H103.25L104.584 33.9985C104.942 34.6914 105.169 35.4384 105.255 36.2056C105.249 36.3739 105.203 36.5387 105.119 36.6875C105.036 36.8363 104.918 36.9652 104.774 37.0643C104.225 37.3691 103.595 37.5181 102.96 37.4937V38.0777H111.933V37.4937C111.154 37.4932 110.398 37.2486 109.782 36.7981ZM94.9936 29.6188L98.904 21.0312L102.715 29.6188H94.9936Z" fill="white"/>
<path d="M138.435 16.5828L138.172 21.6323H138.807C138.836 20.8123 139.089 20.0135 139.542 19.3136C139.897 18.7857 140.422 18.3794 141.039 18.1543C141.775 17.9694 142.537 17.894 143.298 17.931H146.02V34.3506C146.1 35.1407 145.973 35.9374 145.648 36.6693C145.413 36.9651 145.102 37.1993 144.745 37.3495C144.388 37.4998 143.996 37.5613 143.607 37.528H142.799V38.112H152.425V37.528H151.636C151.278 37.5555 150.918 37.5099 150.579 37.3944C150.241 37.2788 149.933 37.096 149.676 36.8582C149.368 36.5319 149.223 35.7074 149.223 34.3849V17.931H152.425C153.208 17.8993 153.987 18.0497 154.694 18.369C155.31 18.677 155.808 19.1607 156.118 19.7516C156.394 20.3569 156.562 21.001 156.617 21.6581H157.261L157.007 16.6085L138.435 16.5828Z" fill="white"/>
<path d="M170.054 16.0846C167.215 16.0409 164.471 17.0486 162.405 18.8928C161.193 19.9545 160.236 21.2513 159.6 22.6947C158.964 24.1381 158.665 25.6943 158.722 27.2571C158.657 28.7519 158.906 30.244 159.455 31.6473C160.003 33.0505 160.839 34.337 161.916 35.4326C162.938 36.4437 164.168 37.2469 165.53 37.7933C166.892 38.3397 168.357 38.6178 169.836 38.6105C171.315 38.6033 172.777 38.3109 174.132 37.7512C175.488 37.1916 176.709 36.3763 177.721 35.3553C178.807 34.2682 179.656 32.9886 180.218 31.5899C180.78 30.1913 181.044 28.7013 180.996 27.2056C181.039 25.7437 180.774 24.2883 180.216 22.9245C179.659 21.5606 178.82 20.3155 177.748 19.262C176.771 18.2528 175.582 17.4486 174.257 16.9013C172.932 16.3541 171.5 16.0758 170.054 16.0846ZM175.044 35.1062C174.415 35.8604 173.61 36.4667 172.693 36.8779C171.775 37.289 170.77 37.4939 169.755 37.4764C168.825 37.502 167.903 37.3193 167.063 36.9432C166.222 36.5671 165.488 36.0083 164.919 35.3123C163.331 33.4145 162.542 30.7179 162.542 27.197C162.542 23.6761 163.304 21.1857 164.837 19.3909C165.421 18.6969 166.168 18.1415 167.018 17.7688C167.869 17.3961 168.8 17.2164 169.736 17.2439C170.706 17.2015 171.673 17.3752 172.558 17.7511C173.444 18.127 174.224 18.6945 174.835 19.408C176.366 21.2172 177.131 23.9623 177.131 27.6436C177.131 31.0443 176.432 33.4918 175.044 35.1062Z" fill="white"/>
<path d="M182.856 16.5828V17.1753H183.654C184.194 17.174 184.725 17.3041 185.197 17.5532C185.503 17.7005 185.747 17.9431 185.886 18.2402C186.075 18.944 186.148 19.6709 186.104 20.3957V34.3077C186.199 35.1397 186.061 35.9807 185.705 36.7465C185.453 37.0214 185.136 37.2357 184.779 37.3716C184.423 37.5074 184.037 37.5611 183.654 37.528H182.856V38.112H192.618V37.528H191.793C191.253 37.5259 190.723 37.396 190.25 37.1502C189.94 37.0032 189.69 36.7611 189.543 36.4632C189.354 35.7595 189.28 35.0325 189.325 34.3077V27.532H193.471C194.059 27.5024 194.646 27.6023 195.186 27.824C195.574 28.0162 195.89 28.3158 196.093 28.6827C196.352 29.2662 196.47 29.897 196.438 30.5291H197.055V23.2639H196.438C196.415 24.1236 196.097 24.9528 195.531 25.6255C194.94 26.0672 194.194 26.2791 193.444 26.2181H189.298V17.7593H194.315C195.201 17.7198 196.088 17.8244 196.937 18.0684C197.502 18.2826 197.995 18.6389 198.362 19.0989C198.845 19.7702 199.19 20.522 199.378 21.3146H199.968L199.75 16.5828H182.856Z" fill="white"/>
<path d="M213.45 17.7593C214.337 17.7205 215.223 17.825 216.073 18.0684C216.636 18.2852 217.128 18.6411 217.497 19.0989C217.98 19.7702 218.325 20.522 218.513 21.3146H219.103L218.876 16.5828H201.955V17.1753H202.763C203.302 17.1752 203.833 17.3052 204.305 17.5532C204.609 17.7032 204.852 17.945 204.995 18.2402C205.183 18.944 205.256 19.6709 205.212 20.3957V34.3077C205.303 35.1396 205.165 35.9795 204.813 36.7465C204.561 37.0209 204.243 37.2347 203.887 37.3706C203.531 37.5064 203.145 37.5604 202.763 37.528H201.955V38.112H211.718V37.528H210.892C210.353 37.5249 209.823 37.395 209.35 37.1502C209.041 37.0027 208.795 36.7605 208.651 36.4632C208.462 35.7595 208.389 35.0325 208.433 34.3077V27.532H212.57C213.161 27.5035 213.751 27.6034 214.294 27.824C214.68 28.0188 214.996 28.3177 215.202 28.6827C215.456 29.2674 215.574 29.8973 215.546 30.5291H216.163V23.2639H215.546C215.52 24.1229 215.201 24.951 214.639 25.6255C214.045 26.067 213.296 26.2787 212.543 26.2181H208.406V17.7593H213.45Z" fill="white"/>
<path d="M265.637 16.5826V17.1752H266.544C266.902 17.1501 267.261 17.1993 267.597 17.3195C267.932 17.4396 268.236 17.6278 268.486 17.8707C268.804 18.2143 268.958 19.0558 268.958 20.3955V29.1034C269.052 30.7498 268.834 32.399 268.314 33.9726C267.798 35.0029 266.923 35.8338 265.837 36.3256C264.609 36.9533 263.231 37.2726 261.836 37.2531C260.819 37.2834 259.811 37.08 258.896 36.6605C258.163 36.3222 257.537 35.8068 257.081 35.1663C256.584 34.4021 256.274 33.5424 256.174 32.6501C256.021 31.6977 255.94 30.7364 255.929 29.7732V20.3869C255.846 19.5731 255.99 18.753 256.346 18.0082C256.576 17.7138 256.882 17.4802 257.235 17.3299C257.588 17.1795 257.975 17.1173 258.361 17.1494H259.268V16.5654H249.442V17.1752H250.295C250.635 17.1445 250.978 17.1838 251.301 17.2905C251.623 17.3973 251.918 17.5688 252.164 17.7935C252.645 18.5706 252.849 19.4742 252.744 20.3698V28.7856C252.65 30.5699 252.831 32.3576 253.28 34.0928C253.791 35.4347 254.746 36.585 256.002 37.3733C257.718 38.3088 259.686 38.7505 261.663 38.6443C263.572 38.7461 265.47 38.3001 267.107 37.3647C268.327 36.6468 269.264 35.5697 269.774 34.2989C270.291 32.6711 270.521 30.9737 270.455 29.2751V20.5157C270.376 19.7384 270.497 18.9546 270.809 18.2314C271.019 17.9011 271.317 17.6293 271.674 17.4438C272.031 17.2582 272.434 17.1655 272.841 17.1752H273.694V16.5912L265.637 16.5826Z" fill="white"/>
<path d="M66.2327 18.2057C64.3002 16.4882 59.2556 16.6514 59.2556 16.6514H49.2754V17.45H50.1827C50.7039 17.4503 51.2163 17.5775 51.6706 17.8193C51.9513 17.9541 52.1753 18.1751 52.3058 18.4462C52.3695 18.6151 52.4091 18.7912 52.4237 18.97C52.5032 19.5134 52.5396 20.0617 52.5326 20.6103V34.4707C52.6222 35.2814 52.491 36.1004 52.1515 36.8495C51.911 37.1096 51.6089 37.3121 51.2698 37.4404C50.9308 37.5688 50.5645 37.6194 50.2008 37.588H49.2935V38.3867H59.2738V37.588H58.3665C57.8515 37.5844 57.3458 37.4574 56.8967 37.2188C56.6109 37.0849 56.3809 36.8641 56.2434 36.5919C56.0636 35.8985 55.9933 35.1836 56.0347 34.4707V20.6103C55.9835 19.891 56.0571 19.1687 56.2525 18.472C57.1975 18.2013 58.1777 18.0568 59.1649 18.0426C60.6376 17.9379 62.0981 18.3609 63.2568 19.2277C63.7272 19.6468 64.0945 20.1587 64.3328 20.727C64.5712 21.2954 64.6746 21.9064 64.6359 22.5167C64.6722 23.1415 64.5771 23.7669 64.3559 24.3566C64.1347 24.9463 63.792 25.4885 63.3475 25.9518C62.8936 26.3778 62.3512 26.71 61.7546 26.9273C61.158 27.1446 60.5202 27.2423 59.8817 27.2142C59.0904 27.195 58.3044 27.0855 57.5408 26.8878L57.8584 28.0128C58.6408 28.1888 59.4406 28.2867 60.2446 28.3048C61.614 28.3085 62.9632 27.9929 64.1732 27.3859C65.3319 26.8262 66.3121 25.9843 67.013 24.947C67.6594 24.0094 68.0059 22.915 68.011 21.7954C68.014 21.1097 67.856 20.432 67.5485 19.8112C67.2409 19.1904 66.7915 18.6421 66.2327 18.2057Z" fill="white"/>
<path d="M243.263 33.8009L238.944 28.1159C239.694 27.9691 240.418 27.7234 241.095 27.3859C242.255 26.8286 243.236 25.9862 243.935 24.947C244.593 24.0129 244.952 22.9184 244.969 21.7954C244.976 21.1134 244.824 20.4384 244.524 19.8181C244.225 19.1978 243.785 18.6474 243.236 18.2057C241.294 16.4882 236.25 16.6514 236.25 16.6514H226.27V17.45H227.177C227.698 17.4492 228.211 17.5764 228.665 17.8193C228.945 17.9541 229.169 18.1751 229.3 18.4462C229.363 18.6157 229.406 18.7915 229.427 18.97C229.505 19.5137 229.544 20.0617 229.545 20.6103V34.4707C229.634 35.2814 229.503 36.1004 229.164 36.8495C228.921 37.1097 228.618 37.3122 228.277 37.4405C227.937 37.5688 227.569 37.6194 227.204 37.588H226.297V38.3867H236.277V37.588H235.37C234.855 37.5856 234.349 37.4585 233.9 37.2188C233.612 37.0871 233.382 36.8657 233.247 36.5919C233.058 35.8998 232.984 35.1842 233.029 34.4707V20.6103C232.993 19.9034 233.079 19.1958 233.283 18.5149C234.225 18.2437 235.202 18.0992 236.186 18.0855C237.662 17.9812 239.125 18.404 240.287 19.2706C240.756 19.6912 241.122 20.2033 241.36 20.7713C241.598 21.3393 241.703 21.9495 241.666 22.5597C241.701 23.185 241.604 23.8106 241.381 24.4003C241.159 24.99 240.815 25.5319 240.369 25.9947C239.901 26.4266 239.34 26.7588 238.725 26.9691C238.11 27.1794 237.455 27.263 236.803 27.2142C236.012 27.195 235.226 27.0855 234.462 26.8878C234.587 27.3057 234.807 27.6926 235.107 28.0214L242.955 38.3953H249.442V37.7855C248.302 37.705 247.198 37.3789 246.212 36.8323C245.05 35.9917 244.053 34.9658 243.263 33.8009Z" fill="white"/>
</g>
<defs>
<clipPath id="clip0_923_567">
<rect width="280" height="56" fill="white"/>
</clipPath>
</defs>
</svg>
