<svg width="160" height="46" viewBox="0 0 160 46" fill="none" xmlns="http://www.w3.org/2000/svg">
<rect width="160" height="46" rx="2" fill="white"/>
<path fill-rule="evenodd" clip-rule="evenodd" d="M24.1639 30.6398C25.2423 31.1116 25.6467 30.1231 25.6467 30.1231L28.5 15.7894C28.4775 14.8233 27.1745 15.4074 27.1745 15.4074L11.2007 21.6756C11.2007 21.6756 10.4368 21.9452 10.5042 22.417C10.5716 22.8888 11.1782 23.1135 11.1782 23.1135L15.1997 24.4615C15.1997 24.4615 16.4129 28.4381 16.6601 29.202C16.8847 29.9434 17.0869 29.9658 17.0869 29.9658C17.3116 30.0557 17.5138 29.8984 17.5138 29.8984L20.1199 27.5394L24.1639 30.6398ZM24.8606 18.3281C24.8606 18.3281 25.4222 17.9911 25.3998 18.3281C25.3998 18.3281 25.4896 18.373 25.1976 18.6876C24.928 18.9572 18.5699 24.6637 17.7162 25.4276C17.6488 25.4725 17.6038 25.5399 17.6038 25.6298L17.3567 27.7416C17.3118 27.9663 17.0197 27.9888 16.9523 27.7866L15.8964 24.3267C15.8514 24.1919 15.8964 24.0346 16.0312 23.9448L24.8606 18.3281Z" fill="#1E2127"/>
<path d="M47.9531 21.2891C47.9531 22.0182 47.8359 22.6901 47.6016 23.3047C47.3724 23.9193 47.0495 24.3984 46.6328 24.7422C46.2161 25.0859 45.7344 25.2578 45.1875 25.2578C44.7448 25.2578 44.3724 25.1302 44.0703 24.875C43.7682 24.6146 43.5807 24.2786 43.5078 23.8672H43.4297C43.2266 24.2995 42.9297 24.6406 42.5391 24.8906C42.1484 25.1354 41.6927 25.2578 41.1719 25.2578C40.3802 25.2578 39.7578 24.9948 39.3047 24.4688C38.8516 23.9375 38.625 23.2083 38.625 22.2812C38.625 21.5885 38.763 20.9688 39.0391 20.4219C39.3203 19.8698 39.7214 19.4427 40.2422 19.1406C40.763 18.8333 41.3568 18.6797 42.0234 18.6797C42.3828 18.6797 42.7917 18.7135 43.25 18.7812C43.7135 18.8438 44.1198 18.9375 44.4688 19.0625L44.2891 22.7188V22.8906C44.2891 23.8073 44.6198 24.2656 45.2812 24.2656C45.7448 24.2656 46.1198 23.9922 46.4062 23.4453C46.6927 22.8984 46.8359 22.1745 46.8359 21.2734C46.8359 20.3411 46.6432 19.5234 46.2578 18.8203C45.8776 18.1172 45.3333 17.5781 44.625 17.2031C43.9219 16.8229 43.1172 16.6328 42.2109 16.6328C41.0651 16.6328 40.0651 16.8724 39.2109 17.3516C38.362 17.8255 37.7109 18.5052 37.2578 19.3906C36.8047 20.2708 36.5781 21.2969 36.5781 22.4688C36.5781 24.0417 36.9922 25.2526 37.8203 26.1016C38.6484 26.9453 39.8516 27.3672 41.4297 27.3672C42.5339 27.3672 43.6797 27.138 44.8672 26.6797V27.7656C43.8255 28.2031 42.6797 28.4219 41.4297 28.4219C39.5339 28.4219 38.0599 27.9036 37.0078 26.8672C35.9557 25.8255 35.4297 24.3776 35.4297 22.5234C35.4297 21.1745 35.7083 19.9714 36.2656 18.9141C36.8281 17.8516 37.625 17.0312 38.6562 16.4531C39.6875 15.8698 40.8724 15.5781 42.2109 15.5781C43.3307 15.5781 44.3281 15.8151 45.2031 16.2891C46.0833 16.763 46.7604 17.4349 47.2344 18.3047C47.7135 19.1745 47.9531 20.1693 47.9531 21.2891ZM39.875 22.3125C39.875 23.6146 40.3776 24.2656 41.3828 24.2656C42.4505 24.2656 43.0312 23.4609 43.125 21.8516L43.2188 19.8516C42.8385 19.7422 42.4453 19.6875 42.0391 19.6875C41.3672 19.6875 40.8385 19.9193 40.4531 20.3828C40.0677 20.8464 39.875 21.4896 39.875 22.3125ZM49.7066 26.648C49.7066 26.648 49.7173 26.6373 49.7386 26.616L49.8026 26.584C49.824 26.552 49.824 26.52 49.8026 26.488C49.7813 26.4453 49.7973 26.4133 49.8506 26.392C49.904 26.36 49.984 26.3387 50.0906 26.328C50.1973 26.3067 50.3093 26.2907 50.4266 26.28C50.544 26.2587 50.6613 26.2427 50.7786 26.232C50.896 26.2213 50.9866 26.2107 51.0506 26.2C51.264 26.168 51.4933 26.1467 51.7386 26.136C51.984 26.1253 52.208 26.1147 52.4106 26.104V26.088V26.072C52.4106 26.0507 52.4053 26.0027 52.3946 25.928C52.384 25.8427 52.3786 25.784 52.3786 25.752C52.3786 25.7093 52.3786 25.6293 52.3786 25.512C52.3786 25.384 52.3733 25.2507 52.3626 25.112C52.3626 24.9733 52.3626 24.8453 52.3626 24.728C52.3626 24.6107 52.3626 24.5253 52.3626 24.472C52.3626 23.992 52.368 23.5173 52.3786 23.048C52.4 22.5787 52.448 22.1093 52.5226 21.64C52.5546 21.6187 52.5706 21.6027 52.5706 21.592C52.5706 21.5707 52.5706 21.5493 52.5706 21.528C52.6026 21.304 52.6346 21.08 52.6666 20.856C52.7093 20.632 52.7306 20.4027 52.7306 20.168C52.7306 20.1467 52.7253 20.088 52.7146 19.992C52.7146 19.896 52.7146 19.832 52.7146 19.8C52.6826 19.768 52.624 19.752 52.5386 19.752C52.4853 19.752 52.4426 19.7573 52.4106 19.768C52.3786 19.7787 52.352 19.816 52.3306 19.88C52.3093 19.88 52.2506 19.8853 52.1546 19.896C52.0586 19.896 51.9946 19.896 51.9626 19.896C51.8453 19.896 51.7333 19.896 51.6266 19.896C51.5306 19.8853 51.4293 19.848 51.3226 19.784H51.5466C51.5253 19.7733 51.4613 19.7627 51.3546 19.752C51.2586 19.7413 51.1946 19.736 51.1626 19.736C51.1413 19.7147 51.104 19.7147 51.0506 19.736L51.0986 19.688L51.0506 19.656H50.2026C50.1493 19.656 50.1173 19.6667 50.1066 19.688C50.096 19.6987 50.0853 19.7147 50.0746 19.736C50.0746 19.7467 50.0693 19.7627 50.0586 19.784C50.048 19.7947 50.0213 19.8 49.9786 19.8C49.9253 19.8 49.904 19.768 49.9146 19.704C49.9253 19.64 49.904 19.5973 49.8506 19.576H49.8026C49.8026 19.5653 49.7973 19.5493 49.7866 19.528C49.776 19.5067 49.7653 19.496 49.7546 19.496V19.48C49.7546 19.416 49.776 19.3627 49.8186 19.32C49.8613 19.2667 49.8826 19.208 49.8826 19.144V19.096C49.8613 19.096 49.824 19.096 49.7706 19.096C49.728 19.0853 49.7013 19.0747 49.6906 19.064L49.6426 19.032C49.664 19.0107 49.6906 18.984 49.7226 18.952C49.7653 18.92 49.792 18.8933 49.8026 18.872L49.8186 18.84C49.8186 18.7973 49.7973 18.7547 49.7546 18.712H49.9466C50.0533 18.712 50.1493 18.7333 50.2346 18.776C50.32 18.808 50.416 18.8293 50.5226 18.84C51.0026 18.872 51.4826 18.8987 51.9626 18.92C52.4533 18.9307 52.944 18.952 53.4346 18.984C53.456 18.984 53.52 18.9893 53.6266 19C53.7333 19 53.8453 19.0053 53.9626 19.016C54.0906 19.0267 54.208 19.0373 54.3146 19.048C54.4213 19.0587 54.4853 19.064 54.5066 19.064C54.72 19.0853 54.9333 19.112 55.1466 19.144C55.3706 19.1653 55.5893 19.1653 55.8026 19.144C55.824 19.1973 55.8666 19.224 55.9306 19.224C56.0053 19.2133 56.064 19.224 56.1066 19.256C56.128 19.2773 56.1813 19.3253 56.2666 19.4C56.352 19.4747 56.416 19.5333 56.4586 19.576C56.4693 19.5867 56.4853 19.6027 56.5066 19.624C56.528 19.6347 56.5386 19.6453 56.5386 19.656C56.5173 19.6667 56.5013 19.688 56.4906 19.72C56.48 19.752 56.4693 19.7787 56.4586 19.8C56.4053 19.9173 56.3093 19.9867 56.1706 20.008C56.0426 20.0293 55.9306 20.04 55.8346 20.04H55.8026C55.7813 20.04 55.7226 20.0347 55.6266 20.024C55.5306 20.0133 55.472 20.0027 55.4506 19.992C55.44 19.992 55.4346 19.9973 55.4346 20.008C55.4346 20.008 55.4293 20.008 55.4186 20.008H55.3866V20.056H55.5306C55.4453 20.1093 55.3546 20.1413 55.2586 20.152C55.1626 20.1627 55.0666 20.168 54.9706 20.168C54.704 20.168 54.4426 20.152 54.1866 20.12C53.9413 20.0773 53.6906 20.056 53.4346 20.056V20.264L53.4986 20.312C53.4666 20.3333 53.4346 20.376 53.4026 20.44C53.3813 20.504 53.36 20.5787 53.3386 20.664C53.328 20.7387 53.3173 20.8133 53.3066 20.888C53.296 20.952 53.296 20.9947 53.3066 21.016C53.2213 21.464 53.152 21.8693 53.0986 22.232C53.0453 22.5947 53.0186 22.9947 53.0186 23.432C53.0186 23.4747 53.0186 23.5387 53.0186 23.624C53.0186 23.6987 53.0186 23.7733 53.0186 23.848C53.0293 23.9227 53.0346 23.992 53.0346 24.056C53.0346 24.1093 53.0346 24.1413 53.0346 24.152C53.0346 24.216 53.0346 24.3227 53.0346 24.472C53.0453 24.6213 53.0506 24.776 53.0506 24.936C53.0613 25.096 53.0666 25.2453 53.0666 25.384C53.0773 25.512 53.0826 25.5973 53.0826 25.64C53.0826 25.6613 53.0826 25.7093 53.0826 25.784C53.0933 25.848 53.104 25.8907 53.1146 25.912L53.1466 25.944C53.136 25.9547 53.1306 25.9653 53.1306 25.976C53.12 25.9867 53.1146 25.9973 53.1146 26.008L53.1466 26.072H55.0666C55.2373 26.072 55.392 26.1307 55.5306 26.248C55.68 26.3547 55.808 26.4667 55.9146 26.584L55.9306 26.616C55.9306 26.6693 55.904 26.7067 55.8506 26.728C55.7973 26.7387 55.7706 26.76 55.7706 26.792V26.824C55.7813 26.824 55.8133 26.8347 55.8666 26.856C55.9306 26.8667 55.9626 26.888 55.9626 26.92C55.536 26.92 55.1093 26.9413 54.6826 26.984C54.256 27.0267 53.824 27.0587 53.3866 27.08C53.3653 27.0907 53.3066 27.096 53.2106 27.096C53.1146 27.1067 53.056 27.1173 53.0346 27.128C53.024 27.128 53.008 27.1333 52.9866 27.144C52.976 27.1547 52.9653 27.16 52.9546 27.16H52.9386C52.9066 27.16 52.8266 27.1227 52.6986 27.048C52.5813 26.9733 52.4853 26.9253 52.4106 26.904H52.5706V26.84C52.5386 26.84 52.4853 26.84 52.4106 26.84C52.3466 26.84 52.2773 26.8453 52.2026 26.856C52.128 26.856 52.0533 26.856 51.9786 26.856C51.9146 26.856 51.8666 26.856 51.8346 26.856C51.8133 26.856 51.7333 26.8507 51.5946 26.84C51.4666 26.8293 51.3866 26.824 51.3546 26.824C51.1413 26.824 50.9173 26.8453 50.6826 26.888C50.4586 26.92 50.272 27.0107 50.1226 27.16H50.1066H50.0746L50.0106 27.128H49.9786H49.9466C49.9253 27.1387 49.904 27.144 49.8826 27.144C49.872 27.1547 49.856 27.16 49.8346 27.16H49.8026C49.824 27.0427 49.808 26.9467 49.7546 26.872C49.712 26.7867 49.6906 26.7173 49.6906 26.664L49.7066 26.648ZM54.8746 20.04C54.8533 20.04 54.8426 20.056 54.8426 20.088C54.8426 20.1093 54.8533 20.12 54.8746 20.12C54.896 20.12 54.9066 20.1093 54.9066 20.088C54.9066 20.056 54.896 20.04 54.8746 20.04ZM55.0986 20.04C55.0773 20.04 55.0666 20.0453 55.0666 20.056C55.0666 20.0667 55.0773 20.072 55.0986 20.072C55.1413 20.072 55.1413 20.0613 55.0986 20.04ZM54.7946 19.944C54.7626 19.944 54.72 19.9493 54.6666 19.96C54.624 19.96 54.5866 19.9707 54.5546 19.992H54.7946V19.944ZM54.1706 19.96C54.1706 19.9387 54.1546 19.928 54.1226 19.928C54.0906 19.928 54.08 19.9387 54.0906 19.96C54.112 20.0133 54.1386 20.0133 54.1706 19.96ZM54.2506 19.96H54.2826L54.2506 19.928V19.96ZM53.4666 19.848C53.4666 19.9013 53.488 19.928 53.5306 19.928C53.5626 19.9173 53.6 19.9067 53.6426 19.896C53.696 19.8853 53.728 19.88 53.7386 19.88C53.7386 19.8693 53.744 19.864 53.7546 19.864C53.776 19.864 53.7866 19.8587 53.7866 19.848H53.4666ZM51.9146 19.8V19.72C51.872 19.72 51.8453 19.736 51.8346 19.768L51.9146 19.8ZM51.9946 19.768L52.0106 19.784C52.0106 19.7947 52.016 19.8 52.0266 19.8H52.0586C52.1333 19.8 52.1706 19.7573 52.1706 19.672C52.1493 19.672 52.112 19.672 52.0586 19.672C52.016 19.672 51.9946 19.6987 51.9946 19.752V19.768ZM52.3786 19.768C52.3786 19.7467 52.368 19.736 52.3466 19.736C52.336 19.736 52.3306 19.7467 52.3306 19.768C52.3413 19.8 52.3573 19.8 52.3786 19.768ZM65.0801 20.52C65.0588 20.52 65.0321 20.5413 65.0001 20.584C64.9788 20.6267 64.9521 20.6747 64.9201 20.728C64.8988 20.7707 64.8775 20.8187 64.8561 20.872C64.8348 20.9147 64.8241 20.936 64.8241 20.936L64.2801 21.752C64.1628 21.8373 64.0615 21.9493 63.9761 22.088C63.9015 22.216 63.8215 22.3333 63.7361 22.44C63.5228 22.6853 63.3041 22.9253 63.0801 23.16C62.8668 23.384 62.6481 23.6133 62.4241 23.848C62.3068 23.9653 62.2481 24.0667 62.2481 24.152C62.2588 24.2267 62.2375 24.2907 62.1841 24.344L62.1681 24.36L62.1361 24.344C62.0721 24.3227 61.9975 24.3013 61.9121 24.28C61.8268 24.2587 61.7575 24.232 61.7041 24.2C61.5548 24.0933 61.4268 23.9653 61.3201 23.816C61.2135 23.656 61.0961 23.512 60.9681 23.384C60.7441 23.16 60.5148 22.9307 60.2801 22.696C60.0455 22.4613 59.8215 22.2213 59.6081 21.976C59.5975 21.9653 59.5655 21.928 59.5121 21.864C59.4695 21.8 59.4161 21.736 59.3521 21.672C59.2988 21.5973 59.2455 21.5333 59.1921 21.48C59.1495 21.416 59.1228 21.3733 59.1121 21.352C59.0801 21.3093 59.0215 21.2347 58.9361 21.128C58.8508 21.0107 58.7601 20.8933 58.6641 20.776C58.5681 20.6587 58.4775 20.552 58.3921 20.456C58.3068 20.36 58.2481 20.312 58.2161 20.312C58.2161 21.1013 58.2481 21.9013 58.3121 22.712C58.3761 23.512 58.4295 24.3067 58.4721 25.096C58.4721 25.3307 58.4615 25.5707 58.4401 25.816C58.4188 26.0613 58.3921 26.296 58.3601 26.52C58.3175 26.5733 58.2908 26.648 58.2801 26.744C58.2695 26.84 58.2375 26.888 58.1841 26.888C58.0881 26.888 57.9975 26.8507 57.9121 26.776C57.8268 26.7013 57.7735 26.616 57.7521 26.52C57.7308 26.0293 57.7148 25.544 57.7041 25.064C57.6935 24.5733 57.6775 24.0773 57.6561 23.576C57.6348 22.8507 57.6028 22.1307 57.5601 21.416C57.5175 20.7013 57.5015 19.976 57.5121 19.24C57.4588 19.1653 57.4055 19.1013 57.3521 19.048C57.2988 18.984 57.2721 18.9093 57.2721 18.824C57.2721 18.7707 57.3041 18.7333 57.3681 18.712C57.4428 18.68 57.5175 18.6587 57.5921 18.648C57.6775 18.6373 57.7575 18.632 57.8321 18.632C57.9068 18.632 57.9548 18.632 57.9761 18.632H58.0241C58.1201 18.6747 58.1735 18.7653 58.1841 18.904C58.1948 19.0427 58.2428 19.1547 58.3281 19.24C58.4775 19.4213 58.6268 19.5973 58.7761 19.768C58.9361 19.9387 59.0855 20.12 59.2241 20.312C59.4055 20.568 59.5921 20.824 59.7841 21.08C59.9761 21.336 60.1788 21.5813 60.3921 21.816C60.4028 21.8267 60.4241 21.8533 60.4561 21.896C60.4988 21.928 60.5415 21.9653 60.5841 22.008C60.6268 22.0507 60.6641 22.0933 60.6961 22.136C60.7388 22.1787 60.7655 22.2053 60.7761 22.216C60.9255 22.3653 61.0801 22.5467 61.2401 22.76C61.4001 22.9627 61.5548 23.144 61.7041 23.304H61.7361H61.7521L61.8001 23.256C62.1841 22.776 62.5681 22.3067 62.9521 21.848C63.3468 21.3787 63.7521 20.9147 64.1681 20.456L64.6321 19.992C64.6535 19.9707 64.7068 19.928 64.7921 19.864C64.8775 19.7893 64.9255 19.7413 64.9361 19.72C65.0108 19.656 65.0588 19.5813 65.0801 19.496C65.1121 19.4107 65.1335 19.3307 65.1441 19.256C65.1548 19.1707 65.1655 19.096 65.1761 19.032C65.1868 18.968 65.2135 18.9253 65.2561 18.904H65.4161C65.6081 18.904 65.7095 18.9467 65.7201 19.032C65.7415 19.1067 65.7575 19.2347 65.7681 19.416C65.7895 19.8 65.8215 20.184 65.8641 20.568C65.9068 20.9413 65.9548 21.32 66.0081 21.704C66.0188 21.8427 66.0401 21.9867 66.0721 22.136C66.1148 22.2853 66.1255 22.4293 66.1041 22.568L66.4721 25.016C66.4508 25.2613 66.4615 25.496 66.5041 25.72C66.5575 25.9333 66.5841 26.1573 66.5841 26.392C66.5841 26.424 66.5735 26.488 66.5521 26.584C66.5415 26.6693 66.5201 26.76 66.4881 26.856C66.4668 26.952 66.4401 27.032 66.4081 27.096C66.3868 27.1707 66.3655 27.208 66.3441 27.208L66.3121 27.192C66.3335 27.1173 66.3228 27.0587 66.2801 27.016C66.2481 26.9733 66.2001 26.9413 66.1361 26.92C66.0721 26.8987 66.0081 26.8773 65.9441 26.856C65.8801 26.8347 65.8321 26.808 65.8001 26.776C65.7575 26.712 65.7468 26.664 65.7681 26.632C65.7895 26.6 65.7895 26.5413 65.7681 26.456C65.7681 26.4453 65.7575 26.4187 65.7361 26.376C65.7255 26.3227 65.7095 26.2693 65.6881 26.216C65.6775 26.152 65.6668 26.0987 65.6561 26.056C65.6455 26.0027 65.6401 25.9653 65.6401 25.944C65.5655 25.5387 65.5281 25.1227 65.5281 24.696C65.5281 24.2587 65.5015 23.832 65.4481 23.416C65.3948 22.936 65.3361 22.456 65.2721 21.976C65.2081 21.496 65.1495 21.016 65.0961 20.536L65.0801 20.52ZM68.052 25.048C68.052 24.7173 68.052 24.392 68.052 24.072C68.0627 23.7413 68.068 23.4107 68.068 23.08V22.6C68.068 22.5893 68.052 22.5733 68.02 22.552C67.9987 22.52 67.9773 22.4987 67.956 22.488V22.472C67.956 22.3653 67.972 22.264 68.004 22.168C68.0467 22.0613 68.068 21.9547 68.068 21.848V21.704C68.068 21.5973 68.068 21.4107 68.068 21.144C68.068 20.8773 68.0627 20.6 68.052 20.312C68.052 20.0133 68.052 19.7307 68.052 19.464C68.052 19.1973 68.052 19.0107 68.052 18.904C68.0307 18.8293 67.9773 18.7813 67.892 18.76C67.8067 18.7387 67.764 18.6907 67.764 18.616C67.764 18.5413 67.796 18.4987 67.86 18.488C67.924 18.4667 67.972 18.4347 68.004 18.392C68.004 18.168 68.0253 18.024 68.068 17.96C68.1107 17.8853 68.2387 17.848 68.452 17.848C68.516 17.848 68.564 17.864 68.596 17.896C68.628 17.928 68.6547 17.9653 68.676 18.008C68.6973 18.0507 68.7133 18.0933 68.724 18.136C68.7453 18.1787 68.7773 18.2107 68.82 18.232H70.228C70.5907 18.2427 70.9747 18.2747 71.38 18.328C71.796 18.3707 72.1907 18.4613 72.564 18.6C72.948 18.728 73.2893 18.9147 73.588 19.16C73.8867 19.4053 74.1 19.7253 74.228 20.12C74.26 20.2267 74.3027 20.3333 74.356 20.44C74.4093 20.536 74.436 20.648 74.436 20.776C74.436 20.904 74.404 21.0267 74.34 21.144C74.2867 21.2507 74.2227 21.3573 74.148 21.464L74.228 21.512C74.1427 21.6187 74.0467 21.704 73.94 21.768C73.8333 21.832 73.7213 21.8853 73.604 21.928C73.4867 21.9707 73.3693 22.0133 73.252 22.056C73.1347 22.0987 73.0227 22.152 72.916 22.216L72.948 22.248C72.8733 22.28 72.8147 22.2907 72.772 22.28C72.74 22.2693 72.6813 22.2747 72.596 22.296C72.4573 22.3173 72.3347 22.344 72.228 22.376C72.1213 22.3973 71.9933 22.408 71.844 22.408H71.812C71.8013 22.408 71.7747 22.4027 71.732 22.392C71.7 22.3707 71.6733 22.36 71.652 22.36H71.636C71.476 22.36 71.3053 22.392 71.124 22.456C70.9533 22.5093 70.7827 22.5467 70.612 22.568C70.356 22.5893 70.1 22.616 69.844 22.648C69.5987 22.68 69.348 22.6907 69.092 22.68C69.0173 22.7333 68.9693 22.7653 68.948 22.776C68.9373 22.776 68.932 22.8347 68.932 22.952C68.932 23.1333 68.9373 23.3093 68.948 23.48C68.9587 23.64 68.964 23.8107 68.964 23.992C68.964 24.3547 68.9587 24.7173 68.948 25.08C68.9373 25.432 68.932 25.784 68.932 26.136V26.456C68.9853 26.488 69.0067 26.5573 68.996 26.664C68.9853 26.76 68.98 26.8133 68.98 26.824C68.9267 26.824 68.8467 26.824 68.74 26.824C68.644 26.8133 68.5693 26.7973 68.516 26.776C68.388 26.7227 68.292 26.6213 68.228 26.472C68.164 26.312 68.116 26.1467 68.084 25.976C68.0627 25.7947 68.052 25.6187 68.052 25.448C68.052 25.2773 68.052 25.144 68.052 25.048ZM72.212 22.552C72.212 22.488 72.228 22.4507 72.26 22.44C72.3027 22.4293 72.3453 22.424 72.388 22.424C72.4307 22.424 72.4733 22.424 72.516 22.424C72.5587 22.4133 72.5853 22.392 72.596 22.36H72.868C72.836 22.4133 72.7827 22.456 72.708 22.488C72.6333 22.52 72.5533 22.5467 72.468 22.568C72.3827 22.5787 72.292 22.5893 72.196 22.6C72.1107 22.6107 72.0467 22.616 72.004 22.616C71.9933 22.616 71.9667 22.616 71.924 22.616C71.892 22.6053 71.8653 22.6 71.844 22.6C71.8973 22.536 71.956 22.5147 72.02 22.536C72.084 22.5467 72.148 22.552 72.212 22.552ZM69.044 21.656C69.0547 21.656 69.1133 21.656 69.22 21.656C69.3267 21.656 69.412 21.6453 69.476 21.624C69.5293 21.6133 69.5933 21.608 69.668 21.608C69.7533 21.608 69.8333 21.608 69.908 21.608C69.9933 21.5973 70.0733 21.5813 70.148 21.56C70.2227 21.528 70.276 21.4853 70.308 21.432C70.34 21.4213 70.42 21.4107 70.548 21.4C70.676 21.3787 70.7667 21.3627 70.82 21.352H70.836C70.8787 21.3413 70.9587 21.3253 71.076 21.304C71.1933 21.2827 71.316 21.256 71.444 21.224C71.572 21.192 71.6893 21.1653 71.796 21.144C71.9133 21.112 71.9933 21.0907 72.036 21.08C72.2813 21.0267 72.5373 20.9573 72.804 20.872C73.0707 20.776 73.284 20.6267 73.444 20.424C73.444 20.4027 73.444 20.376 73.444 20.344C73.4547 20.3013 73.46 20.2747 73.46 20.264C73.46 20.0827 73.4067 19.944 73.3 19.848C73.1933 19.752 73.092 19.6453 72.996 19.528L72.484 19.288C72.4413 19.224 72.3773 19.1867 72.292 19.176C72.2173 19.1653 72.1533 19.1547 72.1 19.144C71.62 19.016 71.1507 18.9147 70.692 18.84C70.244 18.7653 69.7747 18.728 69.284 18.728C69.252 18.728 69.188 18.7333 69.092 18.744C69.0067 18.744 68.9533 18.744 68.932 18.744L68.852 18.776V18.984C68.852 19.432 68.8627 19.8693 68.884 20.296C68.9053 20.7227 68.9107 21.1547 68.9 21.592L69.044 21.656ZM69.86 19.112C69.86 19.048 69.9027 19.016 69.988 19.016C70.084 19.016 70.1427 19.0533 70.164 19.128C70.196 19.192 70.212 19.2667 70.212 19.352C70.1267 19.352 70.0467 19.3413 69.972 19.32C69.8973 19.2987 69.86 19.2293 69.86 19.112ZM75.4486 20.04C75.47 20.04 75.4806 20.0293 75.4806 20.008C75.4806 19.976 75.47 19.96 75.4486 19.96C75.4273 19.96 75.4166 19.976 75.4166 20.008C75.4166 20.0293 75.4273 20.04 75.4486 20.04ZM75.3686 20.024C75.3686 19.8853 75.406 19.7467 75.4806 19.608C75.566 19.4587 75.662 19.3413 75.7686 19.256C75.8006 19.2347 75.8486 19.2187 75.9126 19.208C75.9766 19.1973 76.03 19.16 76.0726 19.096C76.0833 19.1067 76.094 19.1227 76.1046 19.144C76.126 19.1547 76.142 19.1707 76.1526 19.192C76.238 19.3733 76.302 19.5813 76.3446 19.816C76.398 20.04 76.4353 20.2427 76.4566 20.424C76.4566 20.4347 76.4566 20.4507 76.4566 20.472C76.4673 20.4933 76.4726 20.5147 76.4726 20.536C76.4726 21.0053 76.4353 21.464 76.3606 21.912C76.2966 22.36 76.2646 22.8187 76.2646 23.288C76.2646 23.5653 76.27 23.8373 76.2806 24.104C76.2913 24.3707 76.2966 24.6427 76.2966 24.92V25.56C76.2966 25.5813 76.2913 25.608 76.2806 25.64C76.2806 25.672 76.2753 25.6987 76.2646 25.72V25.752C76.2646 25.8053 76.27 25.864 76.2806 25.928C76.2913 25.9813 76.3233 26.0187 76.3766 26.04C76.5046 26.0613 76.6113 26.072 76.6966 26.072C76.782 26.072 76.8833 26.072 77.0006 26.072C77.4166 26.072 77.8326 26.0507 78.2486 26.008C78.6646 25.9653 79.0806 25.944 79.4966 25.944C79.7206 25.944 79.9446 25.9493 80.1686 25.96C80.4033 25.96 80.6326 25.9867 80.8566 26.04C80.8673 26.04 80.8726 26.0453 80.8726 26.056C80.8833 26.056 80.894 26.056 80.9046 26.056C80.9153 26.0667 80.926 26.072 80.9366 26.072C80.926 26.0827 80.9206 26.0987 80.9206 26.12C80.91 26.1413 80.9046 26.168 80.9046 26.2C80.8726 26.2533 80.8406 26.3227 80.8086 26.408C80.7873 26.4933 80.766 26.5627 80.7446 26.616C80.734 26.6373 80.7126 26.6587 80.6806 26.68C80.6593 26.7013 80.6433 26.7173 80.6326 26.728L80.5526 27.128C80.5313 27.224 80.4513 27.2827 80.3126 27.304C80.1846 27.3253 80.0886 27.336 80.0246 27.336C79.9606 27.336 79.902 27.3147 79.8486 27.272C79.806 27.24 79.758 27.224 79.7046 27.224L79.6886 27.24C79.6886 27.2507 79.6833 27.2613 79.6726 27.272C79.662 27.2933 79.6566 27.3093 79.6566 27.32C79.6566 27.2987 79.6406 27.272 79.6086 27.24V27.224C79.598 27.224 79.5926 27.224 79.5926 27.224C79.5926 27.2347 79.5873 27.24 79.5766 27.24H79.5606L79.4966 27.288H79.1766C78.75 27.288 78.334 27.2667 77.9286 27.224C77.5233 27.1813 77.0966 27.1333 76.6486 27.08H76.4246C76.35 27.08 76.2806 27.0853 76.2166 27.096C76.1526 27.1173 76.0886 27.128 76.0246 27.128H75.9926C75.982 27.128 75.9606 27.1227 75.9286 27.112C75.9073 27.1013 75.886 27.0907 75.8646 27.08C75.726 27.016 75.63 26.9467 75.5766 26.872C75.5233 26.7867 75.486 26.7067 75.4646 26.632C75.454 26.5573 75.4433 26.4933 75.4326 26.44C75.422 26.376 75.39 26.3333 75.3366 26.312V26.136C75.3366 25.8587 75.342 25.5867 75.3526 25.32C75.3633 25.0533 75.3686 24.7813 75.3686 24.504V24.088C75.3686 24.0773 75.3633 24.0507 75.3526 24.008C75.3526 23.9547 75.3526 23.9013 75.3526 23.848C75.3526 23.784 75.3473 23.7307 75.3366 23.688C75.3366 23.6347 75.3366 23.5973 75.3366 23.576C75.3366 23.5333 75.3366 23.4533 75.3366 23.336C75.3366 23.208 75.3366 23.08 75.3366 22.952C75.3366 22.824 75.3366 22.7013 75.3366 22.584C75.3473 22.4667 75.3526 22.3867 75.3526 22.344V22.104L75.3686 20.184C75.3686 20.1733 75.374 20.168 75.3846 20.168C75.3953 20.168 75.406 20.1627 75.4166 20.152L75.4486 20.12L75.4646 20.104L75.4486 20.072C75.4486 20.0613 75.438 20.056 75.4166 20.056C75.3953 20.056 75.3793 20.0507 75.3686 20.04V20.024ZM82.4071 28.184C82.3858 28.184 82.3538 28.2 82.3111 28.232C82.2791 28.2747 82.2471 28.3013 82.2151 28.312H82.1991H82.1831C82.0445 28.2373 81.9325 28.1733 81.8471 28.12C81.7618 28.0773 81.6925 28.024 81.6391 27.96C81.5965 27.9067 81.5645 27.832 81.5431 27.736C81.5325 27.6507 81.5271 27.5333 81.5271 27.384V27.032C81.5378 26.9787 81.5591 26.888 81.5911 26.76C81.6231 26.632 81.6551 26.4933 81.6871 26.344C81.7298 26.1947 81.7671 26.056 81.7991 25.928C81.8311 25.8 81.8525 25.7093 81.8631 25.656C81.9485 25.304 82.0445 24.952 82.1511 24.6C82.2578 24.2373 82.3858 23.8907 82.5351 23.56L84.1991 19.736C84.2311 19.576 84.2951 19.432 84.3911 19.304C84.4871 19.176 84.6258 19.112 84.8071 19.112C84.8391 19.112 84.8978 19.1173 84.9831 19.128C85.0685 19.128 85.1218 19.1387 85.1431 19.16C85.1645 19.1813 85.1858 19.2187 85.2071 19.272C85.2391 19.3253 85.2658 19.3893 85.2871 19.464C85.3191 19.5387 85.3458 19.608 85.3671 19.672C85.3991 19.736 85.4258 19.784 85.4471 19.816C85.4578 19.8267 85.4791 19.8587 85.5111 19.912C85.5431 19.9547 85.5751 20.008 85.6071 20.072C85.6391 20.1253 85.6711 20.1787 85.7031 20.232C85.7351 20.2747 85.7511 20.3013 85.7511 20.312C85.8151 20.4293 85.8845 20.5733 85.9591 20.744C86.0445 20.9147 86.1245 21.08 86.1991 21.24C86.2845 21.4 86.3538 21.5387 86.4071 21.656C86.4605 21.7733 86.4871 21.8373 86.4871 21.848V21.96L87.4311 23.8C87.6125 24.2693 87.7725 24.7227 87.9111 25.16C87.9538 25.288 88.0018 25.4213 88.0551 25.56C88.1085 25.688 88.1351 25.8267 88.1351 25.976C88.1351 26.1253 88.1191 26.248 88.0871 26.344C88.0551 26.4293 88.0445 26.552 88.0551 26.712C88.0445 26.744 88.0178 26.7653 87.9751 26.776C87.9325 26.776 87.9005 26.776 87.8791 26.776C87.8258 26.776 87.7778 26.7493 87.7351 26.696C87.6925 26.6427 87.6551 26.6053 87.6231 26.584C87.5805 26.5627 87.5111 26.5307 87.4151 26.488C87.3191 26.4453 87.2605 26.4133 87.2391 26.392C87.1218 26.328 87.0151 26.2427 86.9191 26.136C86.8231 26.0187 86.7538 25.9013 86.7111 25.784C86.6791 25.72 86.6525 25.6347 86.6311 25.528C86.6098 25.4213 86.5831 25.3147 86.5511 25.208C86.5191 25.1013 86.4818 25.0107 86.4391 24.936C86.4071 24.8507 86.3645 24.808 86.3111 24.808C86.1298 24.808 85.9538 24.8293 85.7831 24.872C85.6125 24.9147 85.4365 24.9467 85.2551 24.968C85.1911 24.968 85.0898 24.9733 84.9511 24.984C84.8125 24.9947 84.6685 25.0107 84.5191 25.032C84.3698 25.0427 84.2311 25.064 84.1031 25.096C83.9858 25.1173 83.9165 25.1493 83.8951 25.192C83.8738 25.224 83.8631 25.2773 83.8631 25.352C83.8631 25.416 83.8578 25.464 83.8471 25.496C83.8258 25.6453 83.7885 25.8 83.7351 25.96C83.6818 26.12 83.6551 26.2693 83.6551 26.408V26.44C83.6551 26.4613 83.6551 26.504 83.6551 26.568C83.6658 26.6213 83.6711 26.6853 83.6711 26.76C83.6818 26.824 83.6871 26.888 83.6871 26.952C83.6978 27.016 83.7031 27.0533 83.7031 27.064V27.208C83.7031 27.4213 83.6711 27.6347 83.6071 27.848C83.5431 28.072 83.4578 28.2747 83.3511 28.456C83.2978 28.5627 83.2605 28.664 83.2391 28.76C83.2285 28.856 83.1911 28.952 83.1271 29.048H83.0951C83.0631 29.048 83.0311 29.0213 82.9991 28.968C82.9778 28.9147 82.9511 28.8507 82.9191 28.776C82.8871 28.712 82.8551 28.6427 82.8231 28.568C82.7911 28.504 82.7591 28.456 82.7271 28.424C82.7165 28.4133 82.6685 28.3707 82.5831 28.296C82.5085 28.2213 82.4498 28.184 82.4071 28.184ZM83.0631 26.568C83.0738 26.5467 83.0685 26.536 83.0471 26.536C83.0365 26.536 83.0311 26.5467 83.0311 26.568C83.0525 26.5893 83.0631 26.5893 83.0631 26.568ZM83.1591 26.52C83.1378 26.52 83.1271 26.5307 83.1271 26.552C83.1271 26.5733 83.1378 26.584 83.1591 26.584C83.1805 26.584 83.1911 26.5733 83.1911 26.552C83.1911 26.5307 83.1805 26.52 83.1591 26.52ZM83.1911 26.36C83.1805 26.36 83.1751 26.376 83.1751 26.408C83.1751 26.44 83.1805 26.4507 83.1911 26.44C83.2445 26.4187 83.2445 26.392 83.1911 26.36ZM84.5991 21.192L84.5511 21.336C84.5191 21.5173 84.4765 21.7467 84.4231 22.024C84.3805 22.2907 84.3378 22.5467 84.2951 22.792C84.2418 23.0907 84.1885 23.3947 84.1351 23.704V23.832C84.3485 23.832 84.5618 23.8053 84.7751 23.752C84.9885 23.688 85.2018 23.6347 85.4151 23.592C85.4365 23.592 85.4685 23.5867 85.5111 23.576C85.5645 23.5653 85.6125 23.5547 85.6551 23.544C85.6978 23.5333 85.7458 23.5227 85.7991 23.512V23.448C85.6178 23.128 85.4685 22.8133 85.3511 22.504C85.2338 22.184 85.1005 21.848 84.9511 21.496C84.9298 21.4427 84.8871 21.3627 84.8231 21.256C84.7591 21.1387 84.6845 21.08 84.5991 21.08V21.192ZM95.9009 23.128V23.144V23.16C95.9222 23.1813 95.9329 23.192 95.9329 23.192L95.9009 23.128ZM92.8609 23.048C92.8822 23.048 92.8929 23.032 92.8929 23C92.8929 22.9573 92.8715 22.9307 92.8289 22.92C92.7862 22.8987 92.7489 22.888 92.7169 22.888H92.7009L92.8609 23.048ZM95.5969 21.96C95.5755 21.9067 95.5595 21.864 95.5489 21.832C95.5489 21.8 95.5489 21.7573 95.5489 21.704V21.592C95.6022 21.592 95.6289 21.6293 95.6289 21.704C95.6289 21.7467 95.6235 21.7893 95.6129 21.832C95.6022 21.864 95.5969 21.9067 95.5969 21.96ZM92.1089 21.768C92.1089 21.6933 92.0769 21.6133 92.0129 21.528C91.9489 21.4427 91.8742 21.4 91.7889 21.4C91.7889 21.4747 91.8209 21.5547 91.8849 21.64C91.9489 21.7253 92.0235 21.768 92.1089 21.768ZM91.4849 21.992C91.4849 21.9387 91.4635 21.896 91.4209 21.864C91.3782 21.832 91.3515 21.784 91.3409 21.72L91.0369 21.4H90.9409V21.208C90.9195 21.1973 90.8929 21.1867 90.8609 21.176C90.8395 21.1653 90.8129 21.16 90.7809 21.16C90.7595 21.16 90.7382 21.1547 90.7169 21.144H90.6689C90.6689 21.24 90.7222 21.352 90.8289 21.48C90.9355 21.608 91.0155 21.704 91.0689 21.768L91.2129 21.912C91.2449 21.944 91.2769 21.9707 91.3089 21.992H91.4849ZM90.2209 20.632C90.2422 20.632 90.2529 20.6213 90.2529 20.6C90.2529 20.5787 90.2422 20.568 90.2209 20.568C90.1995 20.568 90.1889 20.5787 90.1889 20.6C90.1889 20.6213 90.1995 20.632 90.2209 20.632ZM90.3649 19.784C90.3755 19.752 90.3649 19.736 90.3329 19.736C90.3115 19.7467 90.3062 19.7627 90.3169 19.784C90.3382 19.7947 90.3542 19.7947 90.3649 19.784ZM90.3649 19.704C90.3862 19.704 90.3969 19.688 90.3969 19.656C90.3969 19.624 90.3862 19.608 90.3649 19.608C90.3435 19.608 90.3329 19.624 90.3329 19.656C90.3329 19.688 90.3435 19.704 90.3649 19.704ZM90.2849 19.704C90.3062 19.704 90.3169 19.688 90.3169 19.656C90.3169 19.624 90.3062 19.608 90.2849 19.608C90.2635 19.608 90.2529 19.624 90.2529 19.656C90.2529 19.688 90.2635 19.704 90.2849 19.704ZM90.6049 19.592C90.5835 19.592 90.5729 19.576 90.5729 19.544C90.5729 19.512 90.5835 19.496 90.6049 19.496C90.6262 19.496 90.6369 19.512 90.6369 19.544C90.6369 19.576 90.6262 19.592 90.6049 19.592ZM89.1329 19.352C89.1222 19.352 89.1275 19.3307 89.1489 19.288C89.1702 19.2453 89.1862 19.2133 89.1969 19.192C89.2502 19.1067 89.3035 19.0693 89.3569 19.08C89.4102 19.08 89.4742 19.064 89.5489 19.032C89.5595 19.032 89.5809 19.016 89.6129 18.984C89.6449 18.952 89.6609 18.9307 89.6609 18.92H89.6769C89.7942 18.92 89.9222 18.9733 90.0609 19.08C90.1995 19.1867 90.3169 19.2613 90.4129 19.304C90.4022 19.304 90.3915 19.3147 90.3809 19.336C90.3809 19.3467 90.3755 19.352 90.3649 19.352V19.368C90.3649 19.4213 90.3915 19.464 90.4449 19.496C90.5089 19.5173 90.5622 19.5173 90.6049 19.496C90.6262 19.5173 90.6635 19.56 90.7169 19.624C90.7809 19.6773 90.8235 19.7307 90.8449 19.784C90.8449 19.8053 90.8502 19.8427 90.8609 19.896C90.8822 19.9387 90.8982 19.992 90.9089 20.056C90.9302 20.1093 90.9462 20.1627 90.9569 20.216C90.9782 20.2587 90.9889 20.28 90.9889 20.28C91.0529 20.2693 91.1115 20.296 91.1649 20.36C91.2289 20.4133 91.2609 20.472 91.2609 20.536V20.568C91.2289 20.5787 91.2022 20.584 91.1809 20.584C91.1595 20.584 91.1382 20.6 91.1169 20.632C91.1169 20.6427 91.1275 20.664 91.1489 20.696C91.1809 20.7173 91.2075 20.7387 91.2289 20.76C91.2715 20.8027 91.3195 20.8293 91.3729 20.84C91.4262 20.84 91.4689 20.8613 91.5009 20.904C91.5329 20.9467 91.5435 20.9787 91.5329 21C91.5329 21.0107 91.5595 21.016 91.6129 21.016C91.6342 21.0373 91.6715 21.0747 91.7249 21.128C91.7782 21.1813 91.8315 21.24 91.8849 21.304C91.9382 21.3573 91.9915 21.4107 92.0449 21.464C92.0982 21.5173 92.1355 21.5547 92.1569 21.576C92.1889 21.6187 92.2529 21.6987 92.3489 21.816C92.4555 21.9333 92.5089 22.0293 92.5089 22.104C92.4235 22.0827 92.3755 22.0507 92.3649 22.008C92.3542 21.9653 92.3009 21.944 92.2049 21.944V21.992L92.6369 22.424C92.6262 22.424 92.6582 22.4613 92.7329 22.536C92.8182 22.6107 92.9089 22.696 93.0049 22.792C93.1009 22.8773 93.1915 22.9573 93.2769 23.032C93.3622 23.1067 93.4049 23.1493 93.4049 23.16C93.4475 23.2453 93.4849 23.3307 93.5169 23.416C93.5595 23.4907 93.6129 23.5653 93.6769 23.64C93.7409 23.704 93.7942 23.736 93.8369 23.736C93.8795 23.736 93.9169 23.7787 93.9489 23.864C93.9809 23.9493 94.0289 24.024 94.0929 24.088C94.1675 24.152 94.2422 24.2107 94.3169 24.264C94.4022 24.3173 94.4822 24.376 94.5569 24.44C94.6315 24.4933 94.6902 24.5627 94.7329 24.648L94.7649 24.728L95.1969 25.144C95.1969 25.144 95.2075 25.1493 95.2289 25.16C95.2395 25.16 95.2609 25.16 95.2929 25.16C95.3249 25.1493 95.3409 25.1333 95.3409 25.112V24.792C95.3729 24.792 95.3942 24.776 95.4049 24.744C95.4155 24.7013 95.4262 24.6693 95.4369 24.648C95.4369 24.6267 95.4315 24.568 95.4209 24.472C95.4209 24.376 95.4262 24.3173 95.4369 24.296C95.4369 24.2853 95.4475 24.264 95.4689 24.232C95.4902 24.2 95.5009 24.1787 95.5009 24.168C95.5222 24.1147 95.5329 24.04 95.5329 23.944C95.5435 23.848 95.5489 23.768 95.5489 23.704L95.6289 23.672C95.6075 23.352 95.6075 23.0267 95.6289 22.696C95.6609 22.3547 95.7142 22.0293 95.7889 21.72C95.8102 21.656 95.8529 21.592 95.9169 21.528C95.9809 21.464 96.0129 21.3947 96.0129 21.32C96.0129 21.2987 95.9915 21.2453 95.9489 21.16C95.9169 21.064 95.8849 21.016 95.8529 21.016V20.968C95.8849 20.968 95.9062 20.9787 95.9169 21C95.9382 21.0107 95.9595 21.016 95.9809 21.016C95.9809 20.9307 95.9702 20.8453 95.9489 20.76C95.9382 20.6747 95.8849 20.632 95.7889 20.632V20.904C95.7889 20.9147 95.7675 20.9307 95.7249 20.952L95.6609 20.984V20.888C95.6609 20.824 95.6662 20.76 95.6769 20.696C95.6982 20.632 95.7089 20.5733 95.7089 20.52C95.7089 20.4773 95.6982 20.408 95.6769 20.312C95.6555 20.216 95.6182 20.168 95.5649 20.168H95.5489C95.5382 20.168 95.5275 20.1733 95.5169 20.184C95.5169 20.1947 95.5115 20.2 95.5009 20.2C95.4795 20.2 95.4689 20.1787 95.4689 20.136V20.056C95.4689 19.928 95.5062 19.7947 95.5809 19.656C95.6662 19.5067 95.7835 19.4427 95.9329 19.464L95.8529 19.4H95.8689C95.8795 19.4 95.8849 19.4 95.8849 19.4C95.8849 19.3893 95.8902 19.384 95.9009 19.384C95.9222 19.384 95.9382 19.3893 95.9489 19.4C95.9702 19.4 95.9915 19.4053 96.0129 19.416C96.0129 19.3627 96.0289 19.3253 96.0609 19.304C96.0929 19.272 96.1249 19.2507 96.1569 19.24C96.1995 19.2187 96.2369 19.1973 96.2689 19.176C96.3115 19.1547 96.3435 19.1227 96.3649 19.08C96.4075 19.112 96.4395 19.176 96.4609 19.272C96.4929 19.368 96.5142 19.4747 96.5249 19.592C96.5355 19.6987 96.5409 19.8 96.5409 19.896C96.5515 19.992 96.5569 20.056 96.5569 20.088C96.5569 20.1093 96.5515 20.1467 96.5409 20.2C96.5302 20.2533 96.5249 20.2907 96.5249 20.312C96.5142 20.312 96.4982 20.3227 96.4769 20.344C96.4662 20.3547 96.4502 20.3653 96.4289 20.376V20.392C96.4289 20.4027 96.4395 20.4187 96.4609 20.44C96.4715 20.4507 96.4769 20.4613 96.4769 20.472L96.4929 20.504L96.4769 20.52L96.2849 20.712V20.792H96.3169C96.3169 21.0693 96.2849 21.336 96.2209 21.592C96.1675 21.592 96.1355 21.6133 96.1249 21.656C96.1142 21.6773 96.0982 21.736 96.0769 21.832C96.0662 21.9173 96.0555 21.9707 96.0449 21.992V22.056C96.0449 22.1093 96.0555 22.152 96.0769 22.184C96.1089 22.216 96.1249 22.2587 96.1249 22.312C96.1249 22.4613 96.1142 22.6107 96.0929 22.76C96.0822 22.8987 96.0822 23.0427 96.0929 23.192L96.0129 23.352L95.9329 23.288L95.9009 23.32V23.672C95.9542 23.704 95.9862 23.752 95.9969 23.816C96.0075 23.8693 96.0129 23.9227 96.0129 23.976C96.0129 24.0613 95.9969 24.136 95.9649 24.2C95.9435 24.264 95.9329 24.3333 95.9329 24.408C95.9329 24.5147 95.9489 24.6107 95.9809 24.696C96.0129 24.7813 96.0289 24.8773 96.0289 24.984H95.9169C95.9169 25.0053 95.9115 25.0373 95.9009 25.08C95.9009 25.112 95.9009 25.1333 95.9009 25.144C95.9009 25.1547 95.9062 25.1707 95.9169 25.192C95.9275 25.2133 95.9329 25.2293 95.9329 25.24C95.9329 25.3893 95.9222 25.5493 95.9009 25.72C95.8795 25.8907 95.8529 26.0507 95.8209 26.2C95.8102 26.2107 95.7942 26.248 95.7729 26.312C95.7515 26.376 95.7409 26.4187 95.7409 26.44C95.7409 26.4507 95.7515 26.488 95.7729 26.552C95.7942 26.616 95.8102 26.6533 95.8209 26.664V26.776C95.8209 26.8613 95.7889 26.9147 95.7249 26.936C95.6609 26.9467 95.6022 26.9893 95.5489 27.064C95.5382 27.0427 95.5115 27.016 95.4689 26.984C95.4262 26.9413 95.4049 26.9147 95.4049 26.904H95.3729H95.3409C95.3302 26.9147 95.3035 26.9413 95.2609 26.984C95.2289 27.016 95.2075 27.0427 95.1969 27.064C95.1542 27.0107 95.0849 26.9733 94.9889 26.952C94.8929 26.9307 94.8449 26.888 94.8449 26.824C94.8449 26.7387 94.8555 26.664 94.8769 26.6C94.9089 26.5253 94.9249 26.4507 94.9249 26.376V26.36C94.9142 26.36 94.9089 26.3547 94.9089 26.344V26.312C94.8982 26.3013 94.8929 26.2907 94.8929 26.28C94.7649 26.1093 94.6155 25.9493 94.4449 25.8C94.2849 25.64 94.1355 25.4853 93.9969 25.336C93.9115 25.2507 93.8635 25.1867 93.8529 25.144C93.8422 25.1013 93.8102 25.0373 93.7569 24.952C93.6289 24.76 93.4742 24.5787 93.2929 24.408C93.1115 24.2267 92.9409 24.0453 92.7809 23.864C92.7062 23.7787 92.6102 23.688 92.4929 23.592C92.3755 23.496 92.3009 23.3947 92.2689 23.288C92.0769 23.1067 91.8902 22.9147 91.7089 22.712C91.5382 22.5093 91.3622 22.3067 91.1809 22.104C91.1489 22.0613 91.0689 21.9653 90.9409 21.816C90.8235 21.6667 90.6955 21.512 90.5569 21.352C90.4289 21.1813 90.3115 21.032 90.2049 20.904C90.0982 20.776 90.0395 20.712 90.0289 20.712C90.0075 20.712 89.9862 20.744 89.9649 20.808C89.9542 20.872 89.9382 20.9467 89.9169 21.032C89.9062 21.1067 89.8955 21.1813 89.8849 21.256C89.8742 21.3307 89.8689 21.3787 89.8689 21.4C89.8582 21.4533 89.8529 21.544 89.8529 21.672C89.8529 21.8 89.8582 21.88 89.8689 21.912L89.7729 21.992V22.12C89.7729 22.2053 89.7889 22.2853 89.8209 22.36C89.8529 22.424 89.8689 22.4933 89.8689 22.568H89.7569C89.7569 22.7173 89.7675 22.8613 89.7889 23C89.8209 23.128 89.8475 23.256 89.8689 23.384C89.8689 23.4053 89.8582 23.4427 89.8369 23.496C89.8262 23.5493 89.8209 23.5813 89.8209 23.592V23.64C89.8209 23.672 89.8315 23.7093 89.8529 23.752C89.8849 23.784 89.9009 23.8107 89.9009 23.832L89.8689 23.896C89.8582 23.9173 89.8529 23.9333 89.8529 23.944C89.8529 23.944 89.8475 23.9547 89.8369 23.976C89.8262 23.9973 89.8209 24.0133 89.8209 24.024C89.8315 24.088 89.8582 24.1467 89.9009 24.2C89.9542 24.2427 89.9809 24.2907 89.9809 24.344L89.9649 24.36L89.9009 24.344C89.9009 24.3547 89.9009 24.392 89.9009 24.456C89.9115 24.5093 89.9222 24.5467 89.9329 24.568L89.9489 24.584C89.9489 24.5947 89.9542 24.6 89.9649 24.6V25.08C89.9542 25.0907 89.9489 25.1013 89.9489 25.112C89.9382 25.1227 89.9329 25.1333 89.9329 25.144C89.9329 25.1653 89.9382 25.208 89.9489 25.272C89.9595 25.336 89.9649 25.3733 89.9649 25.384V25.512C89.9649 25.544 89.9649 25.576 89.9649 25.608C89.9755 25.64 89.9809 25.6667 89.9809 25.688C89.9809 25.9653 89.9702 26.2267 89.9489 26.472C89.9275 26.7173 89.8582 26.968 89.7409 27.224C89.7195 27.224 89.6929 27.224 89.6609 27.224C89.6289 27.2347 89.6022 27.2453 89.5809 27.256C89.5595 27.2773 89.5382 27.2933 89.5169 27.304C89.5062 27.3147 89.4902 27.32 89.4689 27.32C89.4582 27.32 89.4475 27.3253 89.4369 27.336C89.4155 27.336 89.3569 27.304 89.2609 27.24C89.1649 27.1867 89.1169 27.1547 89.1169 27.144C89.1169 27.0907 89.1275 27.0373 89.1489 26.984C89.1702 26.9307 89.1862 26.8773 89.1969 26.824C89.2289 26.664 89.2449 26.5253 89.2449 26.408C89.2449 26.28 89.2449 26.1253 89.2449 25.944C89.2449 25.7413 89.2289 25.5333 89.1969 25.32C89.1649 25.1067 89.1489 24.8933 89.1489 24.68V24.6C89.1809 24.6853 89.2342 24.728 89.3089 24.728C89.3089 24.3973 89.2822 24.072 89.2289 23.752C89.1755 23.432 89.1489 23.1013 89.1489 22.76V22.184C89.2022 22.1733 89.2235 22.1253 89.2129 22.04C89.2129 21.9547 89.2235 21.8907 89.2449 21.848C89.2235 21.6133 89.2235 21.384 89.2449 21.16C89.2662 20.936 89.2769 20.7067 89.2769 20.472V19.976L89.2449 20.008L89.1329 20.392C89.1115 20.392 89.0955 20.3653 89.0849 20.312C89.0742 20.248 89.0635 20.184 89.0529 20.12C89.0529 20.0453 89.0529 19.9813 89.0529 19.928C89.0529 19.864 89.0529 19.8213 89.0529 19.8C89.0529 19.768 89.0475 19.6933 89.0369 19.576C89.0369 19.4587 89.0742 19.4 89.1489 19.4L89.1329 19.352ZM100.376 19.816C100.365 19.816 100.36 19.8107 100.36 19.8C100.338 19.7893 100.296 19.7787 100.232 19.768C100.178 19.7573 100.146 19.752 100.136 19.752C99.6558 19.7413 99.1864 19.736 98.7278 19.736C98.2798 19.7253 97.8264 19.6827 97.3678 19.608C97.3678 19.5653 97.3518 19.5333 97.3198 19.512C97.2878 19.4907 97.2451 19.48 97.1918 19.48C97.1491 19.48 97.1011 19.48 97.0478 19.48C97.0051 19.48 96.9784 19.48 96.9678 19.48C96.9464 19.4693 96.9198 19.4427 96.8878 19.4C96.8664 19.3467 96.8291 19.336 96.7758 19.368C96.7544 19.3147 96.7438 19.272 96.7438 19.24C96.7438 19.1973 96.7438 19.1493 96.7438 19.096C96.7438 19.064 96.7384 19.0373 96.7278 19.016C96.7278 18.984 96.7544 18.9573 96.8078 18.936C96.8184 18.936 96.8291 18.9413 96.8398 18.952C96.8611 18.9733 96.8771 18.984 96.8878 18.984H96.9198H96.9358C97.0531 18.8987 97.1918 18.856 97.3518 18.856C97.5651 18.856 97.7838 18.8613 98.0078 18.872C98.2424 18.8827 98.4664 18.8933 98.6798 18.904C98.7331 18.904 98.8078 18.9093 98.9038 18.92C98.9998 18.92 99.0904 18.92 99.1758 18.92C99.2824 18.9307 99.3891 18.936 99.4958 18.936L99.5438 18.984C99.6078 18.9947 99.6664 19 99.7198 19C99.7731 19.0107 99.8264 19.016 99.8798 19.016C99.9331 19.016 99.9758 19.016 100.008 19.016H100.28C100.312 19.016 100.376 19.0213 100.472 19.032C100.578 19.032 100.69 19.0373 100.808 19.048C100.925 19.048 101.032 19.048 101.128 19.048C101.234 19.048 101.304 19.048 101.336 19.048C101.442 19.0587 101.538 19.064 101.624 19.064C101.72 19.0533 101.821 19.064 101.928 19.096C102.216 19.096 102.541 19.096 102.904 19.096C103.266 19.096 103.602 19.112 103.912 19.144C103.922 19.144 103.938 19.1493 103.96 19.16C103.992 19.16 104.013 19.1653 104.024 19.176C104.024 19.176 104.018 19.1867 104.008 19.208L103.992 19.224C104.045 19.224 104.12 19.224 104.216 19.224C104.312 19.2133 104.402 19.2133 104.488 19.224C104.584 19.2347 104.664 19.2613 104.728 19.304C104.802 19.3467 104.84 19.416 104.84 19.512C104.84 19.5973 104.813 19.656 104.76 19.688C104.706 19.7093 104.648 19.7253 104.584 19.736C104.53 19.736 104.477 19.7413 104.424 19.752C104.381 19.752 104.36 19.7787 104.36 19.832C104.349 19.832 104.322 19.8373 104.28 19.848C104.248 19.848 104.226 19.848 104.216 19.848C104.173 19.848 104.109 19.848 104.024 19.848C103.938 19.8373 103.885 19.8053 103.864 19.752L103.832 19.832H101.304C101.304 20.1413 101.325 20.456 101.368 20.776C101.421 21.0853 101.448 21.3947 101.448 21.704C101.448 21.7893 101.432 21.8693 101.4 21.944C101.378 22.008 101.368 22.0827 101.368 22.168C101.368 22.2213 101.384 22.28 101.416 22.344C101.458 22.3973 101.48 22.4827 101.48 22.6C101.48 22.6107 101.474 22.648 101.464 22.712C101.453 22.776 101.448 22.8133 101.448 22.824C101.448 22.8453 101.453 22.9147 101.464 23.032C101.474 23.1387 101.48 23.2027 101.48 23.224V23.24V23.256C101.469 23.256 101.464 23.2613 101.464 23.272C101.453 23.2827 101.448 23.2933 101.448 23.304V23.32C101.448 23.8427 101.469 24.3707 101.512 24.904C101.565 25.4267 101.618 25.9547 101.672 26.488C101.65 26.552 101.634 26.6213 101.624 26.696C101.624 26.76 101.629 26.8187 101.64 26.872C101.618 26.8933 101.56 26.9147 101.464 26.936C101.378 26.9467 101.32 26.9573 101.288 26.968H101.256C101.181 26.968 101.112 26.9413 101.048 26.888C100.994 26.824 100.946 26.7493 100.904 26.664C100.861 26.5787 100.824 26.4987 100.792 26.424C100.77 26.3387 100.76 26.2693 100.76 26.216C100.674 25.8213 100.626 25.4373 100.616 25.064C100.616 24.68 100.605 24.2907 100.584 23.896C100.562 23.2133 100.541 22.536 100.52 21.864C100.509 21.192 100.466 20.5147 100.392 19.832L100.376 19.816ZM101.416 22.984C101.394 22.984 101.384 23 101.384 23.032C101.384 23.0533 101.394 23.064 101.416 23.064C101.437 23.064 101.448 23.0533 101.448 23.032C101.448 23 101.437 22.984 101.416 22.984ZM103.928 19.672C103.917 19.672 103.912 19.688 103.912 19.72C103.912 19.7413 103.917 19.752 103.928 19.752C103.949 19.752 103.96 19.7413 103.96 19.72C103.96 19.688 103.949 19.672 103.928 19.672ZM105.645 23.192C105.645 22.488 105.773 21.832 106.029 21.224C106.296 20.6053 106.701 20.0667 107.245 19.608C107.288 19.576 107.346 19.5387 107.421 19.496C107.506 19.4533 107.586 19.4107 107.661 19.368C107.736 19.3147 107.805 19.2667 107.869 19.224C107.933 19.1813 107.976 19.144 107.997 19.112C108.328 18.9093 108.701 18.744 109.117 18.616C109.533 18.4773 109.944 18.408 110.349 18.408H110.509C110.562 18.4933 110.637 18.5413 110.733 18.552C110.84 18.5627 110.936 18.5787 111.021 18.6V18.648L111.053 18.68L111.101 18.728C111.112 18.728 111.106 18.7387 111.085 18.76C111.074 18.7707 111.069 18.7813 111.069 18.792V18.984C111.069 19.0587 111.074 19.1173 111.085 19.16C111.106 19.2027 111.117 19.2507 111.117 19.304C111.117 19.3147 111.112 19.32 111.101 19.32C111.101 19.32 111.101 19.3253 111.101 19.336V19.352C111.08 19.3733 111.064 19.4 111.053 19.432C111.032 19.496 111.021 19.5333 111.021 19.544C111.01 19.608 111.01 19.6667 111.021 19.72C111.042 19.7627 111.016 19.784 110.941 19.784C110.802 19.784 110.696 19.752 110.621 19.688C110.546 19.6133 110.44 19.576 110.301 19.576H110.285C110.264 19.5867 110.221 19.6027 110.157 19.624C110.104 19.6453 110.072 19.656 110.061 19.656C110.04 19.656 109.997 19.6613 109.933 19.672C109.88 19.672 109.821 19.672 109.757 19.672C109.693 19.672 109.634 19.672 109.581 19.672C109.528 19.6613 109.496 19.656 109.485 19.656C109.08 19.7733 108.728 19.9227 108.429 20.104C108.141 20.2853 107.89 20.504 107.677 20.76C107.464 21.016 107.277 21.304 107.117 21.624C106.968 21.944 106.834 22.296 106.717 22.68C106.728 22.776 106.722 22.9147 106.701 23.096C106.68 23.2773 106.669 23.4107 106.669 23.496C106.669 24.0187 106.754 24.4507 106.925 24.792C107.096 25.1227 107.416 25.4213 107.885 25.688C107.992 25.752 108.12 25.816 108.269 25.88C108.418 25.9333 108.562 25.96 108.701 25.96C108.712 25.96 108.749 25.9547 108.813 25.944C108.888 25.9333 108.962 25.9227 109.037 25.912C109.122 25.8907 109.197 25.8747 109.261 25.864C109.325 25.8427 109.357 25.8267 109.357 25.816C109.645 25.688 109.896 25.5493 110.109 25.4C110.322 25.2507 110.472 25.0053 110.557 24.664C110.568 24.664 110.578 24.6107 110.589 24.504C110.61 24.3867 110.626 24.3013 110.637 24.248C110.669 24.0453 110.717 23.8587 110.781 23.688C110.845 23.5173 110.877 23.3307 110.877 23.128C110.877 22.8507 110.829 22.632 110.733 22.472C110.648 22.312 110.552 22.1253 110.445 21.912C110.296 21.6347 110.173 21.368 110.077 21.112C109.981 20.856 109.933 20.5733 109.933 20.264V19.928L109.981 19.864C109.97 19.896 109.965 19.944 109.965 20.008C109.965 20.0613 109.97 20.1147 109.981 20.168C109.992 20.2213 110.008 20.2693 110.029 20.312C110.05 20.3547 110.082 20.376 110.125 20.376H110.157C110.168 20.376 110.173 20.3707 110.173 20.36C110.194 20.2747 110.21 20.1787 110.221 20.072C110.242 19.9653 110.253 19.8747 110.253 19.8H110.301C110.365 19.8 110.408 19.832 110.429 19.896C110.461 19.96 110.482 20.0293 110.493 20.104C110.514 20.168 110.536 20.232 110.557 20.296C110.578 20.36 110.616 20.392 110.669 20.392H110.701C110.712 20.392 110.728 20.3867 110.749 20.376C110.77 20.3653 110.786 20.36 110.797 20.36C110.85 20.3707 110.925 20.4133 111.021 20.488C111.117 20.552 111.224 20.584 111.341 20.584H111.421L111.485 20.552C111.581 20.5733 111.645 20.616 111.677 20.68C111.72 20.744 111.746 20.8133 111.757 20.888C111.768 20.952 111.773 21.0107 111.773 21.064C111.784 21.1173 111.81 21.144 111.853 21.144V21.08H111.901C111.901 21.1013 111.896 21.1333 111.885 21.176C111.885 21.2187 111.874 21.2453 111.853 21.256L112.045 21.496C112.056 21.496 112.066 21.4907 112.077 21.48C112.088 21.48 112.098 21.4747 112.109 21.464C112.13 21.4533 112.146 21.448 112.157 21.448C112.157 21.448 112.168 21.4693 112.189 21.512C112.221 21.544 112.253 21.5867 112.285 21.64C112.317 21.6827 112.349 21.7253 112.381 21.768C112.413 21.8107 112.429 21.8427 112.429 21.864V22.232C112.493 22.264 112.525 22.312 112.525 22.376C112.525 22.4293 112.568 22.4827 112.653 22.536C112.685 22.5573 112.701 22.584 112.701 22.616C112.701 22.6587 112.669 22.6853 112.605 22.696C112.552 22.7067 112.514 22.744 112.493 22.808C112.493 22.8507 112.488 22.904 112.477 22.968C112.466 23.032 112.461 23.0853 112.461 23.128C112.461 23.288 112.466 23.4533 112.477 23.624C112.498 23.784 112.509 23.944 112.509 24.104C112.509 24.2533 112.488 24.4027 112.445 24.552C112.402 24.6907 112.381 24.8347 112.381 24.984C112.381 25.0587 112.402 25.1173 112.445 25.16C112.488 25.192 112.509 25.24 112.509 25.304C112.509 25.336 112.488 25.3627 112.445 25.384C112.402 25.4053 112.349 25.4267 112.285 25.448C112.232 25.4587 112.178 25.4747 112.125 25.496C112.072 25.5067 112.029 25.5227 111.997 25.544C111.912 25.6187 111.842 25.6933 111.789 25.768C111.746 25.8427 111.677 25.9227 111.581 26.008C111.229 26.2853 110.824 26.536 110.365 26.76C109.917 26.984 109.464 27.096 109.005 27.096C108.792 27.096 108.594 27.0533 108.413 26.968C108.232 26.8827 108.04 26.808 107.837 26.744H107.757H107.693C107.33 26.616 107.016 26.424 106.749 26.168C106.493 25.912 106.28 25.624 106.109 25.304C105.949 24.984 105.832 24.6427 105.757 24.28C105.682 23.9067 105.645 23.544 105.645 23.192ZM111.101 22.104H111.149C111.181 22.104 111.213 22.0933 111.245 22.072C111.288 22.0507 111.298 22.0133 111.277 21.96L111.517 21.704L111.293 21.48C111.314 21.544 111.314 21.5813 111.293 21.592C111.272 21.6027 111.245 21.6293 111.213 21.672C111.192 21.7147 111.176 21.784 111.165 21.88C111.165 21.9653 111.144 22.0187 111.101 22.04L111.181 22.072L111.101 22.104ZM111.293 21.368C111.304 21.3467 111.298 21.336 111.277 21.336C111.266 21.336 111.266 21.3467 111.277 21.368C111.277 21.3893 111.277 21.4 111.277 21.4C111.288 21.4 111.293 21.3893 111.293 21.368ZM111.421 21.208C111.4 21.208 111.389 21.224 111.389 21.256C111.389 21.2773 111.4 21.288 111.421 21.288C111.442 21.288 111.453 21.2773 111.453 21.256C111.453 21.224 111.442 21.208 111.421 21.208ZM113.719 26.536C113.719 26.408 113.73 26.28 113.751 26.152C113.783 26.024 113.799 25.8907 113.799 25.752C113.799 25.6667 113.783 25.608 113.751 25.576C113.73 25.5333 113.719 25.4693 113.719 25.384C113.719 25.2773 113.73 25.1813 113.751 25.096C113.783 25.0107 113.799 24.9093 113.799 24.792V24.616L113.719 24.584V24.504C113.719 24.4187 113.724 24.344 113.735 24.28C113.746 24.216 113.751 24.1467 113.751 24.072C113.751 23.9867 113.735 23.9227 113.703 23.88C113.682 23.8267 113.671 23.768 113.671 23.704C113.671 23.576 113.682 23.4213 113.703 23.24C113.724 23.048 113.74 22.8987 113.751 22.792V22.76V22.744C113.751 22.7333 113.746 22.712 113.735 22.68C113.724 22.6373 113.719 22.6107 113.719 22.6C113.719 22.5787 113.724 22.552 113.735 22.52C113.746 22.4773 113.751 22.4507 113.751 22.44V22.232C113.751 22.0827 113.746 21.9547 113.735 21.848C113.735 21.7413 113.73 21.6027 113.719 21.432C113.687 21.4 113.671 21.368 113.671 21.336C113.671 21.3253 113.676 21.3147 113.687 21.304C113.708 21.2827 113.719 21.272 113.719 21.272C113.719 21.2507 113.719 21.2133 113.719 21.16C113.73 21.096 113.735 21.0533 113.735 21.032C113.735 20.808 113.714 20.6053 113.671 20.424C113.671 20.3707 113.65 20.312 113.607 20.248C113.575 20.184 113.559 20.1253 113.559 20.072C113.559 20.04 113.58 19.992 113.623 19.928C113.666 19.864 113.708 19.832 113.751 19.832L116.407 19.864H116.551C116.594 19.864 116.663 19.864 116.759 19.864C116.866 19.8533 116.972 19.848 117.079 19.848C117.196 19.848 117.298 19.848 117.383 19.848C117.479 19.8373 117.543 19.832 117.575 19.832C117.596 19.832 117.618 19.832 117.639 19.832C117.66 19.8213 117.682 19.816 117.703 19.816C117.735 19.816 117.767 19.8107 117.799 19.8L117.831 19.704L117.895 19.832C117.895 19.8107 117.906 19.8 117.927 19.8H117.943C118.124 19.8 118.3 19.8267 118.471 19.88C118.652 19.9227 118.764 20.0507 118.807 20.264C118.818 20.2747 118.818 20.3173 118.807 20.392C118.807 20.4667 118.807 20.5093 118.807 20.52C118.818 20.5627 118.844 20.6053 118.887 20.648C118.93 20.68 118.962 20.7067 118.983 20.728C118.919 20.7493 118.828 20.76 118.711 20.76C118.594 20.76 118.524 20.7867 118.503 20.84H118.087C118.076 20.8187 118.023 20.8027 117.927 20.792C117.831 20.7707 117.778 20.76 117.767 20.76C117.756 20.76 117.73 20.7707 117.687 20.792C117.655 20.8133 117.628 20.8293 117.607 20.84C117.586 20.84 117.559 20.84 117.527 20.84C117.495 20.8293 117.468 20.824 117.447 20.824H117.575L117.527 20.76H116.327C116.231 20.792 116.156 20.808 116.103 20.808H116.023C116.012 20.808 116.002 20.8027 115.991 20.792C115.98 20.7813 115.975 20.7707 115.975 20.76C115.847 20.76 115.714 20.776 115.575 20.808C115.436 20.8293 115.298 20.84 115.159 20.84V20.808C115.159 20.7973 115.127 20.792 115.063 20.792C115.01 20.7813 114.962 20.7707 114.919 20.76H114.727C114.716 20.76 114.711 20.7547 114.711 20.744L114.695 20.728H114.263C114.263 21.0267 114.274 21.3253 114.295 21.624C114.327 21.912 114.343 22.2 114.343 22.488V23.096C114.322 23.1173 114.311 23.144 114.311 23.176V23.224C114.311 23.256 114.311 23.3253 114.311 23.432C114.322 23.5387 114.332 23.608 114.343 23.64H114.439C114.695 23.64 114.946 23.5973 115.191 23.512C115.436 23.416 115.687 23.3573 115.943 23.336C116.391 23.3147 116.844 23.2773 117.303 23.224C117.762 23.1707 118.215 23.16 118.663 23.192C118.61 23.16 118.551 23.1387 118.487 23.128C118.423 23.1173 118.364 23.1067 118.311 23.096C118.332 23.0853 118.364 23.08 118.407 23.08C118.45 23.0693 118.482 23.064 118.503 23.064H118.551C118.69 23.064 118.834 23.128 118.983 23.256C119.143 23.3733 119.223 23.5013 119.223 23.64C119.223 23.704 119.164 23.784 119.047 23.88C118.94 23.9653 118.855 24.0133 118.791 24.024H118.743C118.732 24.024 118.722 24.0187 118.711 24.008H118.663C118.524 24.008 118.402 24.0347 118.295 24.088C118.199 24.1307 118.087 24.152 117.959 24.152C117.895 24.152 117.858 24.1467 117.847 24.136C117.836 24.1147 117.804 24.104 117.751 24.104C117.644 24.104 117.57 24.1573 117.527 24.264C117.516 24.232 117.495 24.1947 117.463 24.152C117.442 24.1093 117.436 24.0667 117.447 24.024C117.447 24.0347 117.436 24.0453 117.415 24.056C117.394 24.056 117.383 24.0613 117.383 24.072C117.319 24.136 117.244 24.1787 117.159 24.2C117.074 24.2213 116.994 24.2693 116.919 24.344H116.887H116.871C116.818 24.312 116.764 24.296 116.711 24.296C116.668 24.2853 116.631 24.28 116.599 24.28C116.567 24.2693 116.54 24.2533 116.519 24.232C116.498 24.2107 116.498 24.168 116.519 24.104L116.295 24.2C116.316 24.2107 116.327 24.232 116.327 24.264V24.312C116.274 24.3333 116.226 24.344 116.183 24.344C116.14 24.344 116.092 24.344 116.039 24.344H115.895L115.943 24.312C115.9 24.2907 115.884 24.2747 115.895 24.264C115.906 24.2427 115.911 24.2213 115.911 24.2C115.698 24.2 115.468 24.2213 115.223 24.264C114.988 24.3067 114.77 24.3867 114.567 24.504C114.492 24.5467 114.45 24.6053 114.439 24.68C114.439 24.744 114.396 24.7867 114.311 24.808C114.364 25.0747 114.391 25.32 114.391 25.544C114.391 25.768 114.391 26.0187 114.391 26.296C114.391 26.328 114.391 26.3813 114.391 26.456C114.391 26.5307 114.386 26.6107 114.375 26.696C114.375 26.7707 114.375 26.8453 114.375 26.92C114.375 26.9947 114.375 27.048 114.375 27.08C114.364 27.1013 114.343 27.1547 114.311 27.24C114.29 27.336 114.268 27.3947 114.247 27.416C114.247 27.4267 114.242 27.432 114.231 27.432C114.231 27.432 114.231 27.4373 114.231 27.448V27.464C114.231 27.4533 114.21 27.432 114.167 27.4C114.124 27.3787 114.076 27.3467 114.023 27.304C113.98 27.2613 113.932 27.2187 113.879 27.176C113.836 27.144 113.81 27.112 113.799 27.08C113.767 26.9947 113.746 26.904 113.735 26.808C113.724 26.712 113.719 26.6213 113.719 26.536ZM116.023 24.264H116.039L116.023 24.216V24.264ZM116.167 24.2C116.146 24.2 116.135 24.2107 116.135 24.232C116.135 24.2533 116.146 24.264 116.167 24.264C116.188 24.264 116.199 24.2533 116.199 24.232C116.199 24.2107 116.188 24.2 116.167 24.2ZM116.711 24.152C116.69 24.152 116.668 24.1573 116.647 24.168C116.626 24.168 116.615 24.1787 116.615 24.2H116.711V24.152ZM116.999 24.152C116.978 24.152 116.967 24.1627 116.967 24.184C116.967 24.2053 116.978 24.216 116.999 24.216C117.01 24.216 117.015 24.2053 117.015 24.184C117.015 24.1627 117.01 24.152 116.999 24.152ZM117.927 24.072C117.906 24.072 117.895 24.088 117.895 24.12C117.895 24.1413 117.906 24.152 117.927 24.152C117.948 24.152 117.959 24.1413 117.959 24.12C117.959 24.088 117.948 24.072 117.927 24.072ZM117.223 24.072C117.223 24.0613 117.212 24.056 117.191 24.056C117.18 24.056 117.18 24.0613 117.191 24.072C117.191 24.0827 117.196 24.088 117.207 24.088C117.218 24.088 117.223 24.0827 117.223 24.072ZM117.527 24.072L117.575 24.024H117.527V24.072ZM120.148 26.536C120.148 26.408 120.159 26.28 120.18 26.152C120.212 26.024 120.228 25.8907 120.228 25.752C120.228 25.6667 120.212 25.608 120.18 25.576C120.159 25.5333 120.148 25.4693 120.148 25.384C120.148 25.2773 120.159 25.1813 120.18 25.096C120.212 25.0107 120.228 24.9093 120.228 24.792V24.616L120.148 24.584V24.504C120.148 24.4187 120.154 24.344 120.164 24.28C120.175 24.216 120.18 24.1467 120.18 24.072C120.18 23.9867 120.164 23.9227 120.132 23.88C120.111 23.8267 120.1 23.768 120.1 23.704C120.1 23.576 120.111 23.4213 120.132 23.24C120.154 23.048 120.17 22.8987 120.18 22.792V22.76V22.744C120.18 22.7333 120.175 22.712 120.164 22.68C120.154 22.6373 120.148 22.6107 120.148 22.6C120.148 22.5787 120.154 22.552 120.164 22.52C120.175 22.4773 120.18 22.4507 120.18 22.44V22.232C120.18 22.0827 120.175 21.9547 120.164 21.848C120.164 21.7413 120.159 21.6027 120.148 21.432C120.116 21.4 120.1 21.368 120.1 21.336C120.1 21.3253 120.106 21.3147 120.116 21.304C120.138 21.2827 120.148 21.272 120.148 21.272C120.148 21.2507 120.148 21.2133 120.148 21.16C120.159 21.096 120.164 21.0533 120.164 21.032C120.164 20.808 120.143 20.6053 120.1 20.424C120.1 20.3707 120.079 20.312 120.036 20.248C120.004 20.184 119.988 20.1253 119.988 20.072C119.988 20.04 120.01 19.992 120.052 19.928C120.095 19.864 120.138 19.832 120.18 19.832L122.836 19.864H122.98C123.023 19.864 123.092 19.864 123.188 19.864C123.295 19.8533 123.402 19.848 123.508 19.848C123.626 19.848 123.727 19.848 123.812 19.848C123.908 19.8373 123.972 19.832 124.004 19.832C124.026 19.832 124.047 19.832 124.068 19.832C124.09 19.8213 124.111 19.816 124.132 19.816C124.164 19.816 124.196 19.8107 124.228 19.8L124.26 19.704L124.324 19.832C124.324 19.8107 124.335 19.8 124.356 19.8H124.372C124.554 19.8 124.73 19.8267 124.9 19.88C125.082 19.9227 125.194 20.0507 125.236 20.264C125.247 20.2747 125.247 20.3173 125.236 20.392C125.236 20.4667 125.236 20.5093 125.236 20.52C125.247 20.5627 125.274 20.6053 125.316 20.648C125.359 20.68 125.391 20.7067 125.412 20.728C125.348 20.7493 125.258 20.76 125.14 20.76C125.023 20.76 124.954 20.7867 124.932 20.84H124.516C124.506 20.8187 124.452 20.8027 124.356 20.792C124.26 20.7707 124.207 20.76 124.196 20.76C124.186 20.76 124.159 20.7707 124.116 20.792C124.084 20.8133 124.058 20.8293 124.036 20.84C124.015 20.84 123.988 20.84 123.956 20.84C123.924 20.8293 123.898 20.824 123.876 20.824H124.004L123.956 20.76H122.756C122.66 20.792 122.586 20.808 122.532 20.808H122.452C122.442 20.808 122.431 20.8027 122.42 20.792C122.41 20.7813 122.404 20.7707 122.404 20.76C122.276 20.76 122.143 20.776 122.004 20.808C121.866 20.8293 121.727 20.84 121.588 20.84V20.808C121.588 20.7973 121.556 20.792 121.492 20.792C121.439 20.7813 121.391 20.7707 121.348 20.76H121.156C121.146 20.76 121.14 20.7547 121.14 20.744L121.124 20.728H120.692C120.692 21.0267 120.703 21.3253 120.724 21.624C120.756 21.912 120.772 22.2 120.772 22.488V23.096C120.751 23.1173 120.74 23.144 120.74 23.176V23.224C120.74 23.256 120.74 23.3253 120.74 23.432C120.751 23.5387 120.762 23.608 120.772 23.64H120.868C121.124 23.64 121.375 23.5973 121.62 23.512C121.866 23.416 122.116 23.3573 122.372 23.336C122.82 23.3147 123.274 23.2773 123.732 23.224C124.191 23.1707 124.644 23.16 125.092 23.192C125.039 23.16 124.98 23.1387 124.916 23.128C124.852 23.1173 124.794 23.1067 124.74 23.096C124.762 23.0853 124.794 23.08 124.836 23.08C124.879 23.0693 124.911 23.064 124.932 23.064H124.98C125.119 23.064 125.263 23.128 125.412 23.256C125.572 23.3733 125.652 23.5013 125.652 23.64C125.652 23.704 125.594 23.784 125.476 23.88C125.37 23.9653 125.284 24.0133 125.22 24.024H125.172C125.162 24.024 125.151 24.0187 125.14 24.008H125.092C124.954 24.008 124.831 24.0347 124.724 24.088C124.628 24.1307 124.516 24.152 124.388 24.152C124.324 24.152 124.287 24.1467 124.276 24.136C124.266 24.1147 124.234 24.104 124.18 24.104C124.074 24.104 123.999 24.1573 123.956 24.264C123.946 24.232 123.924 24.1947 123.892 24.152C123.871 24.1093 123.866 24.0667 123.876 24.024C123.876 24.0347 123.866 24.0453 123.844 24.056C123.823 24.056 123.812 24.0613 123.812 24.072C123.748 24.136 123.674 24.1787 123.588 24.2C123.503 24.2213 123.423 24.2693 123.348 24.344H123.316H123.3C123.247 24.312 123.194 24.296 123.14 24.296C123.098 24.2853 123.06 24.28 123.028 24.28C122.996 24.2693 122.97 24.2533 122.948 24.232C122.927 24.2107 122.927 24.168 122.948 24.104L122.724 24.2C122.746 24.2107 122.756 24.232 122.756 24.264V24.312C122.703 24.3333 122.655 24.344 122.612 24.344C122.57 24.344 122.522 24.344 122.468 24.344H122.324L122.372 24.312C122.33 24.2907 122.314 24.2747 122.324 24.264C122.335 24.2427 122.34 24.2213 122.34 24.2C122.127 24.2 121.898 24.2213 121.652 24.264C121.418 24.3067 121.199 24.3867 120.996 24.504C120.922 24.5467 120.879 24.6053 120.868 24.68C120.868 24.744 120.826 24.7867 120.74 24.808C120.794 25.0747 120.82 25.32 120.82 25.544C120.82 25.768 120.82 26.0187 120.82 26.296C120.82 26.328 120.82 26.3813 120.82 26.456C120.82 26.5307 120.815 26.6107 120.804 26.696C120.804 26.7707 120.804 26.8453 120.804 26.92C120.804 26.9947 120.804 27.048 120.804 27.08C120.794 27.1013 120.772 27.1547 120.74 27.24C120.719 27.336 120.698 27.3947 120.676 27.416C120.676 27.4267 120.671 27.432 120.66 27.432C120.66 27.432 120.66 27.4373 120.66 27.448V27.464C120.66 27.4533 120.639 27.432 120.596 27.4C120.554 27.3787 120.506 27.3467 120.452 27.304C120.41 27.2613 120.362 27.2187 120.308 27.176C120.266 27.144 120.239 27.112 120.228 27.08C120.196 26.9947 120.175 26.904 120.164 26.808C120.154 26.712 120.148 26.6213 120.148 26.536ZM122.452 24.264H122.468L122.452 24.216V24.264ZM122.596 24.2C122.575 24.2 122.564 24.2107 122.564 24.232C122.564 24.2533 122.575 24.264 122.596 24.264C122.618 24.264 122.628 24.2533 122.628 24.232C122.628 24.2107 122.618 24.2 122.596 24.2ZM123.14 24.152C123.119 24.152 123.098 24.1573 123.076 24.168C123.055 24.168 123.044 24.1787 123.044 24.2H123.14V24.152ZM123.428 24.152C123.407 24.152 123.396 24.1627 123.396 24.184C123.396 24.2053 123.407 24.216 123.428 24.216C123.439 24.216 123.444 24.2053 123.444 24.184C123.444 24.1627 123.439 24.152 123.428 24.152ZM124.356 24.072C124.335 24.072 124.324 24.088 124.324 24.12C124.324 24.1413 124.335 24.152 124.356 24.152C124.378 24.152 124.388 24.1413 124.388 24.12C124.388 24.088 124.378 24.072 124.356 24.072ZM123.652 24.072C123.652 24.0613 123.642 24.056 123.62 24.056C123.61 24.056 123.61 24.0613 123.62 24.072C123.62 24.0827 123.626 24.088 123.636 24.088C123.647 24.088 123.652 24.0827 123.652 24.072ZM123.956 24.072L124.004 24.024H123.956V24.072ZM126.722 26.248C126.722 26.1947 126.727 26.1467 126.738 26.104C126.759 26.0613 126.77 26.0133 126.77 25.96V25.944C126.77 25.9227 126.759 25.8587 126.738 25.752C126.716 25.6453 126.706 25.5813 126.706 25.56V25.496C126.706 25.0907 126.727 24.6853 126.77 24.28C126.823 23.864 126.85 23.4533 126.85 23.048C126.85 22.568 126.839 22.0987 126.818 21.64C126.796 21.1813 126.786 20.7173 126.786 20.248C126.754 20.248 126.69 20.2427 126.594 20.232C126.508 20.2213 126.466 20.1787 126.466 20.104V19.704C126.466 19.672 126.487 19.6453 126.53 19.624C126.583 19.592 126.636 19.5707 126.69 19.56C126.743 19.5387 126.796 19.5227 126.85 19.512C126.903 19.5013 126.93 19.4907 126.93 19.48C127.175 19.4373 127.426 19.416 127.682 19.416C127.938 19.4053 128.194 19.4 128.45 19.4H128.914C128.946 19.4 129.031 19.4053 129.17 19.416C129.308 19.416 129.458 19.4213 129.618 19.432C129.778 19.432 129.922 19.4373 130.05 19.448C130.188 19.448 130.274 19.448 130.306 19.448C130.498 19.448 130.684 19.496 130.866 19.592C131.047 19.6773 131.218 19.7893 131.378 19.928C131.538 20.056 131.676 20.2053 131.794 20.376C131.922 20.5467 132.018 20.7173 132.082 20.888C132.124 21.016 132.151 21.1547 132.162 21.304C132.172 21.4427 132.178 21.5813 132.178 21.72V21.848C132.178 21.8587 132.167 21.8853 132.146 21.928C132.124 21.9707 132.108 21.9973 132.098 22.008C132.066 22.136 132.039 22.2587 132.018 22.376C132.007 22.4827 131.959 22.5947 131.874 22.712C131.852 22.744 131.794 22.8133 131.698 22.92C131.612 23.016 131.554 23.0747 131.522 23.096C131.586 23.1813 131.66 23.288 131.746 23.416C131.831 23.544 131.911 23.6773 131.986 23.816C132.06 23.9547 132.124 24.0933 132.178 24.232C132.231 24.3707 132.268 24.4987 132.29 24.616C132.3 24.6267 132.3 24.6533 132.29 24.696C132.29 24.7387 132.29 24.7653 132.29 24.776C132.3 24.8187 132.311 24.8773 132.322 24.952C132.332 25.0267 132.338 25.0693 132.338 25.08C132.338 25.0907 132.343 25.112 132.354 25.144C132.375 25.1653 132.396 25.1813 132.418 25.192C132.418 25.224 132.434 25.24 132.466 25.24V25.256V25.288C132.444 25.3307 132.407 25.432 132.354 25.592C132.311 25.752 132.284 25.8533 132.274 25.896C132.21 26.12 132.087 26.3067 131.906 26.456C131.724 26.5947 131.516 26.7067 131.282 26.792C131.047 26.8667 130.807 26.92 130.562 26.952C130.316 26.984 130.098 27 129.906 27C129.682 27 129.447 26.984 129.202 26.952C128.967 26.92 128.743 26.8933 128.53 26.872C128.498 26.8507 128.455 26.84 128.402 26.84C128.359 26.8293 128.311 26.824 128.258 26.824C128.215 26.824 128.167 26.8187 128.114 26.808C128.071 26.7973 128.039 26.7653 128.018 26.712H127.746C127.714 26.712 127.698 26.7333 127.698 26.776C127.698 26.808 127.692 26.8507 127.682 26.904C127.682 26.9467 127.666 26.984 127.634 27.016C127.612 27.0587 127.57 27.08 127.506 27.08H127.426C127.415 27.0693 127.41 27.0587 127.41 27.048C127.41 27.0373 127.404 27.0267 127.394 27.016C127.394 27.016 127.394 27.0107 127.394 27C127.383 26.9787 127.372 26.952 127.362 26.92C127.34 26.888 127.292 26.84 127.218 26.776C127.154 26.7013 127.084 26.632 127.01 26.568C126.935 26.4933 126.866 26.4293 126.802 26.376C126.748 26.312 126.722 26.2693 126.722 26.248ZM129.81 23.88C129.522 23.88 129.25 23.912 128.994 23.976C128.748 24.0293 128.487 24.088 128.21 24.152C128.135 24.1733 128.076 24.184 128.034 24.184C128.002 24.1733 127.959 24.184 127.906 24.216C127.863 24.248 127.836 24.2853 127.826 24.328C127.826 24.3707 127.826 24.4187 127.826 24.472C127.826 24.5253 127.82 24.6373 127.81 24.808C127.81 24.968 127.81 25.0747 127.81 25.128C127.927 25.128 128.034 25.1227 128.13 25.112C128.236 25.0907 128.343 25.08 128.45 25.08C128.61 25.08 128.77 25.0907 128.93 25.112C129.09 25.1227 129.25 25.128 129.41 25.128C129.463 25.128 129.58 25.128 129.762 25.128C129.954 25.1173 130.151 25.1013 130.354 25.08C130.556 25.048 130.738 25 130.898 24.936C131.058 24.872 131.138 24.7813 131.138 24.664C131.138 24.5253 131.106 24.4133 131.042 24.328C130.978 24.2427 130.892 24.1733 130.786 24.12C130.69 24.0667 130.583 24.024 130.466 23.992C130.359 23.9493 130.258 23.912 130.162 23.88H129.81ZM127.586 20.456L127.778 22.744H127.874C127.927 22.744 127.964 22.744 127.986 22.744C128.018 22.744 128.066 22.7333 128.13 22.712C128.151 22.7013 128.172 22.6907 128.194 22.68C128.215 22.6587 128.236 22.6373 128.258 22.616C128.29 22.5947 128.316 22.5733 128.338 22.552H128.594C128.604 22.552 128.647 22.5467 128.722 22.536C128.807 22.5147 128.898 22.4933 128.994 22.472C129.09 22.44 129.186 22.4133 129.282 22.392C129.388 22.36 129.474 22.3333 129.538 22.312C129.57 22.3013 129.623 22.2853 129.698 22.264C129.783 22.2427 129.868 22.2213 129.954 22.2C130.039 22.168 130.119 22.1413 130.194 22.12C130.268 22.088 130.322 22.0667 130.354 22.056C130.428 22.024 130.514 21.9867 130.61 21.944C130.706 21.8907 130.791 21.832 130.866 21.768C130.951 21.6933 131.02 21.6187 131.074 21.544C131.138 21.4587 131.17 21.368 131.17 21.272C131.17 21.016 131.047 20.8187 130.802 20.68C130.556 20.5413 130.268 20.4453 129.938 20.392C129.618 20.3387 129.292 20.312 128.962 20.312C128.642 20.3013 128.402 20.296 128.242 20.296H127.714C127.692 20.296 127.666 20.3013 127.634 20.312C127.612 20.312 127.596 20.3173 127.586 20.328V20.376V20.456ZM133.347 23.192C133.347 22.488 133.475 21.832 133.731 21.224C133.997 20.6053 134.403 20.0667 134.947 19.608C134.989 19.576 135.048 19.5387 135.123 19.496C135.208 19.4533 135.288 19.4107 135.363 19.368C135.437 19.3147 135.507 19.2667 135.571 19.224C135.635 19.1813 135.677 19.144 135.699 19.112C136.029 18.9093 136.403 18.744 136.819 18.616C137.235 18.4773 137.645 18.408 138.051 18.408H138.211C138.264 18.4933 138.339 18.5413 138.435 18.552C138.541 18.5627 138.637 18.5787 138.723 18.6V18.648L138.755 18.68L138.803 18.728C138.813 18.728 138.808 18.7387 138.787 18.76C138.776 18.7707 138.771 18.7813 138.771 18.792V18.984C138.771 19.0587 138.776 19.1173 138.787 19.16C138.808 19.2027 138.819 19.2507 138.819 19.304C138.819 19.3147 138.813 19.32 138.803 19.32C138.803 19.32 138.803 19.3253 138.803 19.336V19.352C138.781 19.3733 138.765 19.4 138.755 19.432C138.733 19.496 138.723 19.5333 138.723 19.544C138.712 19.608 138.712 19.6667 138.723 19.72C138.744 19.7627 138.717 19.784 138.643 19.784C138.504 19.784 138.397 19.752 138.323 19.688C138.248 19.6133 138.141 19.576 138.003 19.576H137.987C137.965 19.5867 137.923 19.6027 137.859 19.624C137.805 19.6453 137.773 19.656 137.763 19.656C137.741 19.656 137.699 19.6613 137.635 19.672C137.581 19.672 137.523 19.672 137.459 19.672C137.395 19.672 137.336 19.672 137.283 19.672C137.229 19.6613 137.197 19.656 137.187 19.656C136.781 19.7733 136.429 19.9227 136.131 20.104C135.843 20.2853 135.592 20.504 135.379 20.76C135.165 21.016 134.979 21.304 134.819 21.624C134.669 21.944 134.536 22.296 134.419 22.68C134.429 22.776 134.424 22.9147 134.403 23.096C134.381 23.2773 134.371 23.4107 134.371 23.496C134.371 24.0187 134.456 24.4507 134.627 24.792C134.797 25.1227 135.117 25.4213 135.587 25.688C135.693 25.752 135.821 25.816 135.971 25.88C136.12 25.9333 136.264 25.96 136.403 25.96C136.413 25.96 136.451 25.9547 136.515 25.944C136.589 25.9333 136.664 25.9227 136.739 25.912C136.824 25.8907 136.899 25.8747 136.963 25.864C137.027 25.8427 137.059 25.8267 137.059 25.816C137.347 25.688 137.597 25.5493 137.811 25.4C138.024 25.2507 138.173 25.0053 138.259 24.664C138.269 24.664 138.28 24.6107 138.291 24.504C138.312 24.3867 138.328 24.3013 138.339 24.248C138.371 24.0453 138.419 23.8587 138.483 23.688C138.547 23.5173 138.579 23.3307 138.579 23.128C138.579 22.8507 138.531 22.632 138.435 22.472C138.349 22.312 138.253 22.1253 138.147 21.912C137.997 21.6347 137.875 21.368 137.779 21.112C137.683 20.856 137.635 20.5733 137.635 20.264V19.928L137.683 19.864C137.672 19.896 137.667 19.944 137.667 20.008C137.667 20.0613 137.672 20.1147 137.683 20.168C137.693 20.2213 137.709 20.2693 137.731 20.312C137.752 20.3547 137.784 20.376 137.827 20.376H137.859C137.869 20.376 137.875 20.3707 137.875 20.36C137.896 20.2747 137.912 20.1787 137.923 20.072C137.944 19.9653 137.955 19.8747 137.955 19.8H138.003C138.067 19.8 138.109 19.832 138.131 19.896C138.163 19.96 138.184 20.0293 138.195 20.104C138.216 20.168 138.237 20.232 138.259 20.296C138.28 20.36 138.317 20.392 138.371 20.392H138.403C138.413 20.392 138.429 20.3867 138.451 20.376C138.472 20.3653 138.488 20.36 138.499 20.36C138.552 20.3707 138.627 20.4133 138.723 20.488C138.819 20.552 138.925 20.584 139.043 20.584H139.123L139.187 20.552C139.283 20.5733 139.347 20.616 139.379 20.68C139.421 20.744 139.448 20.8133 139.459 20.888C139.469 20.952 139.475 21.0107 139.475 21.064C139.485 21.1173 139.512 21.144 139.555 21.144V21.08H139.603C139.603 21.1013 139.597 21.1333 139.587 21.176C139.587 21.2187 139.576 21.2453 139.555 21.256L139.747 21.496C139.757 21.496 139.768 21.4907 139.779 21.48C139.789 21.48 139.8 21.4747 139.811 21.464C139.832 21.4533 139.848 21.448 139.859 21.448C139.859 21.448 139.869 21.4693 139.891 21.512C139.923 21.544 139.955 21.5867 139.987 21.64C140.019 21.6827 140.051 21.7253 140.083 21.768C140.115 21.8107 140.131 21.8427 140.131 21.864V22.232C140.195 22.264 140.227 22.312 140.227 22.376C140.227 22.4293 140.269 22.4827 140.355 22.536C140.387 22.5573 140.403 22.584 140.403 22.616C140.403 22.6587 140.371 22.6853 140.307 22.696C140.253 22.7067 140.216 22.744 140.195 22.808C140.195 22.8507 140.189 22.904 140.179 22.968C140.168 23.032 140.163 23.0853 140.163 23.128C140.163 23.288 140.168 23.4533 140.179 23.624C140.2 23.784 140.211 23.944 140.211 24.104C140.211 24.2533 140.189 24.4027 140.147 24.552C140.104 24.6907 140.083 24.8347 140.083 24.984C140.083 25.0587 140.104 25.1173 140.147 25.16C140.189 25.192 140.211 25.24 140.211 25.304C140.211 25.336 140.189 25.3627 140.147 25.384C140.104 25.4053 140.051 25.4267 139.987 25.448C139.933 25.4587 139.88 25.4747 139.827 25.496C139.773 25.5067 139.731 25.5227 139.699 25.544C139.613 25.6187 139.544 25.6933 139.491 25.768C139.448 25.8427 139.379 25.9227 139.283 26.008C138.931 26.2853 138.525 26.536 138.067 26.76C137.619 26.984 137.165 27.096 136.707 27.096C136.493 27.096 136.296 27.0533 136.115 26.968C135.933 26.8827 135.741 26.808 135.539 26.744H135.459H135.395C135.032 26.616 134.717 26.424 134.451 26.168C134.195 25.912 133.981 25.624 133.811 25.304C133.651 24.984 133.533 24.6427 133.459 24.28C133.384 23.9067 133.347 23.544 133.347 23.192ZM138.803 22.104H138.851C138.883 22.104 138.915 22.0933 138.947 22.072C138.989 22.0507 139 22.0133 138.979 21.96L139.219 21.704L138.995 21.48C139.016 21.544 139.016 21.5813 138.995 21.592C138.973 21.6027 138.947 21.6293 138.915 21.672C138.893 21.7147 138.877 21.784 138.867 21.88C138.867 21.9653 138.845 22.0187 138.803 22.04L138.883 22.072L138.803 22.104ZM138.995 21.368C139.005 21.3467 139 21.336 138.979 21.336C138.968 21.336 138.968 21.3467 138.979 21.368C138.979 21.3893 138.979 21.4 138.979 21.4C138.989 21.4 138.995 21.3893 138.995 21.368ZM139.123 21.208C139.101 21.208 139.091 21.224 139.091 21.256C139.091 21.2773 139.101 21.288 139.123 21.288C139.144 21.288 139.155 21.2773 139.155 21.256C139.155 21.224 139.144 21.208 139.123 21.208ZM144.749 19.816C144.738 19.816 144.733 19.8107 144.733 19.8C144.712 19.7893 144.669 19.7787 144.605 19.768C144.552 19.7573 144.52 19.752 144.509 19.752C144.029 19.7413 143.56 19.736 143.101 19.736C142.653 19.7253 142.2 19.6827 141.741 19.608C141.741 19.5653 141.725 19.5333 141.693 19.512C141.661 19.4907 141.618 19.48 141.565 19.48C141.522 19.48 141.474 19.48 141.421 19.48C141.378 19.48 141.352 19.48 141.341 19.48C141.32 19.4693 141.293 19.4427 141.261 19.4C141.24 19.3467 141.202 19.336 141.149 19.368C141.128 19.3147 141.117 19.272 141.117 19.24C141.117 19.1973 141.117 19.1493 141.117 19.096C141.117 19.064 141.112 19.0373 141.101 19.016C141.101 18.984 141.128 18.9573 141.181 18.936C141.192 18.936 141.202 18.9413 141.213 18.952C141.234 18.9733 141.25 18.984 141.261 18.984H141.293H141.309C141.426 18.8987 141.565 18.856 141.725 18.856C141.938 18.856 142.157 18.8613 142.381 18.872C142.616 18.8827 142.84 18.8933 143.053 18.904C143.106 18.904 143.181 18.9093 143.277 18.92C143.373 18.92 143.464 18.92 143.549 18.92C143.656 18.9307 143.762 18.936 143.869 18.936L143.917 18.984C143.981 18.9947 144.04 19 144.093 19C144.146 19.0107 144.2 19.016 144.253 19.016C144.306 19.016 144.349 19.016 144.381 19.016H144.653C144.685 19.016 144.749 19.0213 144.845 19.032C144.952 19.032 145.064 19.0373 145.181 19.048C145.298 19.048 145.405 19.048 145.501 19.048C145.608 19.048 145.677 19.048 145.709 19.048C145.816 19.0587 145.912 19.064 145.997 19.064C146.093 19.0533 146.194 19.064 146.301 19.096C146.589 19.096 146.914 19.096 147.277 19.096C147.64 19.096 147.976 19.112 148.285 19.144C148.296 19.144 148.312 19.1493 148.333 19.16C148.365 19.16 148.386 19.1653 148.397 19.176C148.397 19.176 148.392 19.1867 148.381 19.208L148.365 19.224C148.418 19.224 148.493 19.224 148.589 19.224C148.685 19.2133 148.776 19.2133 148.861 19.224C148.957 19.2347 149.037 19.2613 149.101 19.304C149.176 19.3467 149.213 19.416 149.213 19.512C149.213 19.5973 149.186 19.656 149.133 19.688C149.08 19.7093 149.021 19.7253 148.957 19.736C148.904 19.736 148.85 19.7413 148.797 19.752C148.754 19.752 148.733 19.7787 148.733 19.832C148.722 19.832 148.696 19.8373 148.653 19.848C148.621 19.848 148.6 19.848 148.589 19.848C148.546 19.848 148.482 19.848 148.397 19.848C148.312 19.8373 148.258 19.8053 148.237 19.752L148.205 19.832H145.677C145.677 20.1413 145.698 20.456 145.741 20.776C145.794 21.0853 145.821 21.3947 145.821 21.704C145.821 21.7893 145.805 21.8693 145.773 21.944C145.752 22.008 145.741 22.0827 145.741 22.168C145.741 22.2213 145.757 22.28 145.789 22.344C145.832 22.3973 145.853 22.4827 145.853 22.6C145.853 22.6107 145.848 22.648 145.837 22.712C145.826 22.776 145.821 22.8133 145.821 22.824C145.821 22.8453 145.826 22.9147 145.837 23.032C145.848 23.1387 145.853 23.2027 145.853 23.224V23.24V23.256C145.842 23.256 145.837 23.2613 145.837 23.272C145.826 23.2827 145.821 23.2933 145.821 23.304V23.32C145.821 23.8427 145.842 24.3707 145.885 24.904C145.938 25.4267 145.992 25.9547 146.045 26.488C146.024 26.552 146.008 26.6213 145.997 26.696C145.997 26.76 146.002 26.8187 146.013 26.872C145.992 26.8933 145.933 26.9147 145.837 26.936C145.752 26.9467 145.693 26.9573 145.661 26.968H145.629C145.554 26.968 145.485 26.9413 145.421 26.888C145.368 26.824 145.32 26.7493 145.277 26.664C145.234 26.5787 145.197 26.4987 145.165 26.424C145.144 26.3387 145.133 26.2693 145.133 26.216C145.048 25.8213 145 25.4373 144.989 25.064C144.989 24.68 144.978 24.2907 144.957 23.896C144.936 23.2133 144.914 22.536 144.893 21.864C144.882 21.192 144.84 20.5147 144.765 19.832L144.749 19.816ZM145.789 22.984C145.768 22.984 145.757 23 145.757 23.032C145.757 23.0533 145.768 23.064 145.789 23.064C145.81 23.064 145.821 23.0533 145.821 23.032C145.821 23 145.81 22.984 145.789 22.984ZM148.301 19.672C148.29 19.672 148.285 19.688 148.285 19.72C148.285 19.7413 148.29 19.752 148.301 19.752C148.322 19.752 148.333 19.7413 148.333 19.72C148.333 19.688 148.322 19.672 148.301 19.672Z" fill="#1E2127"/>
</svg>
