<svg width="46" height="46" viewBox="0 0 46 46" fill="none" xmlns="http://www.w3.org/2000/svg">
<rect width="46" height="46" rx="2" fill="white"/>
<path d="M29.4005 16.627C27.733 14.9243 25.4278 14 23.0736 14C18.0708 14 14.049 18.0378 14.0981 22.9514C14.0981 24.5081 14.5395 26.0162 15.2752 27.3784L14 32L18.7575 30.7838C20.0817 31.5135 21.5531 31.8541 23.0245 31.8541C27.9782 31.8541 32 27.8162 32 22.9027C32 20.5189 31.0681 18.2811 29.4005 16.627ZM23.0736 30.3459C21.7493 30.3459 20.4251 30.0054 19.297 29.3243L19.0027 29.1784L16.158 29.9081L16.8937 27.1351L16.6975 26.8432C14.5395 23.3892 15.5695 18.8162 19.1008 16.6757C22.6322 14.5351 27.1935 15.5568 29.3515 19.0595C31.5095 22.5622 30.4796 27.0865 26.9482 29.227C25.8202 29.9568 24.4469 30.3459 23.0736 30.3459ZM27.3896 24.9459L26.8501 24.7027C26.8501 24.7027 26.0654 24.3622 25.5749 24.1189C25.5259 24.1189 25.4768 24.0703 25.4278 24.0703C25.2807 24.0703 25.1826 24.1189 25.0845 24.1676C25.0845 24.1676 25.0354 24.2162 24.3488 24.9946C24.2997 25.0919 24.2016 25.1405 24.1035 25.1405H24.0545C24.0054 25.1405 23.9074 25.0919 23.8583 25.0432L23.6131 24.9459C23.0736 24.7027 22.5831 24.4108 22.1907 24.0216C22.0926 23.9243 21.9455 23.827 21.8474 23.7297C21.5041 23.3892 21.1608 23 20.9155 22.5622L20.8665 22.4649C20.8174 22.4162 20.8174 22.3676 20.7684 22.2703C20.7684 22.173 20.7684 22.0757 20.8174 22.027C20.8174 22.027 21.0136 21.7838 21.1608 21.6378C21.2589 21.5405 21.3079 21.3946 21.406 21.2973C21.5041 21.1514 21.5531 20.9568 21.5041 20.8108C21.455 20.5676 20.8665 19.2541 20.7193 18.9622C20.6213 18.8162 20.5232 18.7676 20.376 18.7189H20.2289C20.1308 18.7189 19.9837 18.7189 19.8365 18.7189C19.7384 18.7189 19.6403 18.7676 19.5422 18.7676L19.4932 18.8162C19.3951 18.8649 19.297 18.9622 19.1989 19.0108C19.1008 19.1081 19.0518 19.2054 18.9537 19.3027C18.6104 19.7405 18.4142 20.2757 18.4142 20.8108C18.4142 21.2 18.5123 21.5892 18.6594 21.9297L18.7084 22.0757C19.1499 23 19.7384 23.827 20.5232 24.5568L20.7193 24.7514C20.8665 24.8973 21.0136 24.9946 21.1117 25.1405C22.1417 26.0162 23.3188 26.6486 24.6431 26.9892C24.7902 27.0378 24.9864 27.0378 25.1335 27.0865C25.2807 27.0865 25.4768 27.0865 25.624 27.0865C25.8692 27.0865 26.1635 26.9892 26.3597 26.8919C26.5068 26.7946 26.6049 26.7946 26.703 26.6973L26.8011 26.6C26.8992 26.5027 26.9973 26.4541 27.0954 26.3568C27.1935 26.2595 27.2916 26.1622 27.3406 26.0649C27.4387 25.8703 27.4877 25.627 27.5368 25.3838C27.5368 25.2865 27.5368 25.1405 27.5368 25.0432C27.5368 25.0432 27.4877 24.9946 27.3896 24.9459Z" fill="#1E2127"/>
</svg>
