<svg width="123" height="24" viewBox="0 0 123 24" fill="none" xmlns="http://www.w3.org/2000/svg">
<rect width="123" height="24" rx="2" fill="#9EB6DD"/>
<path fill-rule="evenodd" clip-rule="evenodd" d="M18.6275 17.942C19.4663 18.309 19.7808 17.5401 19.7808 17.5401L22 6.39168C21.9825 5.64029 20.969 6.09462 20.969 6.09462L8.54497 10.9699C8.54497 10.9699 7.95085 11.1796 8.00328 11.5465C8.0557 11.9135 8.5275 12.0882 8.5275 12.0882L11.6554 13.1367C11.6554 13.1367 12.599 16.2296 12.7912 16.8237C12.9659 17.4003 13.1232 17.4178 13.1232 17.4178C13.2979 17.4877 13.4552 17.3654 13.4552 17.3654L15.4822 15.5306L18.6275 17.942ZM19.1692 8.36622C19.1692 8.36622 19.6061 8.1041 19.5886 8.36622C19.5886 8.36622 19.6585 8.40116 19.4313 8.6458C19.2216 8.85549 14.2765 13.2939 13.6125 13.888C13.56 13.923 13.5251 13.9754 13.5251 14.0453L13.3329 15.6878C13.2979 15.8626 13.0708 15.8801 13.0183 15.7228L12.1971 13.0318C12.1621 12.9269 12.1971 12.8046 12.3019 12.7347L19.1692 8.36622Z" fill="#1E2127"/>
<path d="M38.092 10.716C38.092 11.084 38.048 11.444 37.96 11.796C37.88 12.148 37.752 12.468 37.576 12.756C37.4 13.036 37.184 13.264 36.928 13.44C36.672 13.608 36.368 13.692 36.016 13.692C35.648 13.692 35.356 13.588 35.14 13.38C34.932 13.164 34.804 12.92 34.756 12.648H34.696C34.552 12.944 34.34 13.192 34.06 13.392C33.78 13.592 33.428 13.692 33.004 13.692C32.396 13.692 31.924 13.488 31.588 13.08C31.26 12.672 31.096 12.132 31.096 11.46C31.096 10.932 31.2 10.468 31.408 10.068C31.616 9.66 31.908 9.34 32.284 9.108C32.668 8.876 33.12 8.76 33.64 8.76C33.992 8.76 34.336 8.792 34.672 8.856C35.016 8.912 35.284 8.976 35.476 9.048L35.356 11.484C35.348 11.628 35.344 11.732 35.344 11.796C35.344 11.852 35.344 11.892 35.344 11.916C35.344 12.332 35.416 12.608 35.56 12.744C35.712 12.88 35.888 12.948 36.088 12.948C36.336 12.948 36.544 12.848 36.712 12.648C36.888 12.44 37.02 12.168 37.108 11.832C37.204 11.488 37.252 11.112 37.252 10.704C37.252 9.96 37.1 9.332 36.796 8.82C36.5 8.3 36.088 7.904 35.56 7.632C35.04 7.36 34.448 7.224 33.784 7.224C33.104 7.224 32.5 7.332 31.972 7.548C31.444 7.764 31 8.068 30.64 8.46C30.288 8.852 30.02 9.316 29.836 9.852C29.652 10.38 29.56 10.964 29.56 11.604C29.56 12.388 29.7 13.056 29.98 13.608C30.26 14.152 30.668 14.568 31.204 14.856C31.748 15.136 32.412 15.276 33.196 15.276C33.684 15.276 34.148 15.22 34.588 15.108C35.036 15.004 35.432 14.888 35.776 14.76V15.576C35.432 15.72 35.044 15.836 34.612 15.924C34.188 16.02 33.716 16.068 33.196 16.068C32.252 16.068 31.444 15.892 30.772 15.54C30.1 15.188 29.584 14.684 29.224 14.028C28.872 13.364 28.696 12.568 28.696 11.64C28.696 10.896 28.812 10.208 29.044 9.576C29.276 8.936 29.612 8.384 30.052 7.92C30.492 7.448 31.024 7.084 31.648 6.828C32.28 6.564 32.992 6.432 33.784 6.432C34.408 6.432 34.98 6.532 35.5 6.732C36.028 6.924 36.484 7.208 36.868 7.584C37.26 7.952 37.56 8.4 37.768 8.928C37.984 9.456 38.092 10.052 38.092 10.716ZM32.032 11.484C32.032 11.996 32.132 12.368 32.332 12.6C32.54 12.832 32.816 12.948 33.16 12.948C33.608 12.948 33.928 12.78 34.12 12.444C34.32 12.108 34.436 11.672 34.468 11.136L34.54 9.636C34.436 9.604 34.304 9.576 34.144 9.552C33.984 9.528 33.82 9.516 33.652 9.516C33.26 9.516 32.944 9.612 32.704 9.804C32.464 9.996 32.292 10.244 32.188 10.548C32.084 10.844 32.032 11.156 32.032 11.484ZM39.393 14.748C39.393 14.832 39.501 14.952 39.477 15.12C39.489 15.12 39.585 15.096 39.585 15.096H39.609C39.621 15.096 39.633 15.096 39.633 15.096L39.681 15.12C39.681 15.12 39.693 15.12 39.705 15.12H39.717C39.945 14.892 40.317 14.868 40.641 14.868C40.689 14.868 40.965 14.892 41.001 14.892C41.085 14.892 41.469 14.88 41.553 14.88V14.928H41.433C41.541 14.952 41.781 15.12 41.829 15.12C41.841 15.12 41.841 15.12 41.841 15.12C41.853 15.12 41.889 15.096 41.901 15.096C41.937 15.084 42.129 15.072 42.165 15.06C42.813 15.036 43.461 14.94 44.097 14.94C44.097 14.892 43.965 14.868 43.953 14.868V14.844C43.953 14.796 44.073 14.784 44.073 14.712L44.061 14.688C43.905 14.508 43.677 14.304 43.425 14.304H41.985L41.961 14.256C41.961 14.244 41.985 14.208 41.985 14.208C41.985 14.208 41.973 14.196 41.961 14.184C41.949 14.16 41.937 14.016 41.937 13.98C41.937 13.848 41.901 13.068 41.901 12.864C41.901 12.84 41.889 12.456 41.889 12.324C41.889 11.664 41.985 11.184 42.105 10.512C42.081 10.44 42.165 10.032 42.249 9.984L42.201 9.948V9.792C42.585 9.792 42.957 9.876 43.353 9.876C43.497 9.876 43.641 9.876 43.773 9.792H43.665V9.756C43.665 9.756 43.701 9.744 43.713 9.744C43.737 9.756 43.953 9.78 43.977 9.78C43.977 9.78 43.989 9.78 44.001 9.78C44.145 9.78 44.397 9.78 44.469 9.6C44.481 9.564 44.493 9.504 44.529 9.492C44.529 9.48 44.481 9.444 44.469 9.432C44.409 9.372 44.229 9.216 44.205 9.192C44.145 9.144 44.001 9.18 43.977 9.108C43.665 9.132 43.329 9.072 43.005 9.048C42.933 9.036 42.273 8.988 42.201 8.988C41.469 8.94 40.737 8.928 40.017 8.88C39.861 8.868 39.741 8.784 39.585 8.784C39.561 8.784 39.477 8.784 39.441 8.784C39.477 8.82 39.489 8.832 39.489 8.88L39.477 8.904C39.465 8.928 39.393 9 39.357 9.024L39.393 9.048C39.405 9.06 39.513 9.072 39.537 9.072V9.108C39.537 9.204 39.441 9.264 39.441 9.36V9.372C39.453 9.372 39.477 9.42 39.477 9.432C39.489 9.432 39.513 9.432 39.513 9.432C39.585 9.456 39.525 9.6 39.609 9.6C39.741 9.6 39.621 9.492 39.777 9.492H40.413L40.449 9.516L40.413 9.552C40.437 9.54 40.485 9.54 40.497 9.552C40.545 9.552 40.749 9.576 40.785 9.588H40.617C40.773 9.684 40.929 9.672 41.097 9.672C41.145 9.672 41.337 9.66 41.373 9.66C41.409 9.564 41.457 9.564 41.529 9.564C41.589 9.564 41.625 9.564 41.661 9.6C41.661 9.648 41.673 9.84 41.673 9.876C41.673 10.224 41.601 10.56 41.553 10.896C41.553 10.92 41.565 10.956 41.517 10.98C41.409 11.676 41.397 12.384 41.397 13.104C41.397 13.248 41.409 13.92 41.409 14.064C41.409 14.112 41.433 14.268 41.433 14.304V14.316C41.433 14.328 41.433 14.328 41.433 14.328C41.133 14.34 40.737 14.352 40.413 14.4C40.209 14.424 39.669 14.46 39.513 14.544C39.441 14.568 39.501 14.64 39.477 14.688C39.477 14.688 39.393 14.736 39.393 14.748ZM43.281 9.78C43.305 9.78 43.305 9.84 43.281 9.84C43.245 9.84 43.245 9.78 43.281 9.78ZM43.449 9.78C43.473 9.792 43.473 9.804 43.449 9.804C43.425 9.804 43.425 9.78 43.449 9.78ZM43.221 9.708V9.744H43.041C43.089 9.708 43.173 9.708 43.221 9.708ZM42.753 9.72C42.741 9.744 42.705 9.744 42.693 9.72C42.681 9.696 42.753 9.696 42.753 9.72ZM42.813 9.696L42.837 9.72H42.813V9.696ZM42.225 9.636H42.465C42.465 9.648 42.429 9.66 42.429 9.66C42.417 9.66 42.321 9.684 42.273 9.696C42.237 9.696 42.225 9.66 42.225 9.636ZM41.001 9.576C41.013 9.552 41.025 9.54 41.061 9.54V9.6L41.001 9.576ZM41.121 9.564C41.121 9.492 41.217 9.504 41.253 9.504C41.253 9.564 41.217 9.6 41.169 9.6C41.157 9.6 41.145 9.6 41.145 9.6C41.133 9.6 41.121 9.576 41.121 9.576V9.564ZM41.409 9.576C41.397 9.6 41.385 9.6 41.373 9.576C41.373 9.552 41.409 9.552 41.409 9.576ZM50.9471 10.152C51.0191 10.872 51.1391 11.592 51.2111 12.312C51.2831 12.936 51.2471 13.596 51.3551 14.208C51.3551 14.256 51.4391 14.556 51.4511 14.592C51.4751 14.712 51.4151 14.736 51.4751 14.832C51.5591 14.94 51.9311 14.904 51.8591 15.144L51.8831 15.156C51.9551 15.156 52.0631 14.652 52.0631 14.544C52.0631 14.196 51.9551 13.872 51.9791 13.512L51.7031 11.676C51.7391 11.472 51.6431 11.232 51.6311 11.028C51.5471 10.452 51.4751 9.888 51.4511 9.312C51.4391 9.048 51.4751 8.928 51.1871 8.928C51.1631 8.928 51.0911 8.928 51.0671 8.928C50.9351 8.988 51.0431 9.348 50.8271 9.54C50.8151 9.564 50.6351 9.72 50.5991 9.744C50.5391 9.804 50.2871 10.056 50.2511 10.092C49.6271 10.776 49.0511 11.472 48.4751 12.192C48.4631 12.204 48.4391 12.228 48.4391 12.228H48.4271H48.4031C48.1751 11.988 47.9351 11.64 47.7071 11.412C47.6711 11.376 47.4431 11.136 47.4191 11.112C47.0951 10.764 46.8191 10.368 46.5431 9.984C46.3391 9.696 46.0871 9.456 45.8711 9.18C45.7511 9.06 45.7871 8.784 45.6431 8.724C45.6431 8.724 45.6191 8.724 45.6071 8.724C45.5591 8.724 45.0791 8.712 45.0791 8.868C45.0791 8.988 45.1871 9.072 45.2591 9.18C45.2471 10.272 45.3311 11.352 45.3671 12.432C45.4031 13.176 45.4031 13.908 45.4391 14.64C45.4751 14.784 45.6191 14.916 45.7631 14.916C45.8471 14.916 45.8351 14.712 45.8951 14.64C45.9431 14.304 45.9791 13.92 45.9791 13.572C45.9191 12.396 45.7871 11.16 45.7871 9.984C45.8831 9.984 46.3631 10.644 46.4591 10.764C46.4951 10.812 46.7951 11.184 46.8311 11.232C47.1431 11.604 47.5151 11.952 47.8511 12.288C48.0431 12.48 48.1751 12.744 48.4031 12.9C48.4871 12.948 48.6311 12.984 48.7271 13.008L48.7511 13.02L48.7631 13.008C48.8471 12.924 48.7631 12.816 48.9431 12.636C49.2791 12.288 49.6031 11.952 49.9271 11.58C50.0591 11.424 50.1671 11.184 50.3351 11.064L50.7431 10.452C50.7431 10.44 50.8751 10.14 50.9351 10.14L50.9471 10.152ZM53.164 13.536C53.164 13.812 53.128 14.664 53.512 14.832C53.584 14.868 53.776 14.868 53.86 14.868C53.86 14.856 53.896 14.64 53.824 14.592C53.824 14.556 53.824 14.4 53.824 14.352C53.824 13.824 53.848 13.284 53.848 12.744C53.848 12.48 53.824 12.228 53.824 11.964C53.824 11.796 53.836 11.832 53.944 11.76C54.328 11.772 54.7 11.712 55.084 11.676C55.336 11.64 55.612 11.52 55.852 11.52C55.864 11.52 55.864 11.52 55.864 11.52C55.888 11.52 55.972 11.556 55.984 11.556H56.008C56.236 11.556 56.368 11.496 56.572 11.472C56.692 11.448 56.728 11.484 56.836 11.436L56.812 11.412C57.136 11.22 57.544 11.208 57.796 10.884L57.736 10.848C57.844 10.692 57.952 10.524 57.952 10.332C57.952 10.14 57.844 9.996 57.796 9.84C57.4 8.64 55.876 8.448 54.796 8.424C54.628 8.424 53.896 8.424 53.74 8.424C53.62 8.352 53.668 8.136 53.464 8.136C53.14 8.136 53.128 8.208 53.128 8.544C53.08 8.604 52.948 8.604 52.948 8.712C52.948 8.82 53.128 8.808 53.164 8.928C53.164 9.24 53.176 10.716 53.176 11.028C53.176 11.04 53.176 11.112 53.176 11.136C53.176 11.292 53.092 11.448 53.092 11.604V11.616C53.116 11.628 53.176 11.688 53.176 11.7C53.176 11.76 53.176 12.012 53.176 12.06C53.176 12.552 53.164 13.044 53.164 13.536ZM56.284 11.664C56.188 11.664 56.092 11.604 56.008 11.7C56.044 11.7 56.116 11.712 56.128 11.712C56.272 11.712 56.692 11.664 56.776 11.52H56.572C56.536 11.628 56.284 11.484 56.284 11.664ZM53.8 10.944C53.812 10.296 53.764 9.648 53.764 8.988C53.764 8.952 53.764 8.832 53.764 8.832L53.824 8.808C53.848 8.808 54.04 8.796 54.088 8.796C54.82 8.796 55.492 8.916 56.2 9.108C56.272 9.12 56.428 9.12 56.488 9.216L56.872 9.396C57.016 9.576 57.22 9.684 57.22 9.948C57.22 9.96 57.208 10.044 57.208 10.068C56.968 10.368 56.512 10.476 56.152 10.56C56.032 10.596 55.384 10.74 55.252 10.764H55.24C55.168 10.776 54.904 10.812 54.856 10.824C54.748 10.992 54.4 10.944 54.232 10.968C54.136 10.992 53.92 10.992 53.908 10.992L53.8 10.944ZM54.52 9.084C54.52 9.252 54.664 9.264 54.784 9.264C54.784 9.144 54.76 9.012 54.616 9.012C54.544 9.012 54.52 9.024 54.52 9.084ZM58.7115 9.78C58.6755 9.78 58.6755 9.72 58.7115 9.72C58.7355 9.72 58.7355 9.78 58.7115 9.78ZM58.6515 9.768V9.78C58.6635 9.792 58.7115 9.792 58.7115 9.804L58.7235 9.828L58.7115 9.84C58.7115 9.84 58.6635 9.888 58.6515 9.888L58.6395 11.328V11.508C58.6275 11.64 58.6275 12.288 58.6275 12.432C58.6275 12.48 58.6515 12.78 58.6515 12.816C58.6515 12.828 58.6515 13.044 58.6515 13.128C58.6515 13.536 58.6275 13.944 58.6275 14.352C58.6275 14.364 58.6275 14.46 58.6275 14.484C58.7835 14.556 58.6035 14.868 59.0235 15.06C59.0475 15.072 59.1075 15.096 59.1195 15.096C59.1195 15.096 59.1315 15.096 59.1435 15.096C59.2395 15.096 59.3355 15.06 59.4435 15.06C59.4675 15.06 59.5875 15.06 59.6115 15.06C60.2715 15.132 60.8715 15.216 61.5075 15.216C61.5315 15.216 61.7115 15.216 61.7475 15.216L61.7955 15.18C61.7955 15.18 61.8195 15.168 61.8315 15.168V15.18C61.8435 15.192 61.8675 15.228 61.8675 15.24C61.8675 15.228 61.8915 15.192 61.8915 15.18L61.9035 15.168C61.9875 15.168 62.0475 15.252 62.1435 15.252C62.2395 15.252 62.5155 15.24 62.5395 15.096L62.5995 14.796C62.6115 14.784 62.6715 14.736 62.6835 14.712C62.7075 14.64 62.7555 14.484 62.8035 14.4C62.8035 14.364 62.8275 14.304 62.8275 14.304C62.8275 14.304 62.7915 14.28 62.7675 14.28C62.4315 14.208 62.0835 14.208 61.7475 14.208C61.1235 14.208 60.4995 14.304 59.8755 14.304C59.6955 14.304 59.5995 14.304 59.4075 14.28C59.3355 14.244 59.3235 14.148 59.3235 14.064C59.3235 14.064 59.3235 14.052 59.3235 14.04C59.3355 14.016 59.3475 13.944 59.3475 13.92C59.3475 13.86 59.3475 13.524 59.3475 13.44C59.3475 13.032 59.3235 12.624 59.3235 12.216C59.3235 11.52 59.4795 10.848 59.4795 10.152C59.4795 10.128 59.4675 10.08 59.4675 10.068C59.4435 9.804 59.3715 9.408 59.2395 9.144C59.2275 9.12 59.1915 9.084 59.1795 9.072C59.1195 9.168 58.9995 9.156 58.9515 9.192C58.7955 9.312 58.6515 9.564 58.6515 9.768ZM63.9303 15.888C63.9903 15.888 64.1583 16.056 64.1703 16.068C64.2783 16.176 64.3503 16.536 64.4463 16.536H64.4703C64.5663 16.392 64.5543 16.248 64.6383 16.092C64.7943 15.828 64.9023 15.48 64.9023 15.156C64.9023 15.132 64.9023 15.06 64.9023 15.048C64.9023 15 64.8783 14.628 64.8663 14.58C64.8663 14.58 64.8663 14.568 64.8663 14.556C64.8663 14.352 64.9863 14.1 65.0103 13.872C65.0223 13.824 65.0223 13.692 65.0463 13.644C65.1183 13.512 65.8743 13.488 66.0663 13.476C66.3303 13.44 66.5943 13.356 66.8583 13.356C67.0263 13.356 67.0743 13.908 67.1583 14.088C67.2183 14.268 67.3863 14.448 67.5543 14.544C67.5903 14.568 67.7823 14.652 67.8423 14.688C67.8903 14.724 67.9623 14.832 68.0343 14.832C68.0703 14.832 68.1543 14.832 68.1663 14.784C68.1543 14.544 68.2263 14.448 68.2263 14.232C68.2263 14.016 68.1183 13.812 68.0583 13.62C67.9503 13.272 67.8303 12.936 67.6983 12.6L66.9903 11.22V11.136C66.9903 11.112 66.6183 10.32 66.4383 9.984C66.4263 9.948 66.2343 9.648 66.2103 9.612C66.1503 9.516 66.0423 9.168 65.9823 9.12C65.9463 9.084 65.7783 9.084 65.7303 9.084C65.4663 9.084 65.3223 9.312 65.2743 9.552L64.0263 12.42C63.8103 12.912 63.6543 13.464 63.5223 13.992C63.4863 14.148 63.3063 14.868 63.2703 15.024C63.2703 15.06 63.2703 15.24 63.2703 15.288C63.2703 15.744 63.3423 15.768 63.7623 15.984H63.7743H63.7863C63.8343 15.972 63.8943 15.888 63.9303 15.888ZM64.4223 14.676C64.4223 14.688 64.4103 14.688 64.3983 14.676C64.3983 14.64 64.4343 14.64 64.4223 14.676ZM64.4943 14.64C64.5183 14.64 64.5183 14.688 64.4943 14.688C64.4703 14.688 64.4703 14.64 64.4943 14.64ZM64.5183 14.52C64.5423 14.532 64.5423 14.568 64.5183 14.58C64.5063 14.592 64.5063 14.52 64.5183 14.52ZM65.5743 10.56C65.7063 10.56 65.8023 10.788 65.8383 10.872C66.0543 11.4 66.1983 11.856 66.4743 12.336V12.384C66.4743 12.384 66.2703 12.432 66.1863 12.444C65.8623 12.504 65.5383 12.624 65.2263 12.624V12.528C65.2263 12.528 65.4423 11.28 65.5383 10.752L65.5743 10.644C65.5743 10.632 65.5743 10.56 65.5743 10.56ZM74.0747 12.144C74.0627 12.144 74.0627 12.132 74.0507 12.12V12.108C74.0507 12.096 74.0507 12.096 74.0507 12.096L74.0747 12.144ZM71.6507 11.916C71.6627 11.916 71.6627 11.916 71.6627 11.916C71.7107 11.916 71.7947 11.94 71.7947 12C71.7947 12.012 71.7827 12.036 71.7707 12.036L71.6507 11.916ZM73.8227 11.22C73.8227 11.136 73.8467 11.088 73.8467 11.028C73.8467 10.992 73.8467 10.944 73.7867 10.944C73.7867 10.968 73.7867 11.016 73.7867 11.028C73.7867 11.1 73.7867 11.136 73.8227 11.22ZM71.2067 11.076C71.0867 11.076 70.9667 10.908 70.9667 10.8C71.0987 10.8 71.2067 10.968 71.2067 11.076ZM70.6067 11.244C70.6067 11.244 70.4747 11.124 70.4267 11.076C70.3427 10.98 70.1267 10.752 70.1267 10.608C70.1387 10.608 70.1627 10.608 70.1627 10.608C70.2227 10.62 70.3307 10.656 70.3307 10.656V10.8H70.4027L70.6307 11.04C70.6427 11.136 70.7387 11.16 70.7387 11.244H70.6067ZM69.7907 10.224C69.7547 10.224 69.7547 10.176 69.7907 10.176C69.8147 10.176 69.8147 10.224 69.7907 10.224ZM69.8987 9.588C69.8867 9.6 69.8507 9.564 69.8747 9.552C69.8867 9.552 69.9107 9.564 69.8987 9.588ZM69.8987 9.528C69.8747 9.528 69.8747 9.456 69.8987 9.456C69.9347 9.456 69.9347 9.528 69.8987 9.528ZM69.8387 9.528C69.8147 9.528 69.8147 9.456 69.8387 9.456C69.8747 9.456 69.8747 9.528 69.8387 9.528ZM70.0787 9.444C70.0427 9.444 70.0427 9.372 70.0787 9.372C70.1027 9.372 70.1027 9.444 70.0787 9.444ZM68.9867 9.3C68.8787 9.3 68.9147 9.552 68.9147 9.6C68.9147 9.648 68.9147 10.032 68.9747 10.044L69.0587 9.756L69.0827 9.732C69.0827 9.792 69.0827 10.044 69.0827 10.104C69.0827 10.452 69.0347 10.788 69.0587 11.136C69.0227 11.196 69.0707 11.376 68.9867 11.388C68.9867 11.46 68.9867 11.76 68.9867 11.82C68.9867 12.336 69.1067 12.804 69.1067 13.296C69.0587 13.296 69.0107 13.26 68.9867 13.2C68.9867 13.212 68.9867 13.248 68.9867 13.26C68.9867 13.584 69.0587 13.908 69.0587 14.208C69.0587 14.484 69.0707 14.628 69.0227 14.868C69.0107 14.952 68.9627 15.024 68.9627 15.108C68.9627 15.12 69.1667 15.252 69.2027 15.252C69.2147 15.252 69.3107 15.192 69.3107 15.192C69.3347 15.18 69.4067 15.168 69.4307 15.168C69.5987 14.784 69.6107 14.424 69.6107 14.016C69.6107 13.968 69.5987 13.788 69.5987 13.788C69.5987 13.776 69.5747 13.632 69.5747 13.608C69.5747 13.596 69.5987 13.56 69.5987 13.56V13.2C69.5987 13.2 69.5867 13.176 69.5747 13.176C69.5627 13.152 69.5507 13.02 69.5507 13.008L69.5987 13.02L69.6107 13.008C69.6107 12.924 69.5027 12.864 69.4907 12.768C69.4907 12.768 69.5147 12.708 69.5267 12.672L69.5507 12.624C69.5507 12.588 69.4907 12.528 69.4907 12.48C69.4907 12.468 69.4907 12.444 69.4907 12.444C69.4907 12.432 69.5267 12.312 69.5267 12.288C69.5027 12.096 69.4427 11.904 69.4427 11.676H69.5267C69.5267 11.568 69.4547 11.472 69.4547 11.34C69.4547 11.328 69.4547 11.256 69.4547 11.244L69.5267 11.184C69.5147 11.136 69.5147 10.872 69.5267 10.8C69.5267 10.728 69.5987 10.284 69.6467 10.284C69.6707 10.284 70.4027 11.208 70.5107 11.328C70.7867 11.628 71.0387 11.94 71.3267 12.216C71.3747 12.372 71.6027 12.528 71.7107 12.648C71.9507 12.912 72.2507 13.176 72.4427 13.464C72.5267 13.584 72.4907 13.632 72.6227 13.752C72.8267 13.98 73.1027 14.208 73.2947 14.46C73.2947 14.46 73.3187 14.508 73.3187 14.52V14.532C73.3187 14.64 73.2587 14.748 73.2587 14.868C73.2587 14.964 73.4627 14.964 73.5227 15.048C73.5347 15.024 73.6187 14.94 73.6307 14.928C73.6307 14.928 73.6427 14.928 73.6547 14.928H73.6787C73.6787 14.94 73.7747 15.024 73.7867 15.048C73.8587 14.94 73.9907 14.952 73.9907 14.832C73.9907 14.82 73.9907 14.748 73.9907 14.748C73.9787 14.736 73.9307 14.592 73.9307 14.58C73.9307 14.556 73.9787 14.412 73.9907 14.4C74.0387 14.172 74.0747 13.908 74.0747 13.68C74.0747 13.668 74.0507 13.62 74.0507 13.608C74.0507 13.596 74.0627 13.512 74.0627 13.488H74.1467C74.1467 13.332 74.0747 13.212 74.0747 13.056C74.0747 12.948 74.1347 12.852 74.1347 12.732C74.1347 12.66 74.1347 12.552 74.0507 12.504V12.24L74.0747 12.216L74.1347 12.264L74.1947 12.144C74.1827 11.916 74.2187 11.712 74.2187 11.484C74.2187 11.412 74.1587 11.376 74.1587 11.292C74.1587 11.28 74.1587 11.256 74.1587 11.244C74.1707 11.208 74.2067 11.028 74.2187 10.992C74.2307 10.956 74.2547 10.944 74.2907 10.944C74.3387 10.752 74.3627 10.548 74.3627 10.344H74.3387V10.284L74.4827 10.14L74.4947 10.128L74.4827 10.104C74.4827 10.104 74.4587 10.056 74.4467 10.044V10.032C74.4707 10.02 74.5067 9.984 74.5187 9.984C74.5187 9.96 74.5427 9.84 74.5427 9.816C74.5427 9.72 74.5307 9.144 74.3987 9.06C74.3507 9.192 74.1347 9.156 74.1347 9.312C74.0987 9.3 74.0867 9.288 74.0507 9.288C74.0387 9.288 74.0147 9.3 74.0147 9.3L74.0747 9.348C73.8587 9.312 73.7267 9.6 73.7267 9.792C73.7267 9.792 73.7147 9.9 73.7507 9.9C73.7627 9.9 73.7747 9.876 73.7867 9.876H73.7987C73.8707 9.876 73.9067 10.08 73.9067 10.14C73.9067 10.224 73.8707 10.32 73.8707 10.416C73.8707 10.428 73.8707 10.476 73.8707 10.488C73.8707 10.488 73.9667 10.452 73.9667 10.428V10.224C74.1107 10.224 74.1107 10.38 74.1107 10.512C74.0867 10.512 74.0627 10.476 74.0147 10.476V10.512C74.0627 10.512 74.1347 10.716 74.1347 10.74C74.1347 10.848 74.0027 10.944 73.9667 11.04C73.8587 11.508 73.8227 12.024 73.8467 12.504L73.7867 12.528C73.7867 12.624 73.7867 12.804 73.7507 12.876C73.7507 12.888 73.7027 12.96 73.7027 12.972C73.6907 12.996 73.7027 13.212 73.7027 13.236C73.6907 13.272 73.6787 13.344 73.6307 13.344V13.584C73.6307 13.608 73.5587 13.62 73.5467 13.62C73.5347 13.62 73.5227 13.608 73.5227 13.608L73.1987 13.296L73.1747 13.236C73.0547 12.984 72.6827 12.912 72.5867 12.648C72.5387 12.528 72.4787 12.576 72.3827 12.48C72.2867 12.372 72.2387 12.24 72.1787 12.12C72.1667 12.096 71.5787 11.58 71.6027 11.568L71.2787 11.244V11.208C71.4227 11.208 71.3867 11.304 71.5067 11.328C71.5067 11.22 71.2907 10.992 71.2427 10.932C71.1827 10.86 70.8947 10.572 70.8347 10.512C70.7507 10.512 70.7987 10.488 70.7507 10.428C70.7027 10.368 70.6067 10.38 70.5467 10.32C70.5227 10.296 70.4627 10.236 70.4627 10.224C70.4867 10.176 70.5227 10.188 70.5707 10.176C70.5707 10.176 70.5707 10.164 70.5707 10.152C70.5707 10.056 70.4627 9.948 70.3667 9.96C70.3667 9.948 70.2587 9.636 70.2587 9.588C70.2227 9.504 70.1027 9.408 70.0787 9.372C70.0187 9.408 69.8987 9.348 69.8987 9.276C69.8987 9.264 69.8987 9.264 69.8987 9.264C69.9107 9.264 69.9227 9.228 69.9347 9.228C69.7907 9.168 69.5507 8.94 69.3827 8.94H69.3707C69.3707 8.952 69.2987 9.024 69.2867 9.024C69.1787 9.072 69.1067 9.024 69.0227 9.144C69.0107 9.18 68.9627 9.264 68.9747 9.264L68.9867 9.3ZM77.4188 9.624C77.5268 10.644 77.5268 11.652 77.5628 12.672C77.5988 13.26 77.5628 13.824 77.6948 14.412C77.7068 14.556 77.8508 14.976 78.0668 14.976H78.0908C78.1388 14.964 78.3188 14.928 78.3548 14.904C78.3428 14.82 78.3428 14.712 78.3788 14.616C78.3068 13.824 78.2108 13.02 78.2108 12.24V12.228C78.2108 12.216 78.2348 12.192 78.2348 12.192C78.2348 12.192 78.2348 12.192 78.2348 12.18V12.168C78.2348 12.144 78.2108 11.904 78.2108 11.868C78.2108 11.856 78.2348 11.712 78.2348 11.7C78.2348 11.52 78.1508 11.448 78.1508 11.376C78.1508 11.256 78.2108 11.148 78.2108 11.028C78.2108 10.56 78.1028 10.092 78.1028 9.624H79.9988L80.0228 9.564C80.0588 9.648 80.2268 9.636 80.2868 9.636C80.2988 9.636 80.3828 9.624 80.3948 9.624C80.3828 9.468 80.7548 9.648 80.7548 9.384C80.7548 9.096 80.2868 9.168 80.1188 9.168C80.1188 9.168 80.1548 9.132 80.1428 9.132C80.1308 9.12 80.0708 9.108 80.0588 9.108C79.5908 9.06 79.0028 9.072 78.5708 9.072C78.4148 9.024 78.2828 9.048 78.1268 9.036C78.0428 9.036 77.4188 9.024 77.3348 9.012C77.3108 9.012 77.1548 9.012 77.1308 9.012C77.0348 9.012 76.7828 8.988 76.7828 8.988L76.7468 8.952C76.7468 8.952 76.3148 8.928 76.1348 8.928C75.8108 8.916 75.4628 8.892 75.1388 8.892C75.0068 8.892 74.9228 8.916 74.8268 8.988H74.8148H74.7908C74.7788 8.976 74.7308 8.952 74.7308 8.952C74.6588 8.976 74.6828 9.024 74.6828 9.072C74.6828 9.156 74.6828 9.204 74.7068 9.276C74.7788 9.228 74.8148 9.348 74.8508 9.36C74.8988 9.372 75.1628 9.312 75.1508 9.456C75.8348 9.564 76.5188 9.552 77.2268 9.564C77.2388 9.564 77.3708 9.588 77.3948 9.6C77.3948 9.6 77.4188 9.612 77.4188 9.624ZM78.1868 11.988C78.2108 11.988 78.2108 12.048 78.1868 12.048C78.1508 12.048 78.1508 11.988 78.1868 11.988ZM80.0708 9.504C80.1068 9.504 80.1068 9.564 80.0708 9.564C80.0588 9.564 80.0588 9.504 80.0708 9.504ZM81.3587 12.144C81.3587 13.2 81.8027 14.424 82.8947 14.808C82.8947 14.808 82.9907 14.796 83.0027 14.808C83.3027 14.904 83.5547 15.072 83.8787 15.072C84.5627 15.072 85.2827 14.676 85.8107 14.256C85.9547 14.136 85.9907 14.016 86.1227 13.908C86.2067 13.836 86.5067 13.836 86.5067 13.728C86.5067 13.632 86.4107 13.596 86.4107 13.488C86.4107 13.26 86.5067 13.056 86.5067 12.828C86.5067 12.588 86.4707 12.336 86.4707 12.096C86.4707 12.036 86.4947 11.916 86.4947 11.856C86.5187 11.76 86.6507 11.772 86.6507 11.712C86.6507 11.676 86.6507 11.676 86.6147 11.652C86.4947 11.568 86.5427 11.472 86.4467 11.424C86.4467 11.376 86.4467 11.196 86.4467 11.148C86.4347 11.088 86.2307 10.848 86.2427 10.836C86.2307 10.836 86.1947 10.86 86.1827 10.86C86.1827 10.86 86.1707 10.872 86.1587 10.872L86.0147 10.692C86.0507 10.68 86.0507 10.596 86.0507 10.56H86.0147V10.608C85.8947 10.608 86.0387 10.224 85.7387 10.164L85.6907 10.188C85.6787 10.188 85.6427 10.188 85.6307 10.188C85.4627 10.188 85.3067 10.032 85.2227 10.02C85.2107 10.02 85.1627 10.044 85.1507 10.044C85.1507 10.044 85.1387 10.044 85.1267 10.044C84.9587 10.044 85.0427 9.6 84.8507 9.6H84.8147C84.8147 9.708 84.7907 9.9 84.7547 10.02C84.7547 10.02 84.7307 10.032 84.7187 10.032C84.5987 10.032 84.5867 9.744 84.6107 9.648L84.5747 9.696C84.5747 9.72 84.5747 9.888 84.5747 9.948C84.5747 10.416 84.7307 10.764 84.9587 11.184C85.1147 11.496 85.2827 11.688 85.2827 12.096C85.2827 12.396 85.1507 12.636 85.1027 12.936C85.0907 13.02 85.0547 13.248 85.0427 13.248C84.9227 13.752 84.5747 13.92 84.1427 14.112C84.1307 14.136 83.6987 14.22 83.6507 14.22C83.4467 14.22 83.1947 14.112 83.0387 14.016C82.3307 13.62 82.1267 13.152 82.1267 12.372C82.1267 12.252 82.1747 11.904 82.1627 11.76C82.5107 10.608 83.0387 9.828 84.2387 9.492C84.2867 9.504 84.5987 9.504 84.6707 9.492C84.6827 9.492 84.8147 9.444 84.8387 9.432H84.8507C85.0547 9.432 85.1267 9.588 85.3307 9.588C85.4387 9.588 85.3787 9.504 85.3907 9.408C85.3907 9.384 85.4507 9.264 85.4507 9.264C85.4507 9.264 85.4627 9.24 85.4627 9.228C85.4627 9.144 85.4267 9.096 85.4267 8.988C85.4267 8.952 85.4267 8.856 85.4267 8.844C85.4267 8.832 85.4627 8.796 85.4507 8.796C85.4507 8.784 85.3907 8.736 85.3907 8.736V8.7C85.2707 8.664 85.0907 8.688 85.0067 8.556C85.0067 8.556 84.9107 8.556 84.8867 8.556C84.2867 8.556 83.6147 8.784 83.1227 9.084C83.0507 9.18 82.7027 9.36 82.5587 9.456C81.7547 10.14 81.3587 11.1 81.3587 12.144ZM85.5107 11.304L85.4507 11.28C85.5107 11.256 85.4987 11.064 85.5347 11.004C85.5827 10.944 85.6307 10.956 85.5947 10.86L85.7627 11.028L85.5827 11.22C85.6187 11.292 85.5347 11.328 85.4867 11.328C85.4747 11.328 85.4627 11.328 85.4507 11.328L85.5107 11.304ZM85.5947 10.776C85.5947 10.8 85.5827 10.8 85.5827 10.776C85.5707 10.752 85.6067 10.752 85.5947 10.776ZM85.6907 10.656C85.7267 10.656 85.7267 10.716 85.6907 10.716C85.6547 10.716 85.6547 10.656 85.6907 10.656ZM87.4142 14.652C87.4142 14.784 87.4262 14.928 87.4742 15.06C87.5102 15.144 87.7982 15.324 87.7982 15.348C87.7982 15.348 87.8102 15.324 87.8102 15.312C87.8342 15.276 87.8942 15.096 87.9062 15.06C87.9062 14.976 87.9182 14.556 87.9182 14.472C87.9182 14.064 87.9302 13.752 87.8582 13.356C87.9782 13.332 87.9422 13.188 88.0502 13.128C88.3502 12.96 88.7343 12.9 89.0582 12.9C89.0582 12.936 89.0222 12.96 89.0822 12.984L89.0462 13.008C89.0582 13.008 89.1422 13.008 89.1542 13.008C89.2382 13.008 89.2862 13.02 89.3702 12.984C89.3702 12.984 89.3702 12.96 89.3702 12.948C89.3702 12.924 89.3702 12.912 89.3462 12.9L89.5142 12.828C89.4662 13.02 89.6343 12.912 89.7782 13.008H89.7903H89.8143C89.9222 12.9 90.0662 12.9 90.1623 12.804C90.1623 12.792 90.2103 12.78 90.2103 12.768C90.1982 12.828 90.2582 12.9 90.2703 12.948C90.3062 12.864 90.3543 12.828 90.4383 12.828C90.5102 12.828 90.4983 12.864 90.5942 12.864C90.7862 12.864 90.9182 12.756 91.1223 12.756H91.1583C91.1583 12.756 91.2063 12.768 91.2183 12.768C91.3142 12.756 91.5423 12.576 91.5423 12.48C91.5423 12.276 91.2423 12.048 91.0383 12.048C91.0263 12.048 91.0022 12.048 91.0022 12.048C90.9782 12.048 90.8823 12.06 90.8583 12.072C90.9303 12.084 91.0383 12.096 91.1223 12.144C90.4502 12.096 89.7422 12.216 89.0822 12.252C88.6982 12.276 88.3382 12.48 87.9542 12.48C87.9422 12.48 87.8942 12.48 87.8822 12.48C87.8702 12.432 87.8582 12.216 87.8582 12.168C87.8582 12.156 87.8582 12.144 87.8582 12.132C87.8582 12.096 87.8582 12.096 87.8822 12.072C87.8822 12 87.8822 11.688 87.8822 11.616C87.8822 11.184 87.8222 10.74 87.8222 10.296H88.1462C88.1462 10.296 88.1582 10.32 88.1702 10.32C88.1942 10.32 88.3022 10.32 88.3142 10.32C88.3742 10.332 88.4942 10.344 88.4942 10.356V10.38C88.6982 10.38 88.9143 10.32 89.1062 10.32C89.1062 10.32 89.1302 10.356 89.1422 10.356C89.1422 10.356 89.1783 10.356 89.2022 10.356C89.2623 10.356 89.2982 10.344 89.3702 10.32H90.2703L90.3062 10.368H90.2103C90.2342 10.368 90.3062 10.38 90.3303 10.38C90.3543 10.368 90.4383 10.32 90.4502 10.32C90.4623 10.32 90.6783 10.344 90.6903 10.38H91.0022C91.0263 10.296 91.2663 10.32 91.3622 10.296C91.3263 10.272 91.2423 10.2 91.2302 10.14C91.2302 10.128 91.2423 9.96 91.2302 9.948C91.1702 9.636 90.8463 9.6 90.5822 9.6H90.5703C90.5582 9.6 90.5463 9.612 90.5463 9.624L90.4983 9.528L90.4742 9.6C90.4742 9.6 90.3543 9.612 90.3062 9.624C90.2103 9.624 89.6822 9.648 89.5383 9.648H89.4302L87.4382 9.624C87.3782 9.624 87.2942 9.756 87.2942 9.804C87.2942 9.888 87.3782 9.984 87.3782 10.068C87.4142 10.224 87.4262 10.368 87.4262 10.524C87.4262 10.56 87.4142 10.68 87.4142 10.704C87.4022 10.704 87.3782 10.752 87.3782 10.752C87.3782 10.776 87.4022 10.812 87.4142 10.824C87.4262 11.076 87.4382 11.196 87.4382 11.424C87.4382 11.472 87.4382 11.568 87.4382 11.58C87.4382 11.592 87.4142 11.676 87.4142 11.7C87.4142 11.712 87.4382 11.796 87.4382 11.808V11.82C87.4382 11.832 87.4382 11.832 87.4382 11.844C87.4262 12 87.3782 12.336 87.3782 12.528C87.3782 12.624 87.4382 12.672 87.4382 12.804C87.4382 12.912 87.4142 13.008 87.4142 13.128C87.4142 13.14 87.4142 13.176 87.4142 13.188L87.4742 13.212C87.4742 13.212 87.4742 13.308 87.4742 13.344C87.4742 13.512 87.4142 13.632 87.4142 13.788C87.4142 13.908 87.4742 13.944 87.4742 14.064C87.4742 14.268 87.4142 14.46 87.4142 14.652ZM89.1422 12.912L89.1542 12.948H89.1422V12.912ZM89.2502 12.9C89.2862 12.9 89.2862 12.948 89.2502 12.948C89.2262 12.948 89.2262 12.9 89.2502 12.9ZM89.6582 12.864V12.9H89.5862C89.5862 12.864 89.6343 12.864 89.6582 12.864ZM89.8742 12.864C89.8863 12.864 89.8863 12.912 89.8742 12.912C89.8382 12.912 89.8382 12.864 89.8742 12.864ZM90.5703 12.804C90.5942 12.804 90.5942 12.864 90.5703 12.864C90.5463 12.864 90.5463 12.804 90.5703 12.804ZM90.0422 12.804C90.0422 12.816 90.0182 12.816 90.0182 12.804C90.0062 12.792 90.0422 12.792 90.0422 12.804ZM90.2703 12.768H90.3062L90.2703 12.804V12.768ZM92.2363 14.652C92.2363 14.784 92.2483 14.928 92.2963 15.06C92.3323 15.144 92.6203 15.324 92.6203 15.348C92.6203 15.348 92.6323 15.324 92.6323 15.312C92.6563 15.276 92.7163 15.096 92.7283 15.06C92.7283 14.976 92.7403 14.556 92.7403 14.472C92.7403 14.064 92.7523 13.752 92.6803 13.356C92.8003 13.332 92.7643 13.188 92.8723 13.128C93.1723 12.96 93.5563 12.9 93.8803 12.9C93.8803 12.936 93.8443 12.96 93.9043 12.984L93.8683 13.008C93.8803 13.008 93.9643 13.008 93.9763 13.008C94.0603 13.008 94.1083 13.02 94.1923 12.984C94.1923 12.984 94.1923 12.96 94.1923 12.948C94.1923 12.924 94.1923 12.912 94.1683 12.9L94.3363 12.828C94.2883 13.02 94.4563 12.912 94.6003 13.008H94.6123H94.6363C94.7443 12.9 94.8883 12.9 94.9843 12.804C94.9843 12.792 95.0323 12.78 95.0323 12.768C95.0203 12.828 95.0803 12.9 95.0923 12.948C95.1283 12.864 95.1763 12.828 95.2603 12.828C95.3323 12.828 95.3203 12.864 95.4163 12.864C95.6083 12.864 95.7403 12.756 95.9443 12.756H95.9803C95.9803 12.756 96.0283 12.768 96.0403 12.768C96.1363 12.756 96.3643 12.576 96.3643 12.48C96.3643 12.276 96.0643 12.048 95.8603 12.048C95.8483 12.048 95.8243 12.048 95.8243 12.048C95.8003 12.048 95.7043 12.06 95.6803 12.072C95.7523 12.084 95.8603 12.096 95.9443 12.144C95.2723 12.096 94.5643 12.216 93.9043 12.252C93.5203 12.276 93.1603 12.48 92.7763 12.48C92.7643 12.48 92.7163 12.48 92.7043 12.48C92.6923 12.432 92.6803 12.216 92.6803 12.168C92.6803 12.156 92.6803 12.144 92.6803 12.132C92.6803 12.096 92.6803 12.096 92.7043 12.072C92.7043 12 92.7043 11.688 92.7043 11.616C92.7043 11.184 92.6443 10.74 92.6443 10.296H92.9683C92.9683 10.296 92.9803 10.32 92.9923 10.32C93.0163 10.32 93.1243 10.32 93.1363 10.32C93.1963 10.332 93.3163 10.344 93.3163 10.356V10.38C93.5203 10.38 93.7363 10.32 93.9283 10.32C93.9283 10.32 93.9523 10.356 93.9643 10.356C93.9643 10.356 94.0003 10.356 94.0243 10.356C94.0843 10.356 94.1203 10.344 94.1923 10.32H95.0923L95.1283 10.368H95.0323C95.0563 10.368 95.1283 10.38 95.1523 10.38C95.1763 10.368 95.2603 10.32 95.2723 10.32C95.2843 10.32 95.5003 10.344 95.5123 10.38H95.8243C95.8483 10.296 96.0883 10.32 96.1843 10.296C96.1483 10.272 96.0643 10.2 96.0523 10.14C96.0523 10.128 96.0643 9.96 96.0523 9.948C95.9923 9.636 95.6683 9.6 95.4043 9.6H95.3923C95.3803 9.6 95.3683 9.612 95.3683 9.624L95.3203 9.528L95.2963 9.6C95.2963 9.6 95.1763 9.612 95.1283 9.624C95.0323 9.624 94.5043 9.648 94.3603 9.648H94.2523L92.2603 9.624C92.2003 9.624 92.1163 9.756 92.1163 9.804C92.1163 9.888 92.2003 9.984 92.2003 10.068C92.2363 10.224 92.2483 10.368 92.2483 10.524C92.2483 10.56 92.2363 10.68 92.2363 10.704C92.2243 10.704 92.2003 10.752 92.2003 10.752C92.2003 10.776 92.2243 10.812 92.2363 10.824C92.2483 11.076 92.2603 11.196 92.2603 11.424C92.2603 11.472 92.2603 11.568 92.2603 11.58C92.2603 11.592 92.2363 11.676 92.2363 11.7C92.2363 11.712 92.2603 11.796 92.2603 11.808V11.82C92.2603 11.832 92.2603 11.832 92.2603 11.844C92.2483 12 92.2003 12.336 92.2003 12.528C92.2003 12.624 92.2603 12.672 92.2603 12.804C92.2603 12.912 92.2363 13.008 92.2363 13.128C92.2363 13.14 92.2363 13.176 92.2363 13.188L92.2963 13.212C92.2963 13.212 92.2963 13.308 92.2963 13.344C92.2963 13.512 92.2363 13.632 92.2363 13.788C92.2363 13.908 92.2963 13.944 92.2963 14.064C92.2963 14.268 92.2363 14.46 92.2363 14.652ZM93.9643 12.912L93.9763 12.948H93.9643V12.912ZM94.0723 12.9C94.1083 12.9 94.1083 12.948 94.0723 12.948C94.0483 12.948 94.0483 12.9 94.0723 12.9ZM94.4803 12.864V12.9H94.4083C94.4083 12.864 94.4563 12.864 94.4803 12.864ZM94.6963 12.864C94.7083 12.864 94.7083 12.912 94.6963 12.912C94.6603 12.912 94.6603 12.864 94.6963 12.864ZM95.3923 12.804C95.4163 12.804 95.4163 12.864 95.3923 12.864C95.3683 12.864 95.3683 12.804 95.3923 12.804ZM94.8643 12.804C94.8643 12.816 94.8403 12.816 94.8403 12.804C94.8283 12.792 94.8643 12.792 94.8643 12.804ZM95.0923 12.768H95.1283L95.0923 12.804V12.768ZM97.1663 14.436C97.1663 14.508 97.5743 14.832 97.6463 14.94C97.6463 14.94 97.6943 15.048 97.6943 15.06C97.6943 15.06 97.7423 15.06 97.7543 15.06C97.9583 15.06 97.8503 14.784 97.9343 14.784H98.1383C98.2103 14.928 98.4263 14.832 98.5223 14.904C98.8463 14.94 99.2183 15 99.5543 15C100.142 15 101.126 14.844 101.33 14.172C101.342 14.112 101.45 13.776 101.474 13.716C101.474 13.716 101.474 13.704 101.474 13.692V13.68C101.462 13.68 101.438 13.656 101.438 13.644C101.414 13.632 101.378 13.572 101.378 13.56C101.378 13.548 101.354 13.392 101.342 13.332C101.342 13.32 101.354 13.224 101.342 13.212C101.294 12.864 100.97 12.336 100.766 12.072C100.814 12.036 100.994 11.832 101.03 11.784C101.162 11.616 101.15 11.448 101.198 11.256C101.21 11.244 101.258 11.148 101.258 11.136C101.258 11.136 101.258 11.064 101.258 11.04C101.258 10.836 101.246 10.608 101.186 10.416C101.006 9.912 100.418 9.348 99.8543 9.336C99.7583 9.324 98.9183 9.3 98.8103 9.3C98.7983 9.3 98.5463 9.3 98.4623 9.3C98.0783 9.3 97.6943 9.3 97.3223 9.36C97.3103 9.396 96.9743 9.42 96.9743 9.528V9.828C96.9743 9.936 97.1663 9.936 97.2143 9.936C97.2143 10.632 97.2623 11.328 97.2623 12.036C97.2623 12.648 97.1543 13.26 97.1543 13.872C97.1543 13.884 97.1543 13.908 97.1543 13.92C97.1543 13.944 97.2023 14.172 97.2023 14.208C97.2023 14.208 97.2023 14.208 97.2023 14.22C97.2023 14.292 97.1663 14.364 97.1663 14.436ZM99.4823 12.66C99.5183 12.66 99.7103 12.66 99.7463 12.66C100.034 12.768 100.478 12.84 100.478 13.248C100.478 13.596 99.3503 13.596 99.1823 13.596C98.9423 13.596 98.7023 13.56 98.4623 13.56C98.3063 13.56 98.1503 13.596 97.9823 13.596C97.9823 13.524 97.9943 13.176 97.9943 13.104C97.9943 13.032 97.9943 12.96 98.0543 12.912C98.1263 12.864 98.1743 12.888 98.2823 12.864C98.6903 12.768 99.0503 12.66 99.4823 12.66ZM97.8143 10.032V9.996C97.8263 9.984 97.8863 9.972 97.9103 9.972C97.9583 9.972 98.2343 9.972 98.3063 9.972C98.7983 9.972 100.502 9.924 100.502 10.704C100.502 10.992 100.118 11.196 99.8903 11.292C99.8063 11.328 99.3743 11.46 99.2783 11.484C99.0983 11.544 98.6063 11.664 98.5703 11.664H98.3783C98.3783 11.664 98.2823 11.76 98.2223 11.784C98.1263 11.808 98.1143 11.808 98.0303 11.808C98.0183 11.808 97.9703 11.808 97.9583 11.808L97.8143 10.092C97.8143 10.08 97.8143 10.044 97.8143 10.032ZM102.135 12.144C102.135 13.2 102.579 14.424 103.671 14.808C103.671 14.808 103.767 14.796 103.779 14.808C104.079 14.904 104.331 15.072 104.655 15.072C105.339 15.072 106.059 14.676 106.587 14.256C106.731 14.136 106.767 14.016 106.899 13.908C106.983 13.836 107.283 13.836 107.283 13.728C107.283 13.632 107.187 13.596 107.187 13.488C107.187 13.26 107.283 13.056 107.283 12.828C107.283 12.588 107.247 12.336 107.247 12.096C107.247 12.036 107.271 11.916 107.271 11.856C107.295 11.76 107.427 11.772 107.427 11.712C107.427 11.676 107.427 11.676 107.391 11.652C107.271 11.568 107.319 11.472 107.223 11.424C107.223 11.376 107.223 11.196 107.223 11.148C107.211 11.088 107.007 10.848 107.019 10.836C107.007 10.836 106.971 10.86 106.959 10.86C106.959 10.86 106.947 10.872 106.935 10.872L106.791 10.692C106.827 10.68 106.827 10.596 106.827 10.56H106.791V10.608C106.671 10.608 106.815 10.224 106.515 10.164L106.467 10.188C106.455 10.188 106.419 10.188 106.407 10.188C106.239 10.188 106.083 10.032 105.999 10.02C105.987 10.02 105.939 10.044 105.927 10.044C105.927 10.044 105.915 10.044 105.903 10.044C105.735 10.044 105.819 9.6 105.627 9.6H105.591C105.591 9.708 105.567 9.9 105.531 10.02C105.531 10.02 105.507 10.032 105.495 10.032C105.375 10.032 105.363 9.744 105.387 9.648L105.351 9.696C105.351 9.72 105.351 9.888 105.351 9.948C105.351 10.416 105.507 10.764 105.735 11.184C105.891 11.496 106.059 11.688 106.059 12.096C106.059 12.396 105.927 12.636 105.879 12.936C105.867 13.02 105.831 13.248 105.819 13.248C105.699 13.752 105.351 13.92 104.919 14.112C104.907 14.136 104.475 14.22 104.427 14.22C104.223 14.22 103.971 14.112 103.815 14.016C103.107 13.62 102.903 13.152 102.903 12.372C102.903 12.252 102.951 11.904 102.939 11.76C103.287 10.608 103.815 9.828 105.015 9.492C105.063 9.504 105.375 9.504 105.447 9.492C105.459 9.492 105.591 9.444 105.615 9.432H105.627C105.831 9.432 105.903 9.588 106.107 9.588C106.215 9.588 106.155 9.504 106.167 9.408C106.167 9.384 106.227 9.264 106.227 9.264C106.227 9.264 106.239 9.24 106.239 9.228C106.239 9.144 106.203 9.096 106.203 8.988C106.203 8.952 106.203 8.856 106.203 8.844C106.203 8.832 106.239 8.796 106.227 8.796C106.227 8.784 106.167 8.736 106.167 8.736V8.7C106.047 8.664 105.867 8.688 105.783 8.556C105.783 8.556 105.687 8.556 105.663 8.556C105.063 8.556 104.391 8.784 103.899 9.084C103.827 9.18 103.479 9.36 103.335 9.456C102.531 10.14 102.135 11.1 102.135 12.144ZM106.287 11.304L106.227 11.28C106.287 11.256 106.275 11.064 106.311 11.004C106.359 10.944 106.407 10.956 106.371 10.86L106.539 11.028L106.359 11.22C106.395 11.292 106.311 11.328 106.263 11.328C106.251 11.328 106.239 11.328 106.227 11.328L106.287 11.304ZM106.371 10.776C106.371 10.8 106.359 10.8 106.359 10.776C106.347 10.752 106.383 10.752 106.371 10.776ZM106.467 10.656C106.503 10.656 106.503 10.716 106.467 10.716C106.431 10.716 106.431 10.656 106.467 10.656ZM110.699 9.624C110.807 10.644 110.807 11.652 110.843 12.672C110.879 13.26 110.843 13.824 110.975 14.412C110.987 14.556 111.131 14.976 111.347 14.976H111.371C111.419 14.964 111.599 14.928 111.635 14.904C111.623 14.82 111.623 14.712 111.659 14.616C111.587 13.824 111.491 13.02 111.491 12.24V12.228C111.491 12.216 111.515 12.192 111.515 12.192C111.515 12.192 111.515 12.192 111.515 12.18V12.168C111.515 12.144 111.491 11.904 111.491 11.868C111.491 11.856 111.515 11.712 111.515 11.7C111.515 11.52 111.431 11.448 111.431 11.376C111.431 11.256 111.491 11.148 111.491 11.028C111.491 10.56 111.383 10.092 111.383 9.624H113.279L113.303 9.564C113.339 9.648 113.507 9.636 113.567 9.636C113.579 9.636 113.663 9.624 113.675 9.624C113.663 9.468 114.035 9.648 114.035 9.384C114.035 9.096 113.567 9.168 113.399 9.168C113.399 9.168 113.435 9.132 113.423 9.132C113.411 9.12 113.351 9.108 113.339 9.108C112.871 9.06 112.283 9.072 111.851 9.072C111.695 9.024 111.563 9.048 111.407 9.036C111.323 9.036 110.699 9.024 110.615 9.012C110.591 9.012 110.435 9.012 110.411 9.012C110.315 9.012 110.063 8.988 110.063 8.988L110.027 8.952C110.027 8.952 109.595 8.928 109.415 8.928C109.091 8.916 108.743 8.892 108.419 8.892C108.287 8.892 108.203 8.916 108.107 8.988H108.095H108.071C108.059 8.976 108.011 8.952 108.011 8.952C107.939 8.976 107.963 9.024 107.963 9.072C107.963 9.156 107.963 9.204 107.987 9.276C108.059 9.228 108.095 9.348 108.131 9.36C108.179 9.372 108.443 9.312 108.431 9.456C109.115 9.564 109.799 9.552 110.507 9.564C110.519 9.564 110.651 9.588 110.675 9.6C110.675 9.6 110.699 9.612 110.699 9.624ZM111.467 11.988C111.491 11.988 111.491 12.048 111.467 12.048C111.431 12.048 111.431 11.988 111.467 11.988ZM113.351 9.504C113.387 9.504 113.387 9.564 113.351 9.564C113.339 9.564 113.339 9.504 113.351 9.504Z" fill="#1E2127"/>
</svg>
