<svg width="15" height="14" viewBox="0 0 15 14" fill="none" xmlns="http://www.w3.org/2000/svg">
<path fill-rule="evenodd" clip-rule="evenodd" d="M11.1275 12.9422C11.9663 13.3091 12.2808 12.5403 12.2808 12.5403L14.5 1.3918C14.4825 0.640414 13.469 1.09474 13.469 1.09474L1.04497 5.97001C1.04497 5.97001 0.450854 6.17969 0.503276 6.54665C0.555698 6.91361 1.0275 7.08835 1.0275 7.08835L4.15536 8.13679C4.15536 8.13679 5.09895 11.2297 5.29117 11.8238C5.46591 12.4005 5.62318 12.4179 5.62318 12.4179C5.79792 12.4878 5.95518 12.3655 5.95518 12.3655L7.98218 10.5307L11.1275 12.9422ZM11.6692 3.36634C11.6692 3.36634 12.1061 3.10423 12.0886 3.36634C12.0886 3.36634 12.1585 3.40129 11.9313 3.64592C11.7216 3.85561 6.77648 8.29402 6.11247 8.88814C6.06004 8.92309 6.0251 8.97551 6.0251 9.04541L5.83288 10.688C5.79793 10.8627 5.57077 10.8802 5.51835 10.7229L4.69707 8.03191C4.66212 7.92707 4.69707 7.80475 4.80191 7.73485L11.6692 3.36634Z" fill="white"/>
</svg>
