<svg width="23" height="20" viewBox="0 0 23 20" fill="none" xmlns="http://www.w3.org/2000/svg">
<path fill-rule="evenodd" clip-rule="evenodd" d="M17.4595 19.6872C18.8374 20.2901 19.3542 19.027 19.3542 19.027L23 0.711654C22.9713 -0.522764 21.3063 0.223628 21.3063 0.223628L0.895311 8.23299C0.895311 8.23299 -0.0807406 8.57748 0.00538157 9.18034C0.0915037 9.78319 0.866603 10.0703 0.866603 10.0703L6.00523 11.7927C6.00523 11.7927 7.55542 16.8739 7.87121 17.85C8.15828 18.7973 8.41665 18.826 8.41665 18.826C8.70372 18.9409 8.96209 18.7399 8.96209 18.7399L12.2921 15.7256L17.4595 19.6872ZM18.3492 3.95555C18.3492 3.95555 19.0669 3.52494 19.0382 3.95555C19.0382 3.95555 19.153 4.01296 18.7798 4.41487C18.4353 4.75936 10.3111 12.051 9.22024 13.0271C9.13412 13.0845 9.0767 13.1706 9.0767 13.2854L8.76092 15.9839C8.70351 16.271 8.33031 16.2997 8.24419 16.0414L6.89494 11.6204C6.83752 11.4482 6.89494 11.2472 7.06718 11.1324L18.3492 3.95555Z" fill="white"/>
</svg>
