<svg width="24" height="24" viewBox="0 0 24 24" fill="none" xmlns="http://www.w3.org/2000/svg">
<circle cx="12" cy="12" r="12" fill="#4C77BE"/>
<g clip-path="url(#clip0_1138_1383)">
<path d="M5.90366 5.94001C7.19966 4.24401 9.05766 3.86601 11.0897 4.04401C11.7045 4.09801 12.3228 4.09801 12.9377 4.04401C14.9397 3.86601 16.7617 4.25601 18.0597 5.91001C19.3277 7.52201 19.6597 9.42801 18.7317 11.256C17.7157 13.238 17.1077 15.312 16.6157 17.456C16.5218 17.8435 16.3912 18.2213 16.2257 18.584C15.7557 19.624 14.9437 20.128 14.0517 19.972C13.0797 19.8 12.4937 19.046 12.3997 17.882C12.3437 17.216 12.2617 16.554 12.1897 15.882C12.1847 15.8371 12.1635 15.7956 12.1299 15.7653C12.0964 15.7351 12.0528 15.7182 12.0077 15.718C11.9624 15.7178 11.9186 15.7345 11.8849 15.7648C11.8513 15.7951 11.8301 15.8369 11.8257 15.882C11.7457 16.57 11.6577 17.256 11.5957 17.946C11.4957 19.076 10.9497 19.774 9.99566 19.946C9.12566 20.11 8.30366 19.654 7.84366 18.684C7.62054 18.207 7.44244 17.7101 7.31166 17.2C6.79366 15.2 6.26766 13.248 5.31166 11.4C4.35566 9.55201 4.62766 7.60001 5.90366 5.94001ZM6.93966 11.246C7.67966 12.974 8.18166 14.8 8.79966 16.586C9.01566 17.208 9.25966 17.82 9.48966 18.436C9.50386 18.4736 9.53008 18.5054 9.56424 18.5265C9.5984 18.5476 9.63857 18.5568 9.67851 18.5527C9.71844 18.5485 9.7559 18.5314 9.78505 18.5037C9.81419 18.4761 9.83339 18.4397 9.83966 18.4C9.89766 18.084 9.95966 17.718 9.99766 17.468C10.1977 16.254 10.3637 15.034 10.5977 13.826C10.64 13.4889 10.8073 13.1799 11.0666 12.9603C11.3259 12.7406 11.6581 12.6263 11.9977 12.64C12.3368 12.6277 12.6684 12.7425 12.9273 12.9619C13.1863 13.1813 13.354 13.4894 13.3977 13.826C13.6277 15 13.7997 16.2 13.9857 17.37C14.0397 17.698 14.0997 18.026 14.1557 18.354C14.1627 18.3929 14.1821 18.4285 14.2109 18.4555C14.2398 18.4825 14.2766 18.4995 14.3158 18.504C14.3551 18.5084 14.3947 18.5002 14.4289 18.4804C14.4631 18.4606 14.49 18.4303 14.5057 18.394C14.7197 17.888 15.0117 17.394 15.1217 16.872C15.5597 14.744 16.1477 12.688 17.2157 10.766C17.9197 9.50201 17.7357 8.15001 16.8817 7.00001C15.8997 5.66401 14.4517 5.51601 12.9217 5.64601C12.3048 5.699 11.6845 5.699 11.0677 5.64601C9.53766 5.51801 8.07966 5.65801 7.10366 7.00401C6.12766 8.35001 6.29566 9.74401 6.93966 11.246Z" fill="#1E2127"/>
</g>
<defs>
<clipPath id="clip0_1138_1383">
<rect width="16" height="16" fill="white" transform="matrix(-1 0 0 1 20 4)"/>
</clipPath>
</defs>
</svg>
