<svg width="127" height="23" viewBox="0 0 127 23" fill="none" xmlns="http://www.w3.org/2000/svg">
<path d="M10.6288 1.54557C11.0114 0.86693 11.9886 0.86693 12.3712 1.54557L14.9254 6.0773C15.0681 6.33047 15.3139 6.50905 15.5988 6.56653L20.698 7.5954C21.4617 7.74948 21.7636 8.67892 21.2364 9.25243L17.7158 13.0821C17.5191 13.296 17.4252 13.5849 17.4586 13.8736L18.0558 19.0413C18.1453 19.8151 17.3546 20.3895 16.6463 20.0653L11.9162 17.9005C11.6519 17.7795 11.3481 17.7795 11.0838 17.9005L6.35371 20.0653C5.64535 20.3895 4.85472 19.8151 4.94416 19.0413L5.54139 13.8736C5.57476 13.5849 5.48088 13.296 5.28419 13.0821L1.76358 9.25243C1.23635 8.67892 1.53835 7.74948 2.30198 7.5954L7.40122 6.56653C7.6861 6.50905 7.93188 6.33047 8.07458 6.0773L10.6288 1.54557Z" fill="#9EB6DD"/>
<path d="M36.6288 1.54557C37.0114 0.86693 37.9886 0.86693 38.3712 1.54557L40.9254 6.0773C41.0681 6.33047 41.3139 6.50905 41.5988 6.56653L46.698 7.5954C47.4617 7.74948 47.7636 8.67892 47.2364 9.25243L43.7158 13.0821C43.5191 13.296 43.4252 13.5849 43.4586 13.8736L44.0558 19.0413C44.1453 19.8151 43.3546 20.3895 42.6463 20.0653L37.9162 17.9005C37.6519 17.7795 37.3481 17.7795 37.0838 17.9005L32.3537 20.0653C31.6454 20.3895 30.8547 19.8151 30.9442 19.0413L31.5414 13.8736C31.5748 13.5849 31.4809 13.296 31.2842 13.0821L27.7636 9.25243C27.2364 8.67892 27.5383 7.74948 28.302 7.5954L33.4012 6.56653C33.6861 6.50905 33.9319 6.33047 34.0746 6.0773L36.6288 1.54557Z" fill="#9EB6DD"/>
<path d="M62.6288 1.54557C63.0114 0.86693 63.9886 0.86693 64.3712 1.54557L66.9254 6.0773C67.0681 6.33047 67.3139 6.50905 67.5988 6.56653L72.698 7.5954C73.4617 7.74948 73.7636 8.67892 73.2364 9.25243L69.7158 13.0821C69.5191 13.296 69.4252 13.5849 69.4586 13.8736L70.0558 19.0413C70.1453 19.8151 69.3546 20.3895 68.6463 20.0653L63.9162 17.9005C63.6519 17.7795 63.3481 17.7795 63.0838 17.9005L58.3537 20.0653C57.6454 20.3895 56.8547 19.8151 56.9442 19.0413L57.5414 13.8736C57.5748 13.5849 57.4809 13.296 57.2842 13.0821L53.7636 9.25243C53.2364 8.67892 53.5383 7.74948 54.302 7.5954L59.4012 6.56653C59.6861 6.50905 59.9319 6.33047 60.0746 6.0773L62.6288 1.54557Z" fill="#9EB6DD"/>
<path d="M88.6288 1.54557C89.0114 0.86693 89.9886 0.86693 90.3712 1.54557L92.9254 6.0773C93.0681 6.33047 93.3139 6.50905 93.5988 6.56653L98.698 7.5954C99.4617 7.74948 99.7636 8.67892 99.2364 9.25243L95.7158 13.0821C95.5191 13.296 95.4252 13.5849 95.4586 13.8736L96.0558 19.0413C96.1453 19.8151 95.3546 20.3895 94.6463 20.0653L89.9162 17.9005C89.6519 17.7795 89.3481 17.7795 89.0838 17.9005L84.3537 20.0653C83.6454 20.3895 82.8547 19.8151 82.9442 19.0413L83.5414 13.8736C83.5748 13.5849 83.4809 13.296 83.2842 13.0821L79.7636 9.25243C79.2364 8.67892 79.5383 7.74948 80.302 7.5954L85.4012 6.56653C85.6861 6.50905 85.9319 6.33047 86.0746 6.0773L88.6288 1.54557Z" fill="#9EB6DD"/>
<path d="M114.629 1.54557C115.011 0.86693 115.989 0.86693 116.371 1.54557L118.925 6.0773C119.068 6.33047 119.314 6.50905 119.599 6.56653L124.698 7.5954C125.462 7.74948 125.764 8.67892 125.236 9.25243L121.716 13.0821C121.519 13.296 121.425 13.5849 121.459 13.8736L122.056 19.0413C122.145 19.8151 121.355 20.3895 120.646 20.0653L115.916 17.9005C115.652 17.7795 115.348 17.7795 115.084 17.9005L110.354 20.0653C109.645 20.3895 108.855 19.8151 108.944 19.0413L109.541 13.8736C109.575 13.5849 109.481 13.296 109.284 13.0821L105.764 9.25243C105.236 8.67892 105.538 7.74948 106.302 7.5954L111.401 6.56653C111.686 6.50905 111.932 6.33047 112.075 6.0773L114.629 1.54557Z" fill="#6B7587"/>
<mask id="mask0_923_732" style="mask-type:alpha" maskUnits="userSpaceOnUse" x="105" y="1" width="21" height="20">
<path d="M114.629 1.54557C115.011 0.86693 115.989 0.86693 116.371 1.54557L118.925 6.0773C119.068 6.33047 119.314 6.50905 119.599 6.56653L124.698 7.5954C125.462 7.74948 125.764 8.67892 125.236 9.25243L121.716 13.0821C121.519 13.296 121.425 13.5849 121.459 13.8736L122.056 19.0413C122.145 19.8151 121.355 20.3895 120.646 20.0653L115.916 17.9005C115.652 17.7795 115.348 17.7795 115.084 17.9005L110.354 20.0653C109.645 20.3895 108.855 19.8151 108.944 19.0413L109.541 13.8736C109.575 13.5849 109.481 13.296 109.284 13.0821L105.764 9.25243C105.236 8.67892 105.538 7.74948 106.302 7.5954L111.401 6.56653C111.686 6.50905 111.932 6.33047 112.075 6.0773L114.629 1.54557Z" fill="#C4C4C4"/>
</mask>
<g mask="url(#mask0_923_732)">
<rect x="105" width="13" height="23" fill="#9EB6DD"/>
</g>
</svg>
