<svg width="159" height="45" viewBox="0 0 159 45" fill="none" xmlns="http://www.w3.org/2000/svg">
<g clip-path="url(#clip0_923_729)">
<path d="M151.591 39.1837C154.711 39.1837 156.92 38.6318 158.567 37.4432V32.0517C156.877 33.1979 154.841 33.9196 151.981 33.9196C147.172 33.9196 145.179 30.2686 145.179 24.4951C145.179 18.4243 147.606 15.3252 152.025 15.3252C154.624 15.3252 157.18 16.2168 158.523 17.0658V11.462C157.094 10.6979 154.624 10.146 151.245 10.146C142.623 10.146 138.161 16.2168 138.161 24.7073C138.204 34.0045 142.58 39.1837 151.591 39.1837ZM109.437 36.7215V31.33C107.357 32.7309 103.805 33.962 100.556 33.962C95.6166 33.962 93.7536 31.6696 93.4503 26.9998H109.74V23.5186C109.74 13.7969 105.365 10.146 98.6492 10.146C90.4176 10.146 86.5185 16.3017 86.5185 24.7498C86.5185 34.4715 91.4141 39.1837 99.9923 39.1837C104.281 39.1837 107.444 38.0375 109.437 36.7215ZM47.6133 10.6554V21.6932H38.6018V10.6554H31.8433V38.6318H38.6018V26.9573H47.6133V38.6318H54.3719V10.6554H47.6133ZM84.8288 33.3677H81.8394V10.6554H62.1702V13.0328C62.1702 19.8677 61.737 28.6979 59.3542 33.3677H57.1879V44.9998H63.4266V38.6318H78.5468V44.9998H84.7855V33.3677H84.8288ZM130.969 38.6318H138.638L127.806 23.5611L137.338 10.6554H130.536L121.005 23.5611V10.6554H114.246V38.6318H121.005V24.8771L130.969 38.6318ZM98.476 15.3252C101.812 15.3252 102.852 18.0422 102.852 21.5658V22.1177H93.4503C93.6236 17.6601 95.27 15.3252 98.476 15.3252ZM75.0809 33.3677H65.5495C67.4125 29.1649 67.9324 21.5234 67.9324 16.6837V15.8347H75.0809V33.3677Z" fill="#6B7587"/>
<path d="M26.2112 38.6321H19.3226V5.2217H16.2466C10.6144 5.2217 7.66839 7.98113 7.66839 12.0991C7.66839 16.7689 9.70463 18.934 13.9071 21.6934L17.373 23.9858L7.40845 38.6321H0L8.96812 25.5566C3.81254 21.9481 0.909809 18.4245 0.909809 12.4811C0.909809 5.05189 6.19537 0 16.2033 0H26.1679V38.6321H26.2112Z" fill="#6B7587"/>
</g>
<defs>
<clipPath id="clip0_923_729">
<rect width="159" height="45" fill="white"/>
</clipPath>
</defs>
</svg>
