<svg width="128" height="34" viewBox="0 0 128 34" fill="none" xmlns="http://www.w3.org/2000/svg">
<g clip-path="url(#clip0_923_744)">
<path d="M1.12401 2.05745H27.7792C28.4 2.05745 28.9032 2.56069 28.9032 3.18147V8.42319C28.9032 9.1214 28.6002 9.78249 28.0728 10.24L13.167 22.7096H27.7792C28.4 22.7096 28.9032 23.2037 28.9032 23.8245V29.8421C28.9032 30.4629 28.4 30.9662 27.7792 30.9662H1.12401C0.503238 30.9662 0 30.4629 0 29.8421V24.609C0 23.9108 0.302978 23.2497 0.830428 22.7922L15.7362 10.3225H1.12401C0.503238 10.3225 0 9.80784 0 9.18707V3.18147C0 2.56069 0.503238 2.05745 1.12401 2.05745ZM47.4839 1.03223C50.5659 1.03223 53.3137 1.72531 55.6076 2.99186C57.9015 4.25842 59.7416 6.09845 61.0081 8.39236C62.2747 10.6863 62.9677 13.434 62.9677 16.5161C62.9677 19.5982 62.2747 22.3459 61.0081 24.6398C59.7416 26.9337 57.9015 28.7738 55.6076 30.0403C53.3137 31.3069 50.5659 32 47.4839 32C44.4018 32 41.654 31.3069 39.3601 30.0403C37.0662 28.7738 35.2262 26.9337 33.9596 24.6398C32.6931 22.3459 32 19.5982 32 16.5161C32 13.434 32.6931 10.6863 33.9596 8.39236C35.2262 6.09845 37.0662 4.25842 39.3601 2.99186C41.654 1.72531 44.4018 1.03223 47.4839 1.03223ZM47.4839 9.29029C46.0096 9.29029 44.7153 9.60172 43.6448 10.1808C42.5743 10.7598 41.7276 11.6065 41.1485 12.677C40.5695 13.7475 40.2581 15.0418 40.2581 16.5161C40.2581 17.9904 40.5695 19.2847 41.1485 20.3552C41.7276 21.4257 42.5743 22.2724 43.6448 22.8514C44.7153 23.4305 46.0096 23.7419 47.4839 23.7419C48.9582 23.7419 50.2525 23.4305 51.323 22.8514C52.3935 22.2724 53.2401 21.4257 53.8192 20.3552C54.3982 19.2847 54.7097 17.9904 54.7097 16.5161C54.7097 15.0418 54.3982 13.7475 53.8192 12.677C53.2401 11.6065 52.3935 10.7598 51.323 10.1808C50.2525 9.60172 48.9582 9.29029 47.4839 9.29029ZM80.5161 1.03223C83.5982 1.03223 86.346 1.72531 88.6399 2.99186C90.9338 4.25842 92.7738 6.09845 94.0404 8.39236C95.3069 10.6863 96 13.434 96 16.5161C96 19.5982 95.3069 22.3459 94.0404 24.6398C92.7738 26.9337 90.9338 28.7738 88.6399 30.0403C86.346 31.3069 83.5982 32 80.5161 32C77.4341 32 74.6863 31.3069 72.3924 30.0403C70.0985 28.7738 68.2585 26.9337 66.9919 24.6398C65.7253 22.3459 65.0323 19.5982 65.0323 16.5161C65.0323 13.434 65.7253 10.6863 66.9919 8.39236C68.2585 6.09845 70.0985 4.25842 72.3924 2.99186C74.6863 1.72531 77.4341 1.03223 80.5161 1.03223ZM80.5161 9.29029C79.0418 9.29029 77.7475 9.60172 76.677 10.1808C75.6065 10.7598 74.7599 11.6065 74.1808 12.677C73.6018 13.7475 73.2903 15.0418 73.2903 16.5161C73.2903 17.9904 73.6018 19.2847 74.1808 20.3552C74.7599 21.4257 75.6065 22.2724 76.677 22.8514C77.7475 23.4305 79.0418 23.7419 80.5161 23.7419C81.9904 23.7419 83.2847 23.4305 84.3552 22.8514C85.4257 22.2724 86.2724 21.4257 86.8514 20.3552C87.4305 19.2847 87.7419 17.9904 87.7419 16.5161C87.7419 15.0418 87.4305 13.7475 86.8514 12.677C86.2724 11.6065 85.4257 10.7598 84.3552 10.1808C83.2847 9.60172 81.9904 9.29029 80.5161 9.29029ZM128.004 3.18504V29.8417C128.004 30.4625 127.5 30.9658 126.879 30.9658H121.641C120.943 30.9658 120.282 30.6628 119.825 30.1354L107.355 15.2314V29.8417C107.355 30.4625 106.84 30.9658 106.219 30.9658H100.217C99.5965 30.9658 99.0933 30.4625 99.0933 29.8417V3.18504C99.0933 2.56423 99.5965 2.06097 100.217 2.06097H105.455C106.154 2.06097 106.815 2.36403 107.272 2.8916L119.742 17.8008V3.18504C119.742 2.56423 120.236 2.06097 120.857 2.06097H126.879C127.5 2.06097 128.004 2.56423 128.004 3.18504Z" fill="#6B7587"/>
</g>
<defs>
<clipPath id="clip0_923_744">
<rect width="128" height="33.0323" fill="white"/>
</clipPath>
</defs>
</svg>
